<svg width="465" height="477" viewBox="0 0 465 477" fill="none" xmlns="http://www.w3.org/2000/svg">
<g clip-path="url(#clip0_410_1718)">
<mask id="mask0_410_1718" style="mask-type:luminance" maskUnits="userSpaceOnUse" x="12" y="72" width="453" height="405">
<path d="M464.054 279.276L138.183 476.683L12.7962 269.7L338.667 72.2931L464.054 279.276Z" fill="white"/>
</mask>
<g mask="url(#mask0_410_1718)">
<path d="M138.183 476.683L464.054 279.276L338.667 72.2931L12.7962 269.7L138.183 476.683Z" fill="black"/>
</g>
<path d="M202.993 348.978L208.091 357.394C208.365 357.846 208.661 358.303 208.978 358.765C209.301 359.206 209.661 359.568 210.057 359.852C210.467 360.127 210.931 360.276 211.45 360.298C211.96 360.307 212.551 360.109 213.222 359.702C213.892 359.296 214.335 358.869 214.55 358.421C214.77 357.951 214.853 357.47 214.799 356.979C214.745 356.488 214.59 356.002 214.336 355.52C214.087 355.016 213.825 354.538 213.552 354.087L208.453 345.671L212.456 343.246L217.89 352.216C219.349 354.625 219.86 356.719 219.423 358.499C219 360.271 217.646 361.849 215.36 363.233C213.075 364.617 211.042 365.091 209.262 364.654C207.482 364.217 205.863 362.794 204.404 360.386L198.97 351.416L202.993 348.978ZM225.084 356.753L215.708 341.276L219.732 338.838L232.895 343.8L227.162 334.337L231.165 331.912L240.541 347.39L236.538 349.814L223.375 344.853L229.108 354.316L225.084 356.753ZM238.435 327.508L247.811 342.986L243.787 345.423L234.411 329.946L238.435 327.508Z" fill="#F0A500"/>
<path d="M253.003 335.182L253.927 334.623C254.625 334.2 255.181 333.713 255.596 333.163C256.011 332.612 256.287 332.033 256.424 331.426C256.575 330.811 256.589 330.185 256.466 329.549C256.347 328.891 256.098 328.247 255.716 327.618C255.343 327.002 254.893 326.49 254.364 326.08C253.835 325.671 253.263 325.391 252.648 325.24C252.047 325.08 251.406 325.057 250.726 325.17C250.046 325.282 249.364 325.546 248.679 325.96L247.756 326.52L253.003 335.182ZM241.668 325.55L247.621 321.943C248.675 321.305 249.788 320.92 250.962 320.789C252.15 320.65 253.301 320.728 254.417 321.026C255.537 321.301 256.582 321.79 257.551 322.494C258.512 323.184 259.303 324.042 259.925 325.069C260.538 326.081 260.932 327.18 261.107 328.365C261.288 329.527 261.245 330.676 260.978 331.81C260.725 332.937 260.262 333.994 259.588 334.982C258.928 335.961 258.064 336.774 256.997 337.421L251.044 341.027L241.668 325.55ZM261.829 313.337L271.205 328.814L267.181 331.252L257.805 315.774L261.829 313.337ZM276.724 313.629L284.709 308.792C285.206 309.613 285.624 310.38 285.962 311.092C286.3 311.804 286.54 312.509 286.683 313.208C286.884 314.19 286.93 315.145 286.818 316.073C286.699 316.987 286.432 317.859 286.019 318.69C285.61 319.498 285.076 320.252 284.415 320.952C283.754 321.652 282.985 322.267 282.109 322.798C280.905 323.527 279.683 323.996 278.444 324.204C277.218 324.404 276.034 324.364 274.891 324.084C273.74 323.789 272.664 323.263 271.662 322.504C270.651 321.732 269.777 320.737 269.04 319.519C268.31 318.315 267.834 317.097 267.612 315.866C267.396 314.613 267.428 313.415 267.708 312.272C268.002 311.121 268.536 310.041 269.308 309.03C270.08 308.02 271.089 307.138 272.334 306.383C273.949 305.405 275.577 304.896 277.218 304.856C278.858 304.816 280.478 305.313 282.077 306.346L279.216 310.24C278.346 309.607 277.512 309.279 276.714 309.258C275.929 309.229 275.174 309.433 274.448 309.873C273.846 310.238 273.369 310.686 273.017 311.217C272.657 311.734 272.428 312.313 272.329 312.952C272.236 313.57 272.265 314.235 272.416 314.948C272.581 315.653 272.883 316.368 273.322 317.093C273.72 317.75 274.171 318.309 274.675 318.771C275.193 319.224 275.747 319.552 276.338 319.756C276.929 319.959 277.548 320.023 278.195 319.949C278.834 319.862 279.489 319.615 280.16 319.208C280.557 318.968 280.915 318.695 281.235 318.389C281.546 318.069 281.787 317.727 281.959 317.361C282.135 316.973 282.224 316.564 282.225 316.133C282.226 315.702 282.124 315.24 281.919 314.747L278.614 316.749L276.724 313.629ZM287.147 297.999L296.523 313.477L292.5 315.914L283.123 300.437L287.147 297.999ZM298.315 295.892L305.627 307.962L301.604 310.399L294.292 298.329L290.987 300.331L288.923 296.923L299.556 290.482L301.62 293.89L298.315 295.892ZM314.934 294.467L310.007 290.409L311.321 296.655L314.934 294.467ZM317.854 296.879L312.107 300.36L312.812 303.609L308.522 306.208L305.037 287.162L309.43 284.5L324.697 296.409L320.407 299.008L317.854 296.879ZM321.105 277.428L328.417 289.498L333.241 286.576L335.305 289.983L326.458 295.343L317.082 279.865L321.105 277.428Z" fill="white"/>
<path d="M245.252 267.061C245.233 267.171 245.171 267.294 245.109 267.412C245.182 267.224 245.257 267.036 245.252 267.061ZM245.085 259.341C245.145 259.454 245.2 259.571 245.23 259.685C245.244 259.741 245.164 259.54 245.085 259.341ZM223.746 284.841C227.604 286.016 232.006 285.745 235.935 284.582C243.924 282.218 251.267 275.884 253.509 267.873C254.647 263.808 254.241 259.634 252.656 255.908C252.572 255.517 252.422 255.133 252.2 254.766L249.412 250.164C248.332 248.382 245.65 247.673 243.765 248.928C241.874 250.186 241.088 252.595 242.246 254.506L244.252 257.818C244.496 258.224 244.727 258.637 244.937 259.063C244.967 259.122 245.001 259.185 245.035 259.248C245.067 259.325 245.099 259.402 245.128 259.48C245.411 260.227 245.63 260.998 245.785 261.785C245.79 261.798 245.803 261.864 245.819 261.949C245.82 261.953 245.821 261.957 245.821 261.961C245.823 261.969 245.823 261.976 245.825 261.984C245.833 262.031 245.841 262.082 245.848 262.132C245.871 262.281 245.892 262.43 245.919 262.578C245.9 262.472 245.883 262.381 245.868 262.299C245.868 262.303 245.869 262.307 245.869 262.311C245.901 262.715 245.914 263.121 245.909 263.528C245.904 263.922 245.875 264.314 245.843 264.708C245.824 264.816 245.806 264.925 245.784 265.033C245.629 265.813 245.408 266.583 245.129 267.334C245.111 267.383 245.092 267.431 245.073 267.479C245.049 267.525 245.025 267.57 245.005 267.611C244.823 268 244.625 268.382 244.413 268.757C244.225 269.089 244.026 269.416 243.817 269.737C243.705 269.908 243.59 270.079 243.473 270.246C243.465 270.258 243.457 270.269 243.449 270.28C242.982 270.858 242.505 271.423 241.984 271.958C241.441 272.515 240.865 273.032 240.272 273.535C240.157 273.622 240.043 273.71 239.926 273.794C239.56 274.06 239.186 274.315 238.806 274.56C238.089 275.021 237.348 275.443 236.587 275.824C236.438 275.899 236.288 275.97 236.139 276.042C235.805 276.178 235.472 276.314 235.133 276.437C234.343 276.724 233.539 276.966 232.724 277.159C232.422 277.23 232.118 277.289 231.815 277.349C231.608 277.374 231.401 277.402 231.193 277.422C230.382 277.504 229.568 277.532 228.758 277.502C228.643 277.498 228.528 277.49 228.413 277.483C228.03 277.436 227.649 277.375 227.271 277.299C226.872 277.219 226.477 277.12 226.087 277.007C226.102 277.013 226.067 277.004 226.005 276.984C225.992 276.981 225.979 276.978 225.966 276.974C225.751 276.91 225.54 276.832 225.326 276.766C225.465 276.809 225.576 276.843 225.673 276.874C225.623 276.856 225.575 276.837 225.534 276.82C225.116 276.644 224.707 276.448 224.31 276.233C224.109 276.124 223.911 276.01 223.716 275.891C223.661 275.857 223.543 275.779 223.434 275.708C223.377 275.666 223.326 275.628 223.297 275.606C223.111 275.46 222.928 275.31 222.749 275.155C222.381 274.837 222.031 274.5 221.699 274.148C221.57 274.011 221.447 273.87 221.323 273.73C221.313 273.716 221.303 273.704 221.292 273.689C220.955 273.24 220.644 272.774 220.351 272.296L218.345 268.984C217.265 267.202 214.583 266.493 212.698 267.747C210.807 269.006 210.022 271.415 211.179 273.325L213.967 277.927C214.17 278.262 214.429 278.559 214.729 278.812C217.044 281.646 220.095 283.728 223.746 284.841Z" fill="#F0A500"/>
<path d="M233.691 292.84C233.456 292.892 233.218 292.941 232.989 292.952C232.948 292.954 233.504 292.869 233.691 292.84ZM238.667 299.885C246.029 297.894 252.917 293.905 258.436 288.642C263.89 283.442 268.044 276.688 269.705 269.49C271.625 261.172 270.242 252.852 266.547 245.445C266.067 244.484 265.545 243.545 264.99 242.626L261.398 236.695C260.318 234.913 257.636 234.204 255.751 235.458C253.86 236.717 253.075 239.126 254.232 241.036L257.824 246.967C258.363 247.86 258.871 248.771 259.339 249.703C259.559 250.14 259.769 250.581 259.971 251.026C260.058 251.219 260.14 251.413 260.227 251.605C259.616 250.253 260.083 251.275 260.217 251.611C260.898 253.331 261.443 255.107 261.825 256.925C261.915 257.354 261.996 257.785 262.068 258.218C262.099 258.405 262.129 258.593 262.156 258.781C262.157 258.783 262.157 258.785 262.157 258.787C262.235 259.607 262.308 260.425 262.331 261.252C262.355 262.111 262.341 262.972 262.291 263.833C262.266 264.244 262.233 264.656 262.191 265.067C262.174 265.235 262.154 265.402 262.135 265.57C261.878 267.17 261.511 268.751 261.008 270.305C260.883 270.69 260.751 271.073 260.611 271.453C260.475 271.824 259.884 273.182 260.402 272.014C260.102 272.691 259.803 273.365 259.466 274.028C258.71 275.518 257.84 276.957 256.873 278.333C256.63 278.678 255.67 279.894 256.708 278.583C256.454 278.904 256.208 279.231 255.949 279.549C255.417 280.205 254.861 280.844 254.285 281.466C253.147 282.693 251.93 283.85 250.645 284.93C250.508 285.046 250.37 285.159 250.232 285.273C249.952 285.489 249.673 285.704 249.388 285.913C248.699 286.42 247.994 286.906 247.275 287.371C245.86 288.287 244.389 289.118 242.875 289.858C242.567 290.009 242.257 290.153 241.946 290.297C241.772 290.371 241.597 290.446 241.422 290.518C240.633 290.842 239.835 291.142 239.029 291.416C237.445 291.955 235.829 292.395 234.196 292.727C234.038 292.759 233.875 292.798 233.711 292.835C233.686 292.839 233.653 292.843 233.599 292.851C233.498 292.866 233.397 292.882 233.297 292.897C233.069 292.931 232.842 292.963 232.614 292.993C231.781 293.1 230.944 293.18 230.107 293.229C229.296 293.277 228.484 293.297 227.674 293.287C227.268 293.283 226.863 293.27 226.459 293.251C226.257 293.241 226.055 293.23 225.853 293.216C225.802 293.213 225.703 293.205 225.601 293.197C225.578 293.195 225.556 293.193 225.54 293.191C225.339 293.169 225.138 293.145 224.937 293.12C224.485 293.062 224.034 292.994 223.586 292.917C222.785 292.779 221.99 292.61 221.206 292.41C220.442 292.215 219.692 291.985 218.948 291.738C218.812 291.686 218.676 291.634 218.541 291.581C218.109 291.41 217.682 291.229 217.259 291.037C215.727 290.344 214.299 289.506 212.899 288.599C212.773 288.507 212.646 288.415 212.522 288.321C212.126 288.025 211.739 287.719 211.359 287.405C210.667 286.832 210.001 286.23 209.361 285.602C208.677 284.931 208.024 284.23 207.401 283.504C207.358 283.454 207.24 283.312 207.144 283.198C207.131 283.181 207.119 283.166 207.11 283.154C206.77 282.722 206.44 282.282 206.119 281.835C205.53 281.012 204.976 280.165 204.449 279.3L200.857 273.37C199.777 271.588 197.095 270.878 195.21 272.133C193.319 273.392 192.534 275.801 193.691 277.711L197.284 283.641C201.737 290.954 208.223 296.632 216.497 299.523C223.483 301.965 231.377 301.856 238.667 299.885Z" fill="#F0A500"/>
<path d="M274.149 224.846C273.069 223.064 270.387 222.354 268.502 223.609C266.61 224.867 265.826 227.277 266.983 229.187L271.203 236.153L271.203 236.153C272.032 237.527 272.814 238.93 273.535 240.364C273.87 241.029 274.192 241.701 274.5 242.379C274.651 242.712 274.796 243.049 274.945 243.384C274.304 241.943 274.94 243.387 275.08 243.738C276.13 246.364 276.974 249.077 277.571 251.853C277.7 252.45 277.817 253.049 277.922 253.651C277.979 253.976 278.033 254.302 278.082 254.628C278.14 255.004 278.278 256.452 278.131 254.892C278.257 256.23 278.405 257.558 278.453 258.905C278.539 261.334 278.379 263.743 278.112 266.168C278.092 266.327 278.069 266.5 278.053 266.603C278.004 266.907 277.951 267.21 277.896 267.513C277.787 268.116 277.664 268.718 277.53 269.317C277.252 270.556 276.922 271.786 276.541 273.003C276.22 274.029 275.861 275.044 275.47 276.05C275.473 276.054 275.382 276.296 275.315 276.451C275.308 276.466 275.301 276.481 275.295 276.496C275.245 276.618 275.194 276.74 275.147 276.863C275.18 276.777 275.21 276.7 275.237 276.63C275.142 276.849 275.048 277.068 274.95 277.286C274.682 277.886 274.401 278.481 274.108 279.072C273.008 281.29 271.738 283.433 270.322 285.483C270.003 285.946 269.672 286.4 269.341 286.854C269.314 286.89 269.287 286.926 269.26 286.961C269.042 287.244 268.821 287.524 268.598 287.802C267.831 288.756 267.032 289.685 266.204 290.589C264.51 292.438 262.692 294.179 260.771 295.801C260.535 296 260.298 296.197 260.06 296.392C260.016 296.428 259.959 296.474 259.896 296.522C259.957 296.477 260.022 296.426 260.097 296.37C259.564 296.775 259.04 297.189 258.502 297.586C257.507 298.32 256.49 299.023 255.453 299.694C253.335 301.066 251.132 302.308 248.863 303.409C248.307 303.679 247.743 303.929 247.185 304.192C247.269 304.152 247.344 304.117 247.412 304.085C247.34 304.117 247.273 304.147 247.221 304.169C246.891 304.31 246.559 304.449 246.225 304.584C245.084 305.047 243.928 305.476 242.761 305.867C240.383 306.665 237.957 307.31 235.504 307.788C235.204 307.847 234.903 307.903 234.603 307.956C234.559 307.964 234.516 307.971 234.473 307.979C233.865 308.069 233.258 308.158 232.649 308.232C231.413 308.381 230.174 308.487 228.934 308.548C227.692 308.61 226.451 308.626 225.212 308.597C224.605 308.582 223.997 308.556 223.392 308.52C223.154 308.505 222.916 308.487 222.678 308.47C222.752 308.478 222.834 308.487 222.926 308.498C222.802 308.484 222.678 308.473 222.554 308.461C222.53 308.459 222.507 308.458 222.483 308.456C222.319 308.444 222.07 308.413 222.055 308.407C219.661 308.143 217.294 307.7 214.986 307.076C214.442 306.929 213.902 306.772 213.366 306.605C213.071 306.513 212.778 306.419 212.486 306.322C212.367 306.282 212.248 306.241 212.129 306.201C210.971 305.763 209.826 305.299 208.706 304.778C207.558 304.243 206.435 303.66 205.34 303.032C204.784 302.713 204.234 302.383 203.693 302.041C203.419 301.868 203.148 301.693 202.878 301.515C202.705 301.4 202.285 301.09 202.141 300.984C200.119 299.444 198.162 297.875 196.36 296.079C195.357 295.079 194.397 294.038 193.481 292.962C193.247 292.688 192.383 291.601 193.346 292.815C193.118 292.528 192.887 292.244 192.661 291.955C192.165 291.318 191.682 290.671 191.213 290.014C190.316 288.759 189.472 287.468 188.671 286.15L184.45 279.184C183.371 277.401 180.688 276.692 178.803 277.947C176.912 279.205 176.127 281.614 177.284 283.525L182.705 292.472C182.829 292.677 182.974 292.866 183.137 293.041C186.112 297.473 189.648 301.579 193.759 305.008C198.073 308.607 202.978 311.562 208.34 313.506C213.708 315.453 219.276 316.523 225.084 316.67C230.452 316.807 235.916 316.075 241.161 314.693C246.434 313.303 251.575 311.156 256.343 308.468C261.116 305.777 265.576 302.431 269.516 298.643C273.45 294.86 276.899 290.507 279.63 285.839C282.362 281.168 284.425 276.052 285.566 270.842C286.841 265.018 287.009 259.196 286.25 253.389C285.449 247.257 283.419 241.407 280.659 235.939C280.413 235.452 280.158 234.97 279.899 234.491C279.815 234.253 279.706 234.02 279.569 233.793L274.149 224.846Z" fill="#F0A500"/>
<path d="M204.843 215.477C216.399 208.897 230.14 207.638 244.146 213.328C244.935 213.649 245.774 213.924 246.362 214.582C247.356 215.698 247.439 217.159 246.582 218.372C245.695 219.628 244.166 220.155 242.724 219.587C241.162 218.972 239.634 218.283 238.025 217.768C214.515 210.239 188.784 227.632 187.177 252.145C187.16 252.402 187.151 252.66 187.128 252.917C186.95 254.899 185.537 256.242 183.686 256.19C181.928 256.141 180.685 254.733 180.793 252.814C181.194 245.645 183.2 238.87 186.983 232.553C190.882 226.043 196.362 220.594 204.843 215.477Z" fill="white"/>
<path d="M210.027 228.465C220.203 222.675 230.518 221.835 240.968 226.365C242.51 227.033 243.202 228.288 242.927 229.704C242.655 231.103 241.443 232.198 239.988 232.371C239.204 232.465 238.537 232.177 237.86 231.888C225.576 226.629 211.435 231.104 204.067 242.616C201.591 246.483 200.321 250.697 200.074 255.168C199.998 256.545 199.319 257.575 197.989 258.112C196.775 258.602 195.647 258.424 194.698 257.58C193.905 256.877 193.699 255.958 193.768 254.916C194.359 246.071 198.023 238.551 204.772 232.371C206.38 230.899 208.134 229.602 210.027 228.465Z" fill="white"/>
<path d="M217.487 240.556C223.557 237.034 229.753 236.483 236.061 239.058C238.111 239.894 238.88 241.64 238.032 243.335C237.166 245.066 235.355 245.601 233.29 244.734C224.899 241.213 215.157 246.805 213.934 255.845C213.887 256.187 213.872 256.531 213.835 256.873C213.628 258.79 212.248 260.083 210.442 260.054C208.652 260.025 207.403 258.651 207.529 256.727C207.88 251.37 210.081 246.787 214.163 243.02C215.178 242.083 216.292 241.273 217.487 240.556Z" fill="white"/>
<g clip-path="url(#clip1_410_1718)">
<path d="M430.798 273.064C430.654 273.077 430.447 273.056 430.339 273.016C430.231 272.976 430.068 272.873 429.976 272.786C429.883 272.7 429.788 272.564 429.764 272.485C429.739 272.406 429.687 272.082 429.647 271.767C429.607 271.452 429.498 270.849 429.405 270.429C429.312 270.008 429.143 269.39 429.029 269.055C428.916 268.719 428.701 268.165 428.551 267.822C428.38 267.43 428.077 266.866 427.735 266.301C427.397 265.743 427.033 265.207 426.773 264.884C426.543 264.598 426.19 264.19 425.99 263.977C425.79 263.764 425.426 263.408 425.181 263.185C424.937 262.961 424.394 262.531 423.975 262.228C423.41 261.82 423.181 261.623 423.09 261.47C423.011 261.335 422.97 261.181 422.975 261.032C422.979 260.905 423.023 260.703 423.074 260.583C423.139 260.429 423.237 260.314 423.408 260.191C423.541 260.095 423.712 259.997 423.789 259.972C423.865 259.948 424.053 259.949 424.206 259.974C424.408 260.008 424.623 260.114 424.988 260.361C425.265 260.549 425.715 260.881 425.987 261.101C426.259 261.32 426.725 261.734 427.021 262.02C427.318 262.307 427.757 262.767 427.998 263.043C428.239 263.319 428.604 263.775 428.81 264.055C429.016 264.335 429.355 264.847 429.565 265.193C429.774 265.539 430.071 266.077 430.224 266.389C430.377 266.702 430.612 267.236 430.745 267.577C430.879 267.918 431.09 268.549 431.216 268.98C431.341 269.41 431.503 270.085 431.575 270.48C431.647 270.875 431.722 271.423 431.741 271.697C431.765 272.035 431.744 272.274 431.679 272.437C431.602 272.626 431.525 272.717 431.321 272.858C431.119 272.998 431.001 273.044 430.798 273.064ZM427.1 273.65C427.005 273.675 426.771 273.656 426.579 273.607C426.304 273.537 426.197 273.478 426.067 273.324C425.926 273.157 425.895 273.069 425.849 272.696C425.82 272.458 425.735 271.953 425.66 271.575C425.585 271.197 425.425 270.603 425.304 270.256C425.183 269.909 424.933 269.321 424.748 268.95C424.498 268.45 424.301 268.123 423.986 267.693C423.752 267.373 423.358 266.896 423.111 266.632C422.863 266.368 422.476 265.996 422.25 265.805C422.024 265.614 421.651 265.33 421.422 265.174C421.192 265.017 420.951 264.835 420.887 264.769C420.822 264.702 420.742 264.543 420.708 264.415C420.67 264.272 420.677 264.069 420.725 263.892C420.768 263.734 420.864 263.535 420.939 263.45C421.014 263.365 421.177 263.247 421.301 263.189C421.437 263.126 421.637 263.088 421.801 263.095C421.992 263.103 422.176 263.168 422.407 263.308C422.589 263.418 422.955 263.673 423.22 263.874C423.485 264.075 423.935 264.463 424.22 264.736C424.506 265.009 424.918 265.441 425.137 265.697C425.445 266.055 425.687 266.26 426.2 267.109C426.767 268.047 426.903 268.461 427.123 269.031C427.264 269.399 427.457 269.987 427.551 270.337C427.646 270.687 427.764 271.238 427.815 271.561C427.866 271.885 427.916 272.296 427.926 272.474C427.937 272.681 427.901 272.889 427.827 273.049C427.746 273.222 427.643 273.346 427.491 273.451C427.371 273.535 427.195 273.624 427.1 273.65ZM422.92 273.981C422.83 274.009 422.696 274.037 422.621 274.043C422.547 274.048 421.801 273.992 420.965 273.918C420.128 273.843 418.83 273.728 418.08 273.661C417.33 273.594 416.477 273.537 416.186 273.533C415.894 273.53 415.622 273.547 415.58 273.573C415.518 273.61 415.54 273.675 415.703 273.943C415.811 274.122 416.1 274.479 416.344 274.735C416.587 274.992 416.872 275.342 416.976 275.514C417.112 275.739 417.17 275.897 417.184 276.079C417.194 276.218 417.166 276.413 417.12 276.512C417.075 276.61 416.964 276.75 416.873 276.822C416.758 276.913 416.634 276.96 416.461 276.976C416.325 276.988 416.07 276.958 415.894 276.907C415.719 276.857 415.467 276.733 415.334 276.632C415.202 276.531 414.92 276.27 414.708 276.051C414.373 275.706 414.184 275.54 413.665 274.68C413.149 273.826 413.103 273.605 412.949 273.142C412.85 272.847 412.756 272.463 412.738 272.287C412.721 272.112 412.725 271.894 412.746 271.801C412.768 271.709 412.826 271.57 412.875 271.493C412.924 271.416 413.026 271.315 413.102 271.269C413.178 271.223 413.351 271.189 413.488 271.193C413.624 271.197 414.555 271.277 415.556 271.37C416.557 271.463 418.112 271.605 419.012 271.685C419.913 271.765 420.745 271.837 420.862 271.844C420.979 271.851 421.099 271.826 421.128 271.79C421.16 271.75 421.132 271.598 421.06 271.409C420.993 271.236 420.881 270.973 420.81 270.824C420.74 270.676 420.536 270.363 420.357 270.129C420.179 269.895 419.869 269.548 419.669 269.359C419.469 269.17 419.148 268.903 418.955 268.767C418.762 268.63 418.502 268.402 418.377 268.258C418.206 268.063 418.133 267.94 418.087 267.769C418.053 267.643 418.051 267.427 418.083 267.288C418.13 267.077 418.177 267.008 418.37 266.865C418.506 266.765 418.674 266.682 418.778 266.665C418.876 266.648 419.127 266.68 419.338 266.736C419.548 266.792 419.881 266.94 420.078 267.064C420.274 267.188 420.638 267.457 420.885 267.661C421.132 267.864 421.478 268.179 421.653 268.36C421.901 268.616 422.138 268.851 422.552 269.533C422.966 270.217 423.063 270.535 423.176 270.874C423.255 271.113 423.363 271.499 423.417 271.733C423.47 271.967 423.534 272.356 423.557 272.599C423.581 272.841 423.583 273.115 423.561 273.208C423.539 273.301 423.49 273.446 423.451 273.53C423.413 273.615 423.314 273.739 423.231 273.807C423.149 273.874 423.009 273.952 422.92 273.981Z" fill="#F0A500"/>
</g>
</g>
<rect x="463.367" y="279.108" width="380" height="241" rx="15.5" transform="rotate(148.793 463.367 279.108)" stroke="black"/>
<g clip-path="url(#clip2_410_1718)">
<mask id="mask1_410_1718" style="mask-type:luminance" maskUnits="userSpaceOnUse" x="0" y="0" width="425" height="318">
<path d="M0.84375 81.3325L373.115 0.243242L424.62 236.699L52.3493 317.788L0.84375 81.3325Z" fill="white"/>
</mask>
<g mask="url(#mask1_410_1718)">
<path d="M373.115 0.243242L0.84375 81.3325L52.3493 317.788L424.62 236.699L373.115 0.243242Z" fill="url(#paint0_linear_410_1718)"/>
<path d="M373.115 0.243242L0.84375 81.3325L52.3493 317.788L424.62 236.699L373.115 0.243242Z" fill="url(#paint1_linear_410_1718)"/>
</g>
<path d="M224.377 157.26C224.315 157.371 224.204 157.481 224.093 157.584C224.241 157.41 224.39 157.235 224.377 157.26ZM227.04 148.904C227.062 149.048 227.079 149.193 227.068 149.327C227.063 149.392 227.051 149.146 227.04 148.904ZM194.722 168.444C198.433 171.127 203.263 172.457 207.914 172.655C217.368 173.056 227.59 168.955 232.949 161.173C235.669 157.224 236.769 152.591 236.438 148.004C236.492 147.552 236.472 147.084 236.369 146.608L235.068 140.637C234.564 138.325 231.943 136.575 229.456 137.229C226.96 137.885 225.23 140.184 225.77 142.663L226.706 146.96C226.818 147.487 226.914 148.016 226.983 148.55C226.993 148.625 227.007 148.705 227.021 148.785C227.026 148.88 227.032 148.975 227.035 149.069C227.064 149.975 227.015 150.885 226.891 151.787C226.892 151.804 226.882 151.879 226.867 151.976C226.867 151.981 226.867 151.985 226.866 151.99C226.865 151.999 226.863 152.007 226.861 152.015C226.853 152.069 226.843 152.127 226.832 152.184C226.801 152.352 226.769 152.52 226.744 152.688C226.762 152.568 226.777 152.464 226.792 152.37C226.79 152.375 226.789 152.379 226.788 152.384C226.673 152.83 226.538 153.27 226.383 153.706C226.233 154.127 226.057 154.538 225.877 154.949C225.817 155.059 225.757 155.169 225.694 155.277C225.241 156.058 224.72 156.804 224.143 157.508C224.106 157.553 224.068 157.599 224.03 157.643C223.986 157.684 223.945 157.723 223.908 157.761C223.569 158.111 223.216 158.448 222.85 158.773C222.526 159.061 222.192 159.339 221.849 159.606C221.666 159.75 221.48 159.89 221.292 160.028C221.279 160.037 221.266 160.046 221.253 160.055C220.539 160.504 219.818 160.935 219.061 161.318C218.274 161.716 217.464 162.06 216.642 162.382C216.486 162.433 216.33 162.485 216.174 162.533C215.683 162.684 215.187 162.821 214.689 162.943C213.749 163.175 212.797 163.355 211.838 163.485C211.652 163.51 211.464 163.531 211.277 163.553C210.868 163.577 210.46 163.601 210.051 163.608C209.097 163.625 208.143 163.589 207.197 163.497C206.846 163.462 206.498 163.413 206.15 163.366C205.918 163.317 205.686 163.27 205.455 163.216C204.554 163.004 203.669 162.735 202.81 162.405C202.687 162.357 202.566 162.307 202.446 162.257C202.051 162.065 201.664 161.86 201.287 161.639C200.887 161.405 200.499 161.154 200.122 160.889C200.135 160.901 200.101 160.878 200.042 160.834C200.029 160.826 200.016 160.818 200.004 160.809C199.796 160.66 199.599 160.5 199.392 160.35C199.526 160.447 199.633 160.525 199.726 160.593C199.679 160.555 199.635 160.518 199.597 160.484C199.212 160.142 198.845 159.78 198.497 159.403C198.322 159.211 198.15 159.016 197.985 158.816C197.939 158.76 197.84 158.633 197.75 158.516C197.704 158.45 197.663 158.391 197.64 158.356C197.493 158.131 197.352 157.902 197.217 157.669C196.939 157.192 196.687 156.702 196.46 156.201C196.372 156.007 196.291 155.81 196.21 155.613C196.204 155.595 196.198 155.578 196.192 155.558C195.994 154.952 195.833 154.337 195.694 153.715L194.758 149.418C194.254 147.105 191.633 145.355 189.146 146.009C186.65 146.665 184.919 148.964 185.459 151.443L186.76 157.414C186.855 157.849 187.024 158.264 187.253 158.646C188.697 162.543 191.208 165.904 194.722 168.444Z" fill="#449DD1"/>
<path d="M202.461 180.698C202.188 180.668 201.915 180.632 201.665 180.56C201.621 180.548 202.249 180.661 202.461 180.698ZM205.213 190.101C213.856 190.672 222.725 188.922 230.593 185.3C238.368 181.721 245.319 175.994 249.755 168.872C254.881 160.642 256.458 151.193 255.216 141.874C255.054 140.664 254.839 139.464 254.582 138.272L252.905 130.577C252.402 128.264 249.781 126.514 247.293 127.168C244.798 127.824 243.068 130.124 243.607 132.602L245.284 140.297C245.533 141.455 245.744 142.621 245.903 143.795C245.978 144.345 246.042 144.897 246.095 145.449C246.118 145.688 246.135 145.927 246.157 146.165C245.998 144.487 246.124 145.757 246.144 146.168C246.242 148.267 246.173 150.376 245.915 152.47C245.854 152.964 245.782 153.457 245.7 153.949C245.665 154.161 245.627 154.374 245.587 154.586C245.587 154.588 245.587 154.591 245.586 154.593C245.368 155.503 245.145 156.408 244.865 157.306C244.575 158.237 244.243 159.157 243.871 160.063C243.693 160.497 243.506 160.926 243.31 161.353C243.23 161.527 243.146 161.699 243.065 161.873C242.199 163.497 241.223 165.061 240.11 166.545C239.834 166.913 239.551 167.276 239.261 167.633C238.978 167.981 237.842 169.222 238.829 168.159C238.258 168.775 237.688 169.389 237.082 169.977C235.721 171.3 234.256 172.526 232.711 173.648C232.323 173.93 230.843 174.882 232.441 173.856C232.05 174.107 231.665 174.368 231.271 174.614C230.456 175.123 229.624 175.605 228.776 176.061C227.102 176.961 225.367 177.756 223.59 178.443C223.4 178.517 223.21 178.588 223.019 178.659C222.64 178.788 222.26 178.916 221.877 179.036C220.95 179.327 220.014 179.59 219.07 179.825C217.212 180.287 215.325 180.639 213.426 180.877C213.04 180.925 212.654 180.966 212.267 181.006C212.052 181.021 211.837 181.037 211.622 181.05C210.655 181.108 209.687 181.136 208.72 181.134C206.82 181.129 204.922 181.007 203.044 180.763C202.864 180.739 202.674 180.721 202.484 180.7C202.456 180.695 202.418 180.688 202.358 180.676C202.244 180.655 202.129 180.636 202.016 180.615C201.759 180.567 201.503 180.517 201.248 180.466C200.312 180.275 199.384 180.052 198.467 179.797C197.577 179.549 196.698 179.272 195.831 178.963C195.397 178.809 194.966 178.646 194.539 178.477C194.325 178.392 194.112 178.305 193.9 178.216C193.846 178.194 193.744 178.149 193.636 178.103C193.612 178.092 193.591 178.082 193.574 178.074C193.365 177.976 193.158 177.876 192.952 177.775C192.487 177.547 192.028 177.308 191.575 177.06C190.765 176.616 189.974 176.143 189.204 175.639C188.455 175.148 187.734 174.625 187.025 174.085C186.899 173.979 186.772 173.874 186.647 173.767C186.246 173.424 185.853 173.071 185.469 172.71C184.078 171.402 182.852 169.975 181.683 168.485C181.581 168.339 181.479 168.194 181.379 168.047C181.064 167.583 180.76 167.113 180.468 166.635C179.935 165.765 179.441 164.872 178.985 163.962C178.497 162.989 178.053 161.995 177.651 160.985C177.623 160.916 177.549 160.721 177.488 160.562C177.48 160.539 177.472 160.519 177.467 160.503C177.261 159.913 177.068 159.319 176.889 158.721C176.559 157.619 176.275 156.505 176.028 155.383L174.352 147.688C173.848 145.375 171.227 143.625 168.74 144.279C166.244 144.935 164.514 147.234 165.054 149.713L166.73 157.408C168.822 166.904 173.7 175.394 181.525 181.548C188.132 186.744 196.654 189.534 205.213 190.101Z" fill="#449DD1"/>
<path d="M270.969 122.542C270.465 120.23 267.844 118.48 265.357 119.133C262.861 119.789 261.131 122.089 261.671 124.567L263.64 133.606L263.639 133.607C264.025 135.388 264.349 137.183 264.595 138.99C264.71 139.827 264.808 140.667 264.89 141.509C264.93 141.923 264.961 142.339 264.998 142.753C264.84 140.969 264.991 142.755 265.012 143.184C265.174 146.392 265.081 149.618 264.701 152.82C264.619 153.509 264.524 154.196 264.416 154.882C264.357 155.252 264.295 155.621 264.228 155.99C264.152 156.416 263.766 158.022 264.183 156.292C263.825 157.776 263.495 159.256 263.051 160.722C262.249 163.363 261.19 165.893 260.01 168.401C259.93 168.564 259.842 168.741 259.786 168.846C259.622 169.154 259.454 169.46 259.283 169.766C258.943 170.373 258.59 170.975 258.225 171.569C257.471 172.798 256.663 173.998 255.806 175.165C255.083 176.149 254.323 177.109 253.532 178.045C253.534 178.05 253.347 178.277 253.218 178.419C253.206 178.433 253.193 178.446 253.18 178.46C253.082 178.573 252.982 178.685 252.886 178.799C252.953 178.719 253.014 178.647 253.068 178.583C252.886 178.783 252.704 178.984 252.519 179.182C252.01 179.728 251.489 180.264 250.957 180.79C248.957 182.768 246.804 184.603 244.528 186.285C244.014 186.664 243.492 187.03 242.969 187.397C242.927 187.425 242.884 187.454 242.842 187.482C242.504 187.705 242.163 187.924 241.821 188.141C240.646 188.884 239.446 189.588 238.223 190.254C235.722 191.617 233.127 192.818 230.466 193.853C230.14 193.98 229.812 194.105 229.484 194.226C229.424 194.249 229.345 194.277 229.26 194.306C229.342 194.279 229.431 194.249 229.532 194.216C228.811 194.455 228.095 194.708 227.37 194.936C226.032 195.358 224.68 195.738 223.318 196.078C220.537 196.772 217.713 197.295 214.869 197.642C214.173 197.728 213.475 197.789 212.778 197.866C212.883 197.854 212.976 197.844 213.062 197.835C212.973 197.843 212.89 197.851 212.826 197.855C212.418 197.885 212.011 197.911 211.603 197.934C210.206 198.011 208.807 198.046 207.409 198.037C204.559 198.018 201.715 197.817 198.903 197.428C198.56 197.381 198.216 197.33 197.873 197.277C197.824 197.269 197.775 197.261 197.726 197.254C197.04 197.126 196.354 196.999 195.673 196.854C194.29 196.559 192.919 196.216 191.564 195.826C190.208 195.434 188.868 194.995 187.548 194.507C186.9 194.268 186.257 194.017 185.62 193.754C185.37 193.651 185.12 193.544 184.871 193.437C184.948 193.474 185.033 193.514 185.127 193.559C185 193.498 184.871 193.441 184.742 193.382C184.717 193.372 184.692 193.362 184.667 193.351C184.495 193.277 184.239 193.152 184.226 193.141C181.75 191.975 179.371 190.628 177.121 189.107C176.591 188.749 176.068 188.381 175.553 188.004C175.27 187.798 174.99 187.589 174.712 187.377C174.599 187.29 174.486 187.202 174.373 187.115C173.29 186.218 172.23 185.298 171.219 184.325C170.183 183.328 169.191 182.288 168.246 181.211C167.765 180.663 167.296 180.106 166.841 179.539C166.61 179.252 166.383 178.964 166.159 178.674C166.015 178.486 165.678 177.999 165.563 177.832C163.957 175.433 162.432 173.026 161.157 170.432C160.448 168.989 159.8 167.517 159.211 166.023C159.061 165.642 158.533 164.157 159.121 165.816C158.982 165.423 158.838 165.033 158.702 164.64C158.403 163.773 158.122 162.899 157.86 162.021C157.359 160.342 156.927 158.644 156.552 156.933L154.583 147.894C154.079 145.581 151.458 143.831 148.971 144.485C146.475 145.141 144.745 147.44 145.285 149.919L147.814 161.528C147.871 161.794 147.958 162.052 148.068 162.299C149.633 168.157 151.92 173.87 155.074 179.069C158.384 184.524 162.566 189.505 167.612 193.569C172.663 197.637 178.251 200.837 184.437 203.135C190.155 205.258 196.295 206.484 202.439 206.93C208.616 207.379 214.931 206.965 221.043 205.833C227.163 204.7 233.187 202.746 238.815 200.127C244.435 197.512 249.744 194.105 254.397 190.095C259.053 186.082 263.153 181.345 266.298 176.167C269.813 170.379 272.137 164.186 273.46 157.666C274.857 150.783 274.831 143.75 273.879 136.858C273.794 136.245 273.697 135.634 273.595 135.023C273.593 134.736 273.562 134.445 273.498 134.151L270.969 122.542Z" fill="#449DD1"/>
<path d="M199.952 86.9526C214.791 84.1377 230.02 87.8455 242.972 99.1175C243.702 99.7523 244.503 100.358 244.891 101.281C245.549 102.846 245.1 104.446 243.733 105.434C242.317 106.457 240.479 106.46 239.14 105.319C237.688 104.082 236.3 102.78 234.761 101.634C212.273 84.8868 178.222 94.0986 167.467 119.845C167.355 120.115 167.25 120.389 167.131 120.656C166.209 122.721 164.197 123.643 162.228 122.906C160.356 122.205 159.54 120.235 160.362 118.213C163.433 110.658 168.083 104.117 174.474 98.7235C181.06 93.1646 188.955 89.3281 199.952 86.9526Z" fill="#F5E5F1"/>
<path d="M200.741 102.818C213.807 100.344 225.199 103.239 234.759 111.955C236.17 113.241 236.451 114.844 235.634 116.264C234.826 117.667 233.12 118.397 231.494 118.048C230.617 117.86 230.006 117.305 229.386 116.745C218.124 106.571 201.282 106.171 189.125 115.827C185.042 119.07 182.125 123.13 180.213 127.843C179.624 129.294 178.516 130.152 176.889 130.238C175.405 130.318 174.257 129.711 173.548 128.455C172.956 127.408 173.072 126.344 173.531 125.251C177.423 115.965 184.129 109.234 193.656 105.079C195.926 104.09 198.289 103.342 200.741 102.818Z" fill="#F5E5F1"/>
<path d="M204.304 118.557C212.123 117.008 218.983 118.699 224.813 123.788C226.707 125.441 226.89 127.6 225.356 129.109C223.787 130.65 221.644 130.557 219.744 128.866C212.026 121.993 199.5 124.413 194.856 133.676C194.68 134.026 194.538 134.39 194.371 134.744C193.443 136.728 191.485 137.609 189.555 136.913C187.641 136.222 186.806 134.286 187.65 132.265C189.999 126.638 194.052 122.525 199.825 119.98C201.26 119.348 202.756 118.888 204.304 118.557Z" fill="#F5E5F1"/>
<path d="M145.077 228.061L147.52 239.278C147.652 239.88 147.805 240.496 147.98 241.126C148.17 241.734 148.43 242.27 148.76 242.733C149.109 243.192 149.565 243.532 150.129 243.753C150.689 243.956 151.416 243.96 152.309 243.765C153.203 243.571 153.853 243.267 154.26 242.853C154.681 242.418 154.954 241.919 155.08 241.356C155.206 240.794 155.22 240.199 155.121 239.571C155.037 238.92 154.929 238.294 154.798 237.692L152.354 226.476L157.689 225.313L160.294 237.269C160.993 240.479 160.765 242.984 159.609 244.783C158.472 246.578 156.38 247.807 153.334 248.471C150.288 249.134 147.866 248.888 146.067 247.733C144.268 246.577 143.018 244.394 142.319 241.184L139.715 229.229L145.077 228.061ZM166.517 244.998L162.024 224.369L167.386 223.201L180.037 233.656L177.29 221.044L182.625 219.882L187.118 240.51L181.783 241.672L169.132 231.217L171.879 243.83L166.517 244.998ZM192.313 217.772L196.807 238.4L191.444 239.568L186.951 218.94L192.313 217.772Z" fill="#449DD1"/>
<path d="M205.489 231.752L206.72 231.483C207.65 231.281 208.448 230.954 209.114 230.503C209.78 230.053 210.304 229.518 210.685 228.9C211.085 228.278 211.337 227.593 211.441 226.844C211.56 226.074 211.528 225.269 211.345 224.43C211.166 223.609 210.862 222.873 210.434 222.221C210.005 221.569 209.48 221.044 208.858 220.644C208.254 220.241 207.556 219.972 206.763 219.84C205.97 219.707 205.117 219.74 204.205 219.938L202.974 220.206L205.489 231.752ZM196.623 216.833L204.557 215.105C205.961 214.799 207.336 214.795 208.681 215.095C210.044 215.39 211.285 215.912 212.404 216.662C213.537 217.39 214.505 218.325 215.308 219.468C216.107 220.593 216.655 221.84 216.953 223.208C217.247 224.558 217.267 225.919 217.012 227.293C216.772 228.644 216.289 229.896 215.566 231.047C214.86 232.194 213.949 233.185 212.832 234.021C211.733 234.852 210.473 235.423 209.05 235.733L201.116 237.461L196.623 216.833ZM223.492 210.98L227.986 231.608L222.623 232.776L218.13 212.148L223.492 210.98ZM239.821 216.937L250.463 214.619C250.702 215.713 250.873 216.717 250.976 217.631C251.079 218.545 251.078 219.414 250.971 220.24C250.822 221.399 250.511 222.47 250.037 223.452C249.56 224.416 248.935 225.278 248.165 226.038C247.409 226.776 246.533 227.406 245.539 227.928C244.545 228.45 243.464 228.839 242.297 229.093C240.692 229.442 239.166 229.498 237.719 229.259C236.291 229.016 234.999 228.524 233.844 227.782C232.685 227.022 231.696 226.034 230.877 224.817C230.054 223.583 229.466 222.154 229.112 220.531C228.763 218.926 228.698 217.402 228.919 215.959C229.154 214.494 229.642 213.184 230.384 212.029C231.144 210.87 232.141 209.879 233.376 209.056C234.61 208.234 236.057 207.641 237.717 207.28C239.869 206.811 241.858 206.865 243.684 207.441C245.51 208.018 247.11 209.179 248.483 210.924L243.854 214.139C243.133 213.111 242.336 212.435 241.463 212.109C240.608 211.78 239.697 211.72 238.73 211.931C237.928 212.105 237.232 212.419 236.643 212.873C236.05 213.307 235.578 213.859 235.227 214.528C234.89 215.174 234.67 215.92 234.567 216.763C234.483 217.603 234.546 218.507 234.756 219.473C234.947 220.349 235.233 221.137 235.615 221.837C236.015 222.533 236.503 223.105 237.078 223.553C237.653 224 238.312 224.306 239.054 224.469C239.793 224.614 240.609 224.589 241.502 224.394C242.031 224.279 242.53 224.113 242.999 223.896C243.463 223.661 243.859 223.375 244.187 223.036C244.528 222.675 244.781 222.257 244.945 221.782C245.109 221.307 245.171 220.758 245.131 220.136L240.727 221.096L239.821 216.937ZM257.236 203.63L261.73 224.258L256.367 225.426L251.874 204.798L257.236 203.63ZM270.359 205.528L273.863 221.615L268.501 222.783L264.997 206.696L260.592 207.656L259.603 203.114L273.775 200.027L274.764 204.569L270.359 205.528ZM289.24 210.242L285.336 203.899L284.425 211.291L289.24 210.242ZM291.55 214.008L283.89 215.677L283.44 219.529L277.722 220.775L281.08 198.436L286.935 197.161L299.28 216.079L293.562 217.324L291.55 214.008ZM302.495 193.771L305.999 209.858L312.429 208.458L313.418 212.999L301.626 215.568L297.133 194.939L302.495 193.771Z" fill="white"/>
<g clip-path="url(#clip3_410_1718)">
<path d="M396.075 219.731C395.934 219.697 395.746 219.61 395.657 219.537C395.567 219.464 395.446 219.314 395.387 219.202C395.328 219.09 395.282 218.931 395.284 218.848C395.287 218.765 395.342 218.443 395.407 218.131C395.471 217.82 395.563 217.215 395.611 216.787C395.66 216.359 395.7 215.719 395.702 215.365C395.703 215.011 395.679 214.417 395.649 214.044C395.614 213.618 395.511 212.987 395.37 212.341C395.231 211.703 395.061 211.078 394.919 210.688C394.794 210.343 394.593 209.843 394.473 209.577C394.352 209.31 394.124 208.855 393.965 208.565C393.806 208.274 393.432 207.691 393.134 207.269C392.732 206.699 392.579 206.439 392.542 206.264C392.511 206.112 392.522 205.953 392.575 205.813C392.62 205.694 392.728 205.518 392.814 205.421C392.926 205.296 393.056 205.219 393.258 205.158C393.414 205.11 393.608 205.073 393.689 205.074C393.769 205.076 393.946 205.138 394.083 205.212C394.263 205.309 394.432 205.479 394.698 205.831C394.899 206.098 395.216 206.559 395.403 206.855C395.589 207.15 395.895 207.693 396.083 208.06C396.27 208.427 396.537 209.005 396.675 209.344C396.813 209.683 397.011 210.233 397.115 210.564C397.219 210.896 397.374 211.491 397.46 211.886C397.546 212.281 397.652 212.886 397.696 213.231C397.739 213.576 397.788 214.158 397.804 214.524C397.819 214.89 397.815 215.555 397.794 216.003C397.773 216.451 397.707 217.142 397.647 217.539C397.588 217.936 397.481 218.479 397.41 218.745C397.323 219.072 397.226 219.291 397.111 219.424C396.978 219.578 396.876 219.639 396.636 219.706C396.4 219.773 396.273 219.779 396.075 219.731ZM392.387 219.086C392.289 219.08 392.073 218.986 391.908 218.877C391.67 218.722 391.588 218.631 391.515 218.444C391.436 218.24 391.435 218.146 391.513 217.779C391.562 217.544 391.645 217.039 391.697 216.657C391.749 216.275 391.79 215.662 391.788 215.294C391.786 214.927 391.74 214.29 391.685 213.878C391.611 213.324 391.53 212.951 391.372 212.442C391.255 212.064 391.037 211.484 390.888 211.154C390.74 210.824 390.494 210.347 390.342 210.093C390.19 209.839 389.93 209.45 389.763 209.227C389.597 209.005 389.428 208.755 389.389 208.671C389.349 208.587 389.325 208.411 389.334 208.278C389.345 208.13 389.417 207.941 389.519 207.789C389.612 207.653 389.768 207.496 389.866 207.44C389.964 207.384 390.156 207.326 390.293 207.311C390.441 207.295 390.643 207.324 390.796 207.384C390.974 207.454 391.127 207.574 391.3 207.782C391.437 207.945 391.7 208.305 391.886 208.581C392.071 208.857 392.372 209.37 392.553 209.72C392.734 210.071 392.984 210.614 393.109 210.927C393.283 211.365 393.446 211.638 393.656 212.607C393.888 213.679 393.883 214.114 393.905 214.725C393.92 215.119 393.912 215.737 393.888 216.099C393.864 216.46 393.797 217.02 393.74 217.343C393.683 217.665 393.597 218.07 393.549 218.242C393.493 218.441 393.391 218.627 393.269 218.754C393.136 218.892 392.999 218.975 392.821 219.026C392.68 219.066 392.485 219.093 392.387 219.086ZM388.325 218.044C388.231 218.043 388.095 218.025 388.023 218.006C387.95 217.987 387.263 217.692 386.496 217.351C385.729 217.009 384.538 216.479 383.85 216.173C383.162 215.867 382.374 215.536 382.1 215.438C381.825 215.34 381.562 215.268 381.514 215.279C381.443 215.294 381.443 215.363 381.51 215.669C381.555 215.874 381.712 216.304 381.859 216.626C382.007 216.948 382.163 217.371 382.205 217.568C382.261 217.825 382.265 217.993 382.219 218.17C382.183 218.305 382.093 218.48 382.018 218.558C381.943 218.637 381.793 218.733 381.684 218.772C381.545 218.821 381.413 218.824 381.244 218.784C381.111 218.751 380.88 218.64 380.73 218.535C380.58 218.43 380.382 218.232 380.29 218.093C380.197 217.955 380.015 217.616 379.885 217.341C379.68 216.905 379.556 216.687 379.343 215.706C379.132 214.73 379.161 214.506 379.165 214.018C379.167 213.707 379.202 213.313 379.242 213.142C379.283 212.97 379.357 212.765 379.408 212.684C379.458 212.604 379.558 212.491 379.63 212.434C379.701 212.377 379.83 212.315 379.917 212.296C380.003 212.277 380.178 212.301 380.306 212.349C380.434 212.397 381.289 212.774 382.205 213.187C383.122 213.6 384.547 214.238 385.373 214.606C386.199 214.974 386.963 215.311 387.071 215.356C387.18 215.4 387.301 215.416 387.34 215.391C387.383 215.364 387.407 215.211 387.399 215.008C387.392 214.823 387.371 214.538 387.353 214.374C387.334 214.211 387.243 213.849 387.15 213.57C387.057 213.29 386.876 212.862 386.748 212.618C386.621 212.374 386.403 212.018 386.265 211.827C386.127 211.635 385.955 211.334 385.883 211.158C385.784 210.918 385.755 210.778 385.767 210.601C385.776 210.471 385.844 210.266 385.919 210.145C386.033 209.961 386.099 209.911 386.328 209.838C386.489 209.788 386.675 209.764 386.779 209.781C386.877 209.797 387.104 209.909 387.285 210.03C387.466 210.151 387.733 210.399 387.879 210.58C388.025 210.761 388.281 211.133 388.449 211.406C388.617 211.679 388.842 212.089 388.949 212.316C389.1 212.64 389.249 212.938 389.419 213.718C389.589 214.499 389.578 214.831 389.574 215.188C389.572 215.44 389.549 215.841 389.524 216.079C389.499 216.318 389.432 216.707 389.376 216.944C389.32 217.181 389.233 217.441 389.182 217.521C389.131 217.602 389.038 217.723 388.974 217.791C388.91 217.858 388.776 217.944 388.676 217.981C388.576 218.018 388.418 218.046 388.325 218.044Z" fill="white"/>
</g>
</g>
<defs>
<linearGradient id="paint0_linear_410_1718" x1="393.15" y1="118.499" x2="32.3695" y2="199.777" gradientUnits="userSpaceOnUse">
<stop stop-color="#3900A6"/>
<stop offset="1" stop-color="#342771"/>
</linearGradient>
<linearGradient id="paint1_linear_410_1718" x1="32.3142" y1="199.532" x2="393.094" y2="118.254" gradientUnits="userSpaceOnUse">
<stop stop-color="#000066"/>
<stop offset="1" stop-opacity="0"/>
</linearGradient>
<clipPath id="clip0_410_1718">
<rect x="464.054" y="279.276" width="381" height="242" rx="16" transform="rotate(148.793 464.054 279.276)" fill="white"/>
</clipPath>
<clipPath id="clip1_410_1718">
<rect width="20.9725" height="19.9451" fill="white" transform="translate(407.51 266.891) rotate(-31.2068)"/>
</clipPath>
<clipPath id="clip2_410_1718">
<rect x="0.84375" y="81.3325" width="381" height="242" rx="16" transform="rotate(-12.2884 0.84375 81.3325)" fill="white"/>
</clipPath>
<clipPath id="clip3_410_1718">
<rect width="20.9725" height="19.9451" fill="white" transform="translate(376.046 206.341) rotate(-12.2884)"/>
</clipPath>
</defs>
</svg>
