<svg width="350" height="712" viewBox="0 0 350 712" fill="none" xmlns="http://www.w3.org/2000/svg">
<g clip-path="url(#clip0_543_1847)">
<path d="M347.518 199.161H348.759C349.444 199.161 350 199.718 350 200.406V275.091C350 275.778 349.444 276.336 348.759 276.336H347.518V199.161Z" fill="#213744"/>
<path d="M2.48242 292.932L1.24128 292.932C0.555822 292.932 0.000148118 292.375 0.000148178 291.688L0.000152228 245.217C0.000152288 244.529 0.555827 243.972 1.24129 243.972L2.48243 243.972L2.48242 292.932Z" fill="#213744"/>
<path d="M2.48242 230.695L1.24128 230.695C0.555822 230.695 0.000148118 230.137 0.000148178 229.45L0.000152228 182.979C0.000152288 182.292 0.555827 181.734 1.24129 181.734L2.48243 181.734L2.48242 230.695Z" fill="#213744"/>
<path d="M2.48242 160.159L1.24129 160.159C0.555826 160.159 0.000150306 159.601 0.000150366 158.914L0.000152174 138.168C0.000152234 137.48 0.555827 136.923 1.24129 136.923L2.48242 136.923L2.48242 160.159Z" fill="#213744"/>
<path d="M2.48242 75.5152C2.48242 55.4359 2.48242 45.3962 5.11473 37.2712C10.4348 20.85 23.2718 7.97555 39.6452 2.63998C47.7466 0 57.757 0 77.7779 0H272.222C292.243 0 302.254 0 310.355 2.63998C326.729 7.97555 339.566 20.85 344.886 37.2712C347.518 45.3962 347.518 55.4359 347.518 75.5152V636.485C347.518 656.564 347.518 666.604 344.886 674.729C339.566 691.15 326.729 704.024 310.355 709.36C302.254 712 292.243 712 272.222 712H77.7779C57.757 712 47.7466 712 39.6452 709.36C23.2718 704.024 10.4348 691.15 5.11473 674.729C2.48242 666.604 2.48242 656.564 2.48242 636.485V75.5152Z" fill="#213744"/>
<path fill-rule="evenodd" clip-rule="evenodd" d="M272.554 1.65967H77.4477C57.6704 1.65967 47.978 1.66991 40.1573 4.21842C24.2877 9.38982 11.8456 21.8681 6.68928 37.7841C4.14818 45.6276 4.13797 55.3483 4.13797 75.1832V636.817C4.13797 656.652 4.14818 666.372 6.68928 674.216C11.8456 690.132 24.2877 702.61 40.1573 707.782C47.978 710.33 57.6704 710.34 77.4477 710.34H272.554C292.331 710.34 302.024 710.33 309.844 707.782C325.714 702.61 338.156 690.132 343.312 674.216C345.854 666.372 345.864 656.652 345.864 636.817V75.1832C345.864 55.3483 345.854 45.6276 343.312 37.7841C338.156 21.8681 325.714 9.38982 309.844 4.21842C302.024 1.66991 292.331 1.65967 272.554 1.65967ZM5.90235 37.5276C3.31055 45.5277 3.31055 55.4128 3.31055 75.1832V636.817C3.31055 656.587 3.31055 666.472 5.90235 674.472C11.1406 690.641 23.7801 703.317 39.9016 708.571C47.8784 711.17 57.7348 711.17 77.4477 711.17H272.554C292.267 711.17 302.123 711.17 310.1 708.571C326.222 703.317 338.861 690.641 344.099 674.472C346.691 666.472 346.691 656.587 346.691 636.817V75.1832C346.691 55.4128 346.691 45.5277 344.099 37.5276C338.861 21.3591 326.222 8.68269 310.1 3.4292C302.123 0.829834 292.267 0.829834 272.554 0.829834H77.4477C57.7348 0.829834 47.8784 0.829834 39.9016 3.4292C23.7801 8.68269 11.1406 21.3591 5.90235 37.5276Z" fill="#8EADC1"/>
<path d="M6.61914 73.8555C6.61914 55.3208 6.61914 46.0534 9.04896 38.5534C13.9598 23.3953 25.8093 11.5112 40.9233 6.58609C48.4015 4.14919 57.6419 4.14919 76.1227 4.14919H273.877C292.358 4.14919 301.598 4.14919 309.076 6.58609C324.19 11.5112 336.04 23.3953 340.951 38.5534C343.38 46.0534 343.38 55.3208 343.38 73.8555V638.145C343.38 656.679 343.38 665.947 340.951 673.447C336.04 688.605 324.19 700.489 309.076 705.414C301.598 707.851 292.358 707.851 273.877 707.851H76.1227C57.6419 707.851 48.4015 707.851 40.9233 705.414C25.8093 700.489 13.9598 688.605 9.04896 673.447C6.61914 665.947 6.61914 656.679 6.61914 638.145V73.8555Z" fill="#121515"/>
<path d="M273.877 0H278.841V4.14918H273.877V0Z" fill="#36454C"/>
<path d="M343.381 71.366H347.518V76.345H343.381V71.366Z" fill="#36454C"/>
<path d="M2.48242 71.366H6.61954V76.345H2.48242V71.366Z" fill="#36454C"/>
<path d="M2.48242 635.655H6.61954V640.634H2.48242V635.655Z" fill="#36454C"/>
<path d="M343.381 635.655H347.518V640.634H343.381V635.655Z" fill="#36454C"/>
<path d="M71.1582 707.851H76.1227V712H71.1582V707.851Z" fill="#36454C"/>
<mask id="mask0_543_1847" style="mask-type:alpha" maskUnits="userSpaceOnUse" x="18" y="15" width="314" height="682">
<path d="M98.4632 24.3142C98.4632 32.8846 105.576 39.8322 114.184 39.8322H235.815C244.423 39.8322 251.536 32.8846 251.536 24.3142V20.0821C251.536 17.7447 253.326 15.7669 255.674 15.7669H274.63C291.655 15.7669 300.168 15.7669 306.939 18.3941C317.152 22.3567 325.226 30.4541 329.177 40.6968C331.797 47.4878 331.797 56.0253 331.797 73.1003V638.9C331.797 655.975 331.797 664.512 329.177 671.303C325.226 681.546 317.152 689.643 306.939 693.606C300.168 696.233 291.655 696.233 274.63 696.233H75.3698C58.3444 696.233 49.8317 696.233 43.0605 693.606C32.8476 689.643 24.7738 681.546 20.8227 671.303C18.2031 664.512 18.2031 655.975 18.2031 638.9V73.1003C18.2031 56.0253 18.2031 47.4878 20.8227 40.6968C24.7738 30.4541 32.8476 22.3567 43.0605 18.3941C49.8317 15.7669 58.3444 15.7669 75.3698 15.7669H94.3261C96.6737 15.7669 98.4632 17.7447 98.4632 20.0821V24.3142Z" fill="white"/>
</mask>
<g mask="url(#mask0_543_1847)">
<rect x="18.2031" y="15.7669" width="313.593" height="680.466" fill="white"/>
</g>
<path fill-rule="evenodd" clip-rule="evenodd" d="M206.856 30.704C210.055 30.704 212.648 28.1032 212.648 24.8951C212.648 21.687 210.055 19.0862 206.856 19.0862C203.658 19.0862 201.064 21.687 201.064 24.8951C201.064 28.1032 203.658 30.704 206.856 30.704Z" fill="#262C2D"/>
<path fill-rule="evenodd" clip-rule="evenodd" d="M206.856 28.5256C208.856 28.5256 210.476 26.9002 210.476 24.8951C210.476 22.89 208.856 21.2646 206.856 21.2646C204.857 21.2646 203.236 22.89 203.236 24.8951C203.236 26.9002 204.857 28.5256 206.856 28.5256Z" fill="#121515"/>
<path opacity="0.4" fill-rule="evenodd" clip-rule="evenodd" d="M206.857 24.169C207.257 24.169 207.581 23.8439 207.581 23.4429C207.581 23.0419 207.257 22.7168 206.857 22.7168C206.457 22.7168 206.133 23.0419 206.133 23.4429C206.133 23.8439 206.457 24.169 206.857 24.169Z" fill="#636F73"/>
<path fill-rule="evenodd" clip-rule="evenodd" d="M157.211 24.8951C157.211 23.5202 158.326 22.4056 159.7 22.4056H190.301C191.676 22.4056 192.79 23.5202 192.79 24.8951V24.8951C192.79 26.27 191.676 27.3846 190.301 27.3846H159.7C158.326 27.3846 157.211 26.27 157.211 24.8951V24.8951Z" fill="#262C2D"/>
</g>
<path d="M157 297.5C157 308.727 147.571 317 136 317C124.429 317 115 308.727 115 297.5C115 286.194 124.429 278 136 278C147.571 278 157 286.194 157 297.5ZM147.807 297.5C147.807 290.484 142.342 285.684 136 285.684C129.658 285.684 124.193 290.484 124.193 297.5C124.193 304.445 129.658 309.316 136 309.316C142.342 309.316 147.807 304.437 147.807 297.5Z" fill="#EA4335"/>
<path d="M201 297.5C201 308.727 191.796 317 180.5 317C169.204 317 160 308.727 160 297.5C160 286.203 169.204 278 180.5 278C191.796 278 201 286.194 201 297.5ZM192.026 297.5C192.026 290.484 186.691 285.684 180.5 285.684C174.309 285.684 168.974 290.484 168.974 297.5C168.974 304.445 174.309 309.316 180.5 309.316C186.691 309.316 192.026 304.437 192.026 297.5Z" fill="#FBBC05"/>
<path d="M243 279.189V314.527C243 329.063 234.14 335 223.665 335C213.805 335 207.871 328.619 205.633 323.401L213.411 320.269C214.796 323.472 218.189 327.253 223.656 327.253C230.361 327.253 234.516 323.25 234.516 315.716V312.885H234.204C232.204 315.272 228.352 317.358 223.491 317.358C213.319 317.358 204 308.785 204 297.754C204 286.644 213.319 278 223.491 278C228.343 278 232.195 280.085 234.204 282.402H234.516V279.198H243V279.189ZM235.149 297.754C235.149 290.823 230.37 285.756 224.289 285.756C218.125 285.756 212.961 290.823 212.961 297.754C212.961 304.614 218.125 309.61 224.289 309.61C230.37 309.61 235.149 304.614 235.149 297.754Z" fill="#4285F4"/>
<path d="M257 259V316H249V259H257Z" fill="#34A853"/>
<path d="M291.588 303.927L298.61 308.358C296.343 311.532 290.882 317 281.444 317C269.741 317 261 308.437 261 297.5C261 285.904 269.815 278 280.432 278C291.123 278 296.353 286.053 298.062 290.405L299 292.621L271.459 303.417C273.568 307.329 276.846 309.325 281.444 309.325C286.052 309.325 289.247 307.18 291.588 303.927ZM269.973 296.911L288.383 289.675C287.371 287.24 284.324 285.543 280.738 285.543C276.141 285.543 269.741 289.385 269.973 296.911Z" fill="#EA4335"/>
<path d="M82.2703 292.662V284.465H111.566C111.852 285.894 112 287.584 112 289.413C112 295.563 110.217 303.167 104.471 308.585C98.8812 314.073 91.7398 317 82.2795 317C64.7447 317 50 303.533 50 287C50 270.467 64.7447 257 82.2795 257C91.98 257 98.8905 260.589 104.083 265.267L97.9481 271.051C94.225 267.758 89.1807 265.197 82.2703 265.197C69.4657 265.197 59.451 274.927 59.451 287C59.451 299.073 69.4657 308.803 82.2703 308.803C90.5758 308.803 95.3059 305.659 98.3362 302.801C100.794 300.484 102.41 297.174 103.048 292.653L82.2703 292.662Z" fill="#4285F4"/>
<defs>
<clipPath id="clip0_543_1847">
<rect width="350" height="712" fill="white"/>
</clipPath>
</defs>
</svg>
