<svg width="350" height="712" viewBox="0 0 350 712" fill="none" xmlns="http://www.w3.org/2000/svg">
<g clip-path="url(#clip0_530_1814)">
<path d="M347.518 199.161H348.759C349.444 199.161 350 199.718 350 200.406V275.091C350 275.778 349.444 276.336 348.759 276.336H347.518V199.161Z" fill="#213744"/>
<path d="M2.48242 292.932L1.24128 292.932C0.555822 292.932 0.000148118 292.375 0.000148178 291.688L0.000152228 245.217C0.000152288 244.529 0.555827 243.972 1.24129 243.972L2.48243 243.972L2.48242 292.932Z" fill="#213744"/>
<path d="M2.48242 230.695L1.24128 230.695C0.555822 230.695 0.000148118 230.137 0.000148178 229.45L0.000152228 182.979C0.000152288 182.292 0.555827 181.734 1.24129 181.734L2.48243 181.734L2.48242 230.695Z" fill="#213744"/>
<path d="M2.48242 160.159L1.24129 160.159C0.555826 160.159 0.000150306 159.601 0.000150366 158.914L0.000152174 138.168C0.000152234 137.48 0.555827 136.923 1.24129 136.923L2.48242 136.923L2.48242 160.159Z" fill="#213744"/>
<path d="M2.48242 75.5152C2.48242 55.4359 2.48242 45.3962 5.11473 37.2712C10.4348 20.85 23.2718 7.97555 39.6452 2.63998C47.7466 0 57.757 0 77.7779 0H272.222C292.243 0 302.254 0 310.355 2.63998C326.729 7.97555 339.566 20.85 344.886 37.2712C347.518 45.3962 347.518 55.4359 347.518 75.5152V636.485C347.518 656.564 347.518 666.604 344.886 674.729C339.566 691.15 326.729 704.024 310.355 709.36C302.254 712 292.243 712 272.222 712H77.7779C57.757 712 47.7466 712 39.6452 709.36C23.2718 704.024 10.4348 691.15 5.11473 674.729C2.48242 666.604 2.48242 656.564 2.48242 636.485V75.5152Z" fill="#213744"/>
<path fill-rule="evenodd" clip-rule="evenodd" d="M272.554 1.65967H77.4477C57.6704 1.65967 47.978 1.66991 40.1573 4.21842C24.2877 9.38982 11.8456 21.8681 6.68928 37.7841C4.14818 45.6276 4.13797 55.3483 4.13797 75.1832V636.817C4.13797 656.652 4.14818 666.372 6.68928 674.216C11.8456 690.132 24.2877 702.61 40.1573 707.782C47.978 710.33 57.6704 710.34 77.4477 710.34H272.554C292.331 710.34 302.024 710.33 309.844 707.782C325.714 702.61 338.156 690.132 343.312 674.216C345.854 666.372 345.864 656.652 345.864 636.817V75.1832C345.864 55.3483 345.854 45.6276 343.312 37.7841C338.156 21.8681 325.714 9.38982 309.844 4.21842C302.024 1.66991 292.331 1.65967 272.554 1.65967ZM5.90235 37.5276C3.31055 45.5277 3.31055 55.4128 3.31055 75.1832V636.817C3.31055 656.587 3.31055 666.472 5.90235 674.472C11.1406 690.641 23.7801 703.317 39.9016 708.571C47.8784 711.17 57.7348 711.17 77.4477 711.17H272.554C292.267 711.17 302.123 711.17 310.1 708.571C326.222 703.317 338.861 690.641 344.099 674.472C346.691 666.472 346.691 656.587 346.691 636.817V75.1832C346.691 55.4128 346.691 45.5277 344.099 37.5276C338.861 21.3591 326.222 8.68269 310.1 3.4292C302.123 0.829834 292.267 0.829834 272.554 0.829834H77.4477C57.7348 0.829834 47.8784 0.829834 39.9016 3.4292C23.7801 8.68269 11.1406 21.3591 5.90235 37.5276Z" fill="#8EADC1"/>
<path d="M6.61914 73.8555C6.61914 55.3207 6.61914 46.0534 9.04896 38.5534C13.9598 23.3953 25.8093 11.5112 40.9233 6.58608C48.4015 4.14917 57.6419 4.14917 76.1227 4.14917H273.877C292.358 4.14917 301.598 4.14917 309.076 6.58608C324.19 11.5112 336.04 23.3953 340.951 38.5534C343.38 46.0534 343.38 55.3207 343.38 73.8555V638.145C343.38 656.679 343.38 665.947 340.951 673.447C336.04 688.605 324.19 700.489 309.076 705.414C301.598 707.851 292.358 707.851 273.877 707.851H76.1227C57.6419 707.851 48.4015 707.851 40.9233 705.414C25.8093 700.489 13.9598 688.605 9.04896 673.447C6.61914 665.947 6.61914 656.679 6.61914 638.145V73.8555Z" fill="#121515"/>
<path d="M273.877 0H278.841V4.14918H273.877V0Z" fill="#36454C"/>
<path d="M343.381 71.366H347.518V76.345H343.381V71.366Z" fill="#36454C"/>
<path d="M2.48242 71.366H6.61954V76.345H2.48242V71.366Z" fill="#36454C"/>
<path d="M2.48242 635.655H6.61954V640.634H2.48242V635.655Z" fill="#36454C"/>
<path d="M343.381 635.655H347.518V640.634H343.381V635.655Z" fill="#36454C"/>
<path d="M71.1582 707.851H76.1227V712H71.1582V707.851Z" fill="#36454C"/>
<mask id="mask0_530_1814" style="mask-type:alpha" maskUnits="userSpaceOnUse" x="18" y="15" width="314" height="682">
<path d="M98.4632 24.3142C98.4632 32.8845 105.576 39.8321 114.184 39.8321H235.815C244.423 39.8321 251.536 32.8845 251.536 24.3142V20.082C251.536 17.7446 253.326 15.7668 255.674 15.7668H274.63C291.655 15.7668 300.168 15.7668 306.939 18.3941C317.152 22.3567 325.226 30.454 329.177 40.6967C331.797 47.4877 331.797 56.0252 331.797 73.1003V638.9C331.797 655.975 331.797 664.512 329.177 671.303C325.226 681.546 317.152 689.643 306.939 693.606C300.168 696.233 291.655 696.233 274.63 696.233H75.3698C58.3444 696.233 49.8317 696.233 43.0605 693.606C32.8476 689.643 24.7738 681.546 20.8227 671.303C18.2031 664.512 18.2031 655.975 18.2031 638.9V73.1003C18.2031 56.0252 18.2031 47.4877 20.8227 40.6967C24.7738 30.454 32.8476 22.3567 43.0605 18.3941C49.8317 15.7668 58.3444 15.7668 75.3698 15.7668H94.3261C96.6737 15.7668 98.4632 17.7446 98.4632 20.082V24.3142Z" fill="white"/>
</mask>
<g mask="url(#mask0_530_1814)">
<rect x="18.2031" y="15.7668" width="313.593" height="680.466" fill="white"/>
</g>
<path fill-rule="evenodd" clip-rule="evenodd" d="M206.856 30.704C210.055 30.704 212.648 28.1033 212.648 24.8952C212.648 21.687 210.055 19.0863 206.856 19.0863C203.658 19.0863 201.064 21.687 201.064 24.8952C201.064 28.1033 203.658 30.704 206.856 30.704Z" fill="#262C2D"/>
<path fill-rule="evenodd" clip-rule="evenodd" d="M206.856 28.5257C208.856 28.5257 210.476 26.9003 210.476 24.8952C210.476 22.8901 208.856 21.2646 206.856 21.2646C204.857 21.2646 203.236 22.8901 203.236 24.8952C203.236 26.9003 204.857 28.5257 206.856 28.5257Z" fill="#121515"/>
<path opacity="0.4" fill-rule="evenodd" clip-rule="evenodd" d="M206.857 24.169C207.257 24.169 207.581 23.8439 207.581 23.4429C207.581 23.0419 207.257 22.7168 206.857 22.7168C206.457 22.7168 206.133 23.0419 206.133 23.4429C206.133 23.8439 206.457 24.169 206.857 24.169Z" fill="#636F73"/>
<path fill-rule="evenodd" clip-rule="evenodd" d="M157.211 24.8952C157.211 23.5202 158.326 22.4056 159.7 22.4056H190.301C191.676 22.4056 192.79 23.5202 192.79 24.8952V24.8952C192.79 26.2701 191.676 27.3847 190.301 27.3847H159.7C158.326 27.3847 157.211 26.2701 157.211 24.8952V24.8952Z" fill="#262C2D"/>
</g>
<path d="M27 99C27 93.4772 31.4772 89 37 89H314C319.523 89 324 93.4772 324 99V665C324 670.523 319.523 675 314 675H37C31.4771 675 27 670.523 27 665V99Z" fill="url(#paint0_linear_530_1814)"/>
<path d="M221.268 142.488C221.673 142.952 222.266 143.256 222.937 143.341C223.608 143.424 224.28 143.282 224.826 142.934C225.882 142.267 226.142 141.032 225.476 140.088L245.033 127.717L256.974 129.22L257.071 129.233L314.868 94H314.023L256.949 128.794L244.905 127.278L225.193 139.745C224.698 139.281 224.006 139.035 223.304 139.035C222.781 139.035 222.248 139.172 221.796 139.457C220.668 140.17 220.433 141.528 221.268 142.488ZM222.084 139.795C222.993 139.22 224.28 139.381 224.956 140.155C225.627 140.932 225.443 142.025 224.529 142.602C224.172 142.826 223.751 142.943 223.315 142.943C223.213 142.943 223.111 142.939 223.011 142.926C222.467 142.86 221.988 142.613 221.664 142.239C220.987 141.465 221.179 140.369 222.084 139.795ZM206.558 125.604C206.964 126.069 207.558 126.374 208.229 126.456C208.901 126.539 209.566 126.397 210.115 126.052C211.169 125.384 211.427 124.147 210.766 123.203L230.323 110.832L242.264 112.337L242.361 112.348L272.463 94H271.621L242.238 111.911L230.19 110.396L210.482 122.866C209.988 122.399 209.296 122.153 208.597 122.153C208.066 122.153 207.538 122.29 207.081 122.577C205.961 123.288 205.723 124.65 206.558 125.604ZM207.375 122.912C208.283 122.335 209.572 122.499 210.248 123.271C210.919 124.047 210.727 125.14 209.822 125.717C209.462 125.943 209.041 126.065 208.6 126.065C208.502 126.065 208.4 126.056 208.296 126.043C207.757 125.975 207.277 125.73 206.953 125.354C206.277 124.582 206.468 123.488 207.375 122.912ZM258.37 160.454C259.202 161.413 260.8 161.613 261.923 160.9C262.466 160.558 262.824 160.052 262.923 159.48C263.02 158.908 262.854 158.336 262.446 157.873C262.137 157.515 261.716 157.264 261.256 157.125L262.604 152.537L319.002 118.039V117.526L262.247 152.241L262.173 152.287L260.782 157.025C260.659 157.01 260.532 157.001 260.404 157.001C259.878 157.001 259.345 157.138 258.893 157.427C257.767 158.136 257.533 159.497 258.37 160.454ZM259.184 157.76C260.095 157.184 261.379 157.347 262.055 158.119C262.382 158.495 262.515 158.958 262.438 159.417C262.359 159.883 262.07 160.287 261.629 160.565C261.267 160.8 260.835 160.909 260.409 160.909C259.781 160.909 259.164 160.668 258.763 160.207C258.087 159.43 258.276 158.336 259.184 157.76ZM286.609 188.527C287.446 189.481 289.039 189.684 290.166 188.972C290.71 188.627 291.062 188.12 291.165 187.548C291.264 186.976 291.098 186.409 290.69 185.941C290.386 185.591 289.97 185.337 289.5 185.195L290.848 180.605L319.002 163.383V162.87L290.486 180.314L290.416 180.355L289.023 185.093C288.898 185.078 288.771 185.07 288.648 185.07C288.102 185.07 287.578 185.215 287.137 185.495C286.012 186.209 285.775 187.566 286.609 188.527ZM287.428 185.828C287.867 185.554 288.408 185.437 288.952 185.504C289.49 185.574 289.97 185.817 290.299 186.191C290.621 186.568 290.759 187.026 290.679 187.492C290.597 187.95 290.312 188.359 289.873 188.636C289.506 188.868 289.079 188.981 288.653 188.981C288.025 188.981 287.408 188.736 287.004 188.277C286.328 187.503 286.519 186.404 287.428 185.828ZM251.377 177.041C251.78 177.504 252.373 177.804 253.044 177.891C253.71 177.976 254.386 177.835 254.93 177.487C255.474 177.141 255.831 176.639 255.93 176.067C256.017 175.563 255.885 175.067 255.581 174.64L274.838 162.457L276.936 151.745L319.002 126.102V125.589L276.569 151.456L276.49 151.506L274.387 162.225L255.297 174.297C254.802 173.834 254.111 173.584 253.411 173.584C252.886 173.584 252.357 173.725 251.903 174.01C251.357 174.356 251 174.863 250.903 175.434C250.803 176.006 250.971 176.578 251.377 177.041ZM251.388 175.491C251.467 175.032 251.755 174.623 252.191 174.347C253.103 173.771 254.386 173.934 255.063 174.708C255.392 175.082 255.522 175.543 255.445 176.006C255.366 176.465 255.078 176.874 254.636 177.154C254.279 177.378 253.858 177.496 253.421 177.496C253.317 177.496 253.215 177.491 253.118 177.478C252.574 177.409 252.097 177.165 251.77 176.791C251.441 176.415 251.309 175.956 251.388 175.491ZM234.967 155.749C235.804 156.707 237.397 156.906 238.52 156.195C239.579 155.527 239.837 154.292 239.176 153.352L319.002 104.32V103.802L238.882 153.013C238.49 152.641 237.971 152.392 237.379 152.318C237.257 152.3 237.129 152.291 237.001 152.291C236.463 152.291 235.937 152.441 235.491 152.722C234.37 153.431 234.136 154.787 234.967 155.749ZM235.787 153.055C236.226 152.776 236.767 152.663 237.31 152.731C237.849 152.796 238.329 153.043 238.653 153.415C239.329 154.192 239.138 155.286 238.231 155.862C237.864 156.094 237.438 156.203 237.012 156.203C236.384 156.203 235.761 155.962 235.361 155.499C234.689 154.725 234.878 153.626 235.787 153.055ZM251.176 152.2C251.579 152.663 252.171 152.968 252.842 153.05C253.514 153.135 254.185 152.994 254.728 152.646C255.272 152.304 255.632 151.798 255.728 151.226C255.818 150.725 255.685 150.23 255.387 149.799L319.002 110.85V110.341L255.101 149.46C254.606 148.993 253.911 148.743 253.21 148.743C252.686 148.743 252.156 148.884 251.701 149.168C251.158 149.515 250.8 150.021 250.701 150.593C250.604 151.165 250.77 151.737 251.176 152.2ZM251.186 150.654C251.265 150.19 251.554 149.782 251.995 149.506C252.901 148.93 254.185 149.093 254.861 149.867C255.19 150.241 255.323 150.702 255.244 151.165C255.165 151.628 254.876 152.033 254.435 152.313C254.077 152.537 253.656 152.654 253.22 152.654C253.118 152.654 253.013 152.65 252.916 152.637C252.373 152.572 251.898 152.324 251.569 151.95C251.239 151.578 251.107 151.115 251.186 150.654Z" fill="#720455"/>
<path d="M255.474 122.677C256.308 123.638 257.906 123.838 259.026 123.125C260.085 122.457 260.346 121.22 259.682 120.281L302.907 94H302.059L259.399 119.94C258.904 119.472 258.212 119.226 257.513 119.226C256.985 119.226 256.454 119.363 255.999 119.65C254.877 120.361 254.642 121.718 255.474 122.677ZM256.293 119.985C257.199 119.409 258.488 119.572 259.159 120.344C259.836 121.12 259.644 122.214 258.738 122.79C258.37 123.025 257.944 123.134 257.518 123.134C256.891 123.134 256.268 122.89 255.867 122.427C255.196 121.655 255.387 120.557 256.293 119.985ZM238.712 103.439C239.544 104.401 241.141 104.601 242.264 103.888C242.808 103.544 243.165 103.039 243.265 102.467C243.352 101.965 243.219 101.469 242.92 101.043L254.504 94H253.652L242.627 100.706C242.234 100.334 241.716 100.082 241.124 100.008C240.996 99.9908 240.873 99.9819 240.746 99.9819C240.205 99.9819 239.682 100.13 239.235 100.413C238.691 100.756 238.339 101.261 238.237 101.832C238.138 102.405 238.306 102.976 238.712 103.439ZM238.722 101.896C238.804 101.433 239.09 101.021 239.531 100.747C239.97 100.467 240.511 100.349 241.05 100.421C241.593 100.489 242.073 100.735 242.397 101.106C242.724 101.482 242.862 101.941 242.777 102.405C242.701 102.868 242.41 103.272 241.976 103.552C241.608 103.783 241.177 103.894 240.756 103.894C240.128 103.894 239.505 103.653 239.102 103.189C238.781 102.818 238.643 102.354 238.722 101.896ZM227.539 129.996C227.947 130.459 228.539 130.762 229.21 130.845C229.877 130.931 230.548 130.79 231.091 130.444C232.15 129.775 232.411 128.539 231.75 127.596L286.584 94H285.742L231.454 127.263C231.063 126.887 230.543 126.637 229.95 126.565C229.823 126.548 229.7 126.539 229.573 126.539C229.034 126.539 228.508 126.687 228.065 126.965C227.521 127.313 227.167 127.818 227.064 128.389C226.967 128.961 227.133 129.529 227.539 129.996ZM227.549 128.448C227.633 127.99 227.917 127.58 228.358 127.304C228.8 127.024 229.338 126.906 229.882 126.978C230.42 127.045 230.9 127.287 231.224 127.663C231.901 128.435 231.709 129.533 230.803 130.109C230.446 130.335 230.02 130.453 229.583 130.453C229.486 130.453 229.381 130.449 229.279 130.436C228.741 130.364 228.261 130.123 227.932 129.746C227.608 129.37 227.47 128.911 227.549 128.448ZM284.542 156.035C284.948 156.499 285.535 156.805 286.206 156.888C286.877 156.971 287.551 156.829 288.094 156.484C288.643 156.14 288.995 155.636 289.093 155.064C289.182 154.564 289.054 154.065 288.75 153.64L319.003 135.246V134.728L288.467 153.298C287.972 152.831 287.28 152.582 286.579 152.582C286.05 152.582 285.522 152.722 285.066 153.009C284.522 153.352 284.17 153.857 284.065 154.429C283.968 155.001 284.134 155.572 284.542 156.035ZM284.55 154.492C284.634 154.029 284.917 153.624 285.359 153.343C286.265 152.767 287.553 152.93 288.225 153.702C288.554 154.079 288.692 154.542 288.608 155.001C288.531 155.464 288.24 155.868 287.804 156.149C287.446 156.375 287.02 156.495 286.584 156.495C286.482 156.495 286.385 156.488 286.28 156.475C285.742 156.407 285.262 156.162 284.933 155.786C284.611 155.414 284.473 154.951 284.55 154.492ZM302.876 186.44C303.28 186.903 303.872 187.203 304.543 187.285C305.214 187.374 305.885 187.229 306.429 186.885C306.972 186.539 307.332 186.033 307.429 185.461C307.519 184.96 307.386 184.467 307.087 184.039L319.003 176.791V176.28L306.801 183.7C306.306 183.232 305.617 182.982 304.911 182.982C304.387 182.982 303.856 183.119 303.402 183.408C302.858 183.754 302.498 184.258 302.402 184.832C302.304 185.404 302.47 185.972 302.876 186.44ZM302.887 184.889C302.966 184.43 303.254 184.021 303.695 183.741C304.602 183.169 305.891 183.332 306.562 184.104C306.891 184.48 307.023 184.939 306.944 185.404C306.865 185.863 306.577 186.272 306.14 186.548C305.783 186.776 305.357 186.894 304.92 186.894C304.818 186.894 304.719 186.889 304.617 186.872C304.073 186.807 303.599 186.563 303.269 186.189C302.94 185.813 302.807 185.354 302.887 184.889ZM268.24 176.702C268.64 177.165 269.235 177.472 269.906 177.555C270.577 177.637 271.248 177.496 271.792 177.15C272.335 176.806 272.693 176.302 272.79 175.73C272.879 175.23 272.746 174.732 272.448 174.306L319.003 145.783V145.266L272.165 173.964C271.67 173.497 270.978 173.249 270.273 173.249C269.748 173.249 269.22 173.388 268.763 173.675C268.219 174.019 267.862 174.523 267.765 175.095C267.665 175.667 267.831 176.239 268.24 176.702ZM268.249 175.158C268.327 174.695 268.617 174.29 269.056 174.01C269.964 173.434 271.253 173.597 271.924 174.369C272.251 174.745 272.389 175.208 272.305 175.667C272.228 176.13 271.937 176.535 271.504 176.815C271.144 177.041 270.718 177.161 270.281 177.161C270.179 177.161 270.082 177.154 269.977 177.141C269.434 177.074 268.959 176.828 268.63 176.456C268.303 176.08 268.17 175.617 268.249 175.158ZM265.55 187.561C266.387 188.523 267.979 188.722 269.107 188.014C270.158 187.344 270.419 186.109 269.758 185.165L319.003 154.929V154.416L269.474 184.824C268.98 184.356 268.288 184.108 267.586 184.108C267.058 184.108 266.53 184.247 266.073 184.535C264.95 185.245 264.715 186.607 265.55 187.561ZM266.367 184.869C267.275 184.297 268.564 184.461 269.235 185.233C269.911 186.004 269.719 187.102 268.811 187.674C267.905 188.25 266.616 188.088 265.94 187.316C265.269 186.544 265.46 185.445 266.367 184.869ZM293.043 201.256C293.88 202.215 295.473 202.418 296.601 201.706C297.655 201.039 297.913 199.803 297.252 198.86L319.003 185.504V184.989L296.968 198.516C296.473 198.049 295.782 197.803 295.082 197.803C294.551 197.803 294.023 197.94 293.566 198.229C292.446 198.938 292.208 200.299 293.043 201.256ZM293.86 198.562C294.768 197.99 296.057 198.153 296.728 198.925C297.404 199.699 297.213 200.798 296.307 201.369C295.399 201.945 294.11 201.782 293.433 201.01C292.762 200.236 292.954 199.138 293.86 198.562ZM240.57 140.025C241.402 140.986 242.999 141.186 244.122 140.473C244.666 140.129 245.023 139.625 245.12 139.053V139.049L250.839 139.286L319.003 97.5989V97.0812L250.691 138.86L245.146 138.631C245.12 138.205 244.954 137.796 244.646 137.446C244.151 136.872 243.382 136.572 242.606 136.572C242.078 136.572 241.55 136.711 241.093 136.998C239.97 137.707 239.73 139.064 240.57 140.025ZM241.386 137.333C242.292 136.757 243.582 136.92 244.252 137.692C244.582 138.068 244.72 138.531 244.635 138.99C244.556 139.453 244.268 139.858 243.831 140.138C243.464 140.371 243.033 140.479 242.611 140.479C241.983 140.479 241.363 140.238 240.96 139.775C240.289 139.003 240.476 137.905 241.386 137.333Z" fill="#720455"/>
<path d="M221.268 142.488C221.674 142.952 222.267 143.256 222.938 143.341C223.609 143.424 224.28 143.282 224.826 142.934C225.883 142.267 226.143 141.032 225.477 140.088L245.033 127.717L256.975 129.22L257.072 129.233L314.869 94H314.024L256.95 128.794L244.906 127.278L225.194 139.745C224.698 139.281 224.007 139.035 223.305 139.035C222.782 139.035 222.248 139.172 221.797 139.457C220.669 140.17 220.434 141.528 221.268 142.488ZM222.085 139.795C222.994 139.22 224.28 139.381 224.956 140.155C225.627 140.932 225.444 142.025 224.53 142.602C224.173 142.826 223.752 142.943 223.315 142.943C223.213 142.943 223.111 142.939 223.012 142.926C222.468 142.86 221.988 142.613 221.664 142.239C220.988 141.465 221.18 140.369 222.085 139.795ZM206.559 125.604C206.964 126.069 207.559 126.374 208.23 126.456C208.901 126.539 209.567 126.397 210.116 126.052C211.17 125.384 211.428 124.147 210.767 123.203L230.324 110.832L242.265 112.337L242.361 112.348L272.464 94H271.621L242.239 111.911L230.19 110.396L210.483 122.866C209.989 122.399 209.297 122.153 208.598 122.153C208.066 122.153 207.539 122.29 207.081 122.577C205.961 123.288 205.724 124.65 206.559 125.604ZM207.375 122.912C208.283 122.335 209.572 122.499 210.249 123.271C210.92 124.047 210.728 125.14 209.823 125.717C209.463 125.943 209.041 126.065 208.6 126.065C208.503 126.065 208.401 126.056 208.296 126.043C207.758 125.975 207.278 125.73 206.954 125.354C206.278 124.582 206.469 123.488 207.375 122.912ZM258.371 160.454C259.203 161.413 260.8 161.613 261.923 160.9C262.467 160.558 262.824 160.052 262.924 159.48C263.02 158.908 262.855 158.336 262.447 157.873C262.138 157.515 261.716 157.264 261.257 157.125L262.605 152.537L319.003 118.039V117.526L262.247 152.241L262.174 152.287L260.783 157.025C260.66 157.01 260.532 157.001 260.405 157.001C259.879 157.001 259.346 157.138 258.894 157.427C257.768 158.136 257.534 159.497 258.371 160.454ZM259.185 157.76C260.096 157.184 261.38 157.347 262.056 158.119C262.383 158.495 262.515 158.958 262.439 159.417C262.36 159.883 262.071 160.287 261.63 160.565C261.267 160.8 260.836 160.909 260.41 160.909C259.782 160.909 259.164 160.668 258.764 160.207C258.088 159.43 258.276 158.336 259.185 157.76ZM286.61 188.527C287.446 189.481 289.039 189.684 290.167 188.972C290.711 188.627 291.063 188.12 291.165 187.548C291.265 186.976 291.099 186.409 290.69 185.941C290.386 185.591 289.97 185.337 289.501 185.195L290.848 180.605L319.003 163.383V162.87L290.486 180.314L290.417 180.355L289.024 185.093C288.899 185.078 288.771 185.07 288.649 185.07C288.102 185.07 287.579 185.215 287.138 185.495C286.012 186.209 285.775 187.566 286.61 188.527ZM287.429 185.828C287.868 185.554 288.409 185.437 288.952 185.504C289.491 185.574 289.97 185.817 290.3 186.191C290.622 186.568 290.76 187.026 290.68 187.492C290.598 187.95 290.313 188.359 289.874 188.636C289.506 188.868 289.08 188.981 288.654 188.981C288.026 188.981 287.409 188.736 287.005 188.277C286.329 187.503 286.52 186.404 287.429 185.828ZM306.21 207.33C307.046 208.286 308.639 208.486 309.767 207.778C310.311 207.43 310.663 206.925 310.765 206.353C310.865 205.781 310.699 205.214 310.29 204.746C309.986 204.396 309.57 204.142 309.101 203.998L310.448 199.41L319.003 194.178V193.661L310.086 199.119L310.017 199.16L308.624 203.898C308.499 203.881 308.371 203.874 308.249 203.874C307.702 203.874 307.179 204.02 306.738 204.298C305.612 205.014 305.375 206.37 306.21 207.33ZM307.029 204.633C307.468 204.357 308.009 204.242 308.552 204.307C309.091 204.379 309.57 204.62 309.9 204.997C310.222 205.372 310.36 205.832 310.28 206.295C310.198 206.753 309.913 207.164 309.474 207.438C309.106 207.673 308.68 207.786 308.254 207.786C307.626 207.786 307.009 207.538 306.605 207.08C305.929 206.307 306.12 205.209 307.029 204.633ZM211.214 101.252C212.051 102.213 213.643 102.413 214.771 101.702C215.825 101.035 216.083 99.7994 215.422 98.8558L223.33 94H222.488L215.138 98.514C214.644 98.0447 213.952 97.7987 213.253 97.7987C212.721 97.7987 212.194 97.9379 211.736 98.2251C210.616 98.9337 210.379 100.295 211.214 101.252ZM212.03 98.5597C212.938 97.988 214.227 98.1488 214.898 98.9232C215.575 99.6947 215.383 100.793 214.478 101.365C213.569 101.941 212.28 101.778 211.604 101.006C210.933 100.234 211.124 99.1364 212.03 98.5597ZM194.5 98.9688C195.337 99.9274 196.929 100.13 198.057 99.4186C199.109 98.7512 199.369 97.5159 198.708 96.5724L202.899 94H202.054L198.425 96.2289C197.93 95.7613 197.238 95.5158 196.536 95.5158C196.008 95.5158 195.48 95.6527 195.023 95.9417C193.9 96.6508 193.665 98.0119 194.5 98.9688ZM195.317 96.2745C196.225 95.7028 197.514 95.8659 198.185 96.6375C198.861 97.4118 198.67 98.5101 197.761 99.0818C196.855 99.658 195.566 99.4949 194.89 98.7228C194.219 97.949 194.411 96.8507 195.317 96.2745ZM224.38 107.323C225.216 108.277 226.809 108.48 227.937 107.769C228.481 107.423 228.833 106.916 228.935 106.345C229.035 105.772 228.869 105.205 228.46 104.738C228.157 104.387 227.74 104.133 227.271 103.992L228.618 99.4013L237.451 94H236.609L228.256 99.1102L228.187 99.1514L226.794 103.89C226.669 103.874 226.541 103.866 226.419 103.866C225.872 103.866 225.349 104.011 224.908 104.292C223.782 105.005 223.545 106.362 224.38 107.323ZM225.199 104.625C225.638 104.351 226.179 104.233 226.722 104.301C227.261 104.37 227.74 104.613 228.07 104.987C228.392 105.364 228.53 105.822 228.45 106.288C228.368 106.747 228.083 107.156 227.644 107.432C227.276 107.664 226.85 107.778 226.424 107.778C225.796 107.778 225.179 107.532 224.775 107.073C224.099 106.299 224.29 105.201 225.199 104.625ZM251.378 177.041C251.781 177.504 252.374 177.804 253.045 177.891C253.71 177.976 254.387 177.835 254.931 177.487C255.474 177.141 255.832 176.639 255.931 176.067C256.018 175.563 255.885 175.067 255.581 174.64L274.839 162.457L276.937 151.745L319.003 126.102V125.589L276.57 151.456L276.491 151.506L274.388 162.225L255.298 174.297C254.803 173.834 254.111 173.584 253.412 173.584C252.886 173.584 252.358 173.725 251.904 174.01C251.358 174.356 251 174.863 250.904 175.434C250.804 176.006 250.972 176.578 251.378 177.041ZM251.388 175.491C251.467 175.032 251.756 174.623 252.192 174.347C253.103 173.771 254.387 173.934 255.063 174.708C255.393 175.082 255.523 175.543 255.446 176.006C255.367 176.465 255.078 176.874 254.637 177.154C254.28 177.378 253.859 177.496 253.422 177.496C253.318 177.496 253.216 177.491 253.118 177.478C252.575 177.409 252.098 177.165 251.771 176.791C251.442 176.415 251.309 175.956 251.388 175.491Z" fill="#720455"/>
<defs>
<linearGradient id="paint0_linear_530_1814" x1="176" y1="675" x2="176" y2="89" gradientUnits="userSpaceOnUse">
<stop stop-color="#720455"/>
<stop offset="1" stop-color="#030637"/>
</linearGradient>
<clipPath id="clip0_530_1814">
<rect width="350" height="712" fill="white"/>
</clipPath>
</defs>
</svg>
