<svg width="455" height="455" viewBox="0 0 455 455" fill="none" xmlns="http://www.w3.org/2000/svg">
<path d="M272.918 232.353C272.949 232.681 272.87 233.073 272.783 233.449C272.846 232.866 272.912 232.279 272.918 232.353ZM266.499 210.349C266.755 210.636 267.001 210.934 267.173 211.244C267.256 211.394 266.874 210.868 266.499 210.349ZM225.775 296.77C237.591 297.716 249.837 294.178 260.058 288.382C280.837 276.598 296.73 253.851 296.903 229.499C296.99 217.143 292.626 205.445 285.273 195.767C284.732 194.699 284.012 193.693 283.102 192.783L271.671 181.352C267.244 176.924 259.108 176.576 254.743 181.352C250.362 186.144 249.996 193.535 254.742 198.281L262.969 206.508C263.972 207.52 264.944 208.558 265.866 209.644C265.996 209.797 266.141 209.953 266.286 210.113C266.435 210.315 266.585 210.516 266.729 210.72C268.103 212.681 269.318 214.752 270.36 216.909C270.385 216.945 270.474 217.124 270.583 217.358C270.589 217.369 270.595 217.38 270.6 217.392C270.61 217.412 270.617 217.433 270.626 217.453C270.686 217.583 270.748 217.724 270.808 217.865C270.987 218.277 271.16 218.69 271.351 219.095C271.215 218.805 271.097 218.554 270.992 218.33C270.996 218.341 271.001 218.352 271.005 218.364C271.405 219.501 271.755 220.656 272.055 221.823C272.344 222.955 272.564 224.097 272.776 225.244C272.807 225.567 272.838 225.89 272.86 226.214C273.023 228.545 272.991 230.888 272.78 233.214C272.766 233.364 272.75 233.515 272.734 233.664C272.7 233.813 272.667 233.955 272.644 234.086C272.426 235.313 272.16 236.531 271.85 237.738C271.574 238.808 271.264 239.868 270.92 240.918C270.736 241.48 270.542 242.04 270.34 242.594C270.325 242.632 270.311 242.669 270.297 242.707C269.422 244.655 268.507 246.572 267.444 248.431C266.339 250.365 265.107 252.208 263.817 254.021C263.559 254.342 263.302 254.665 263.036 254.981C262.206 255.971 261.345 256.937 260.458 257.876C258.786 259.646 257.014 261.32 255.154 262.89C254.791 263.196 254.422 263.494 254.054 263.793C253.215 264.394 252.378 264.993 251.513 265.558C249.501 266.874 247.411 268.072 245.255 269.136C244.456 269.53 243.642 269.888 242.829 270.251C242.262 270.453 241.698 270.661 241.127 270.851C238.896 271.592 236.615 272.184 234.3 272.606C233.971 272.666 233.64 272.717 233.309 272.769C232.188 272.873 231.063 272.939 229.937 272.958C228.745 272.978 227.552 272.943 226.363 272.864C226.409 272.873 226.302 272.867 226.111 272.851C226.072 272.849 226.033 272.848 225.994 272.845C225.335 272.796 224.68 272.706 224.022 272.652C224.449 272.687 224.791 272.716 225.087 272.742C224.933 272.721 224.784 272.698 224.654 272.675C223.335 272.434 222.028 272.129 220.738 271.762C220.085 271.575 219.436 271.373 218.794 271.154C218.613 271.093 218.218 270.944 217.856 270.808C217.661 270.723 217.49 270.647 217.391 270.601C216.749 270.301 216.116 269.985 215.49 269.653C214.206 268.973 212.957 268.229 211.745 267.427C211.276 267.117 210.818 266.791 210.36 266.467C210.321 266.434 210.284 266.404 210.24 266.368C208.941 265.296 207.704 264.156 206.507 262.97L198.28 254.743C193.852 250.316 185.717 249.967 181.351 254.743C176.97 259.535 176.605 266.927 181.351 271.672L192.781 283.103C193.614 283.936 194.578 284.623 195.621 285.16C204.352 291.823 214.587 295.874 225.775 296.77Z" fill="#0D063A" fill-opacity="0.2"/>
<path d="M260.061 313.439C259.436 313.738 258.8 314.025 258.161 314.201C258.048 314.233 259.554 313.641 260.061 313.439ZM279.566 330.496C298.858 320.176 315.27 304.428 326.83 285.894C338.254 267.578 344.802 245.629 343.959 223.969C342.984 198.943 332.66 175.98 316.501 157.084C314.404 154.632 312.204 152.272 309.927 149.986L295.196 135.255C290.768 130.828 282.634 130.479 278.267 135.255C273.887 140.046 273.522 147.438 278.267 152.184L292.999 166.915C295.21 169.135 297.349 171.425 299.391 173.802C300.349 174.916 301.284 176.048 302.199 177.195C302.593 177.691 302.975 178.196 303.368 178.692C300.597 175.202 302.706 177.836 303.343 178.716C306.595 183.214 309.505 187.96 311.987 192.927C312.572 194.098 313.133 195.282 313.67 196.477C313.903 196.994 314.131 197.513 314.354 198.034C314.357 198.039 314.359 198.045 314.361 198.05C315.213 200.352 316.049 202.649 316.751 205.003C317.482 207.446 318.106 209.921 318.625 212.419C318.873 213.613 319.096 214.812 319.294 216.016C319.375 216.507 319.446 216.999 319.524 217.492C320.029 222.235 320.209 226.995 319.982 231.761C319.926 232.942 319.846 234.121 319.744 235.298C319.645 236.444 319.018 240.705 319.584 237.037C319.258 239.162 318.93 241.282 318.489 243.39C317.497 248.133 316.144 252.801 314.468 257.348C314.048 258.488 312.266 262.573 314.194 258.168C313.722 259.247 313.278 260.336 312.792 261.409C311.79 263.623 310.711 265.802 309.56 267.943C307.286 272.172 304.733 276.25 301.932 280.15C301.633 280.567 301.329 280.978 301.026 281.391C300.401 282.183 299.776 282.975 299.132 283.752C297.573 285.638 295.954 287.473 294.278 289.254C290.978 292.764 287.458 296.068 283.745 299.139C282.991 299.763 282.225 300.37 281.456 300.977C281.02 301.299 280.584 301.623 280.143 301.939C278.161 303.362 276.133 304.722 274.064 306.013C269.998 308.549 265.768 310.823 261.401 312.799C260.981 312.989 260.549 313.204 260.114 313.413C260.046 313.439 259.956 313.473 259.81 313.529C259.536 313.635 259.263 313.746 258.99 313.852C258.373 314.091 257.753 314.324 257.133 314.552C254.857 315.384 252.552 316.136 250.222 316.803C247.964 317.449 245.683 318.015 243.383 318.496C242.232 318.737 241.077 318.956 239.919 319.154C239.339 319.253 238.758 319.347 238.176 319.435C238.029 319.458 237.745 319.497 237.448 319.539C237.382 319.546 237.32 319.553 237.272 319.558C236.686 319.622 236.099 319.68 235.511 319.732C234.188 319.851 232.861 319.94 231.533 319.999C229.16 320.107 226.783 320.122 224.409 320.041C222.098 319.963 219.8 319.774 217.503 319.532C217.08 319.468 216.656 319.407 216.233 319.338C214.879 319.118 213.53 318.868 212.186 318.585C207.318 317.562 202.632 316.057 197.974 314.336C197.546 314.152 197.117 313.968 196.692 313.778C195.346 313.177 194.015 312.545 192.698 311.883C190.3 310.676 187.951 309.369 185.657 307.973C183.204 306.48 180.816 304.882 178.494 303.193C178.335 303.077 177.892 302.746 177.532 302.477C177.482 302.438 177.436 302.402 177.402 302.375C176.107 301.35 174.834 300.297 173.584 299.218C171.283 297.23 169.063 295.151 166.908 293.006L152.176 278.275C147.749 273.847 139.614 273.498 135.247 278.275C130.867 283.066 130.502 290.458 135.247 295.203L149.979 309.935C168.209 328.083 190.934 340.277 216.567 343.369C238.212 345.979 260.461 340.714 279.566 330.496Z" fill="#0D063A" fill-opacity="0.2"/>
<path d="M322.146 93.3181C317.719 88.8911 309.584 88.5426 305.218 93.3181C300.837 98.1092 300.473 105.502 305.218 110.247L322.522 127.551L322.522 127.552C325.928 130.967 329.22 134.492 332.365 138.149C333.823 139.843 335.251 141.565 336.645 143.313C337.331 144.173 338 145.047 338.679 145.913C335.756 142.188 338.666 145.924 339.334 146.844C344.327 153.705 348.803 160.947 352.632 168.522C353.455 170.15 354.248 171.793 355.01 173.452C355.422 174.347 355.823 175.246 356.216 176.149C356.669 177.19 358.174 181.252 356.557 176.875C357.943 180.629 359.384 184.338 360.557 188.167C362.672 195.069 364.076 202.069 365.189 209.183C365.255 209.65 365.323 210.159 365.356 210.465C365.452 211.365 365.537 212.267 365.615 213.17C365.769 214.965 365.887 216.766 365.968 218.566C366.137 222.289 366.149 226.018 366.01 229.742C365.892 232.882 365.659 236.017 365.326 239.142C365.337 239.153 365.267 239.903 365.197 240.388C365.19 240.436 365.182 240.484 365.175 240.531C365.129 240.911 365.078 241.291 365.038 241.673C365.065 241.407 365.091 241.167 365.114 240.951C365.015 241.637 364.917 242.324 364.809 243.008C364.512 244.897 364.176 246.777 363.802 248.651C362.397 255.694 360.456 262.63 358.03 269.39C357.483 270.914 356.897 272.423 356.312 273.932C356.262 274.051 356.213 274.171 356.163 274.29C355.764 275.235 355.355 276.175 354.937 277.112C353.503 280.325 351.96 283.488 350.313 286.597C346.944 292.955 343.142 299.081 338.957 304.933C338.444 305.649 337.925 306.364 337.4 307.071C337.305 307.201 337.177 307.368 337.038 307.548C337.174 307.378 337.321 307.192 337.488 306.985C336.293 308.478 335.131 309.995 333.913 311.469C331.664 314.193 329.329 316.845 326.912 319.419C321.977 324.678 316.701 329.616 311.129 334.192C309.765 335.314 308.362 336.385 306.985 337.488C307.192 337.321 307.377 337.174 307.547 337.038C307.368 337.177 307.202 337.305 307.071 337.4C306.244 338.012 305.412 338.616 304.573 339.213C301.701 341.256 298.762 343.208 295.762 345.06C289.648 348.837 283.282 352.206 276.711 355.116C275.907 355.472 275.1 355.82 274.29 356.162C274.174 356.211 274.058 356.26 273.942 356.308C272.291 356.947 270.643 357.585 268.976 358.177C265.594 359.38 262.17 360.461 258.71 361.414C255.244 362.369 251.745 363.195 248.219 363.888C246.488 364.227 244.751 364.534 243.008 364.809C242.324 364.917 241.637 365.015 240.951 365.114C241.167 365.091 241.406 365.065 241.673 365.038C241.313 365.076 240.954 365.122 240.594 365.167C240.526 365.176 240.458 365.187 240.388 365.197C239.914 365.266 239.186 365.333 239.142 365.326C232.163 366.071 225.128 366.287 218.117 365.946C216.466 365.867 214.816 365.756 213.17 365.615C212.267 365.537 211.366 365.451 210.465 365.356C210.097 365.317 209.729 365.274 209.362 365.233C205.746 364.705 202.15 364.097 198.581 363.305C194.921 362.493 191.295 361.529 187.715 360.418C185.894 359.853 184.086 359.251 182.29 358.611C181.383 358.288 180.48 357.957 179.581 357.616C179 357.395 177.576 356.772 177.087 356.558C170.18 353.417 163.435 350.15 156.952 346.136C153.345 343.902 149.829 341.523 146.406 339.016C145.533 338.376 142.252 335.807 145.913 338.679C145.047 338 144.173 337.331 143.313 336.645C141.418 335.134 139.553 333.582 137.72 331.995C134.217 328.962 130.833 325.795 127.552 322.523L110.247 305.218C105.82 300.791 97.6844 300.442 93.3181 305.218C88.9377 310.009 88.573 317.401 93.3182 322.146L115.544 344.372C116.052 344.88 116.61 345.332 117.205 345.731C129.035 356.558 142.2 366.099 156.474 373.343C171.449 380.943 187.602 386.328 204.269 388.533C220.955 390.741 237.529 390.313 254.075 387.091C269.366 384.115 284.26 378.591 298.032 371.342C311.879 364.054 324.77 354.679 336.187 343.991C347.619 333.289 357.657 320.906 365.885 307.586C374.101 294.284 380.506 279.653 384.635 264.571C388.767 249.477 390.662 233.531 389.877 217.893C388.998 200.412 384.988 183.633 378.367 167.476C371.378 150.417 361.129 134.935 349.109 121.006C348.038 119.766 346.946 118.546 345.843 117.335C345.422 116.707 344.935 116.107 344.372 115.544L322.146 93.3181Z" fill="#0D063A" fill-opacity="0.2"/>
<path d="M118.86 109.968C146.482 83.8719 184.388 71.6451 228.393 79.1578C230.872 79.5808 233.459 79.8431 235.627 81.3594C239.3 83.9302 240.661 88.0632 239.171 92.0758C237.628 96.2289 233.707 98.6986 229.192 97.9764C224.298 97.194 219.447 96.1797 214.497 95.7133C142.189 88.8988 82.793 154.854 97.1274 226.071C97.2777 226.818 97.4513 227.562 97.5841 228.312C98.6074 234.103 95.6448 238.834 90.3692 239.846C85.3566 240.808 80.7572 237.555 79.5829 231.993C75.1973 211.208 75.6513 190.545 81.4878 170.081C87.5031 148.99 98.8102 129.945 118.86 109.968Z" fill="#6B0453" fill-opacity="0.4"/>
<path d="M143.537 143.908C167.866 120.939 196.399 112.062 229.45 118.481C234.329 119.428 237.253 122.589 237.566 126.815C237.874 130.994 235.287 134.891 231.305 136.3C229.16 137.059 227.051 136.655 224.913 136.25C186.112 128.894 149.553 150.582 137.575 188.175C133.551 200.804 133.202 213.67 135.948 226.631C136.793 230.622 135.668 233.998 132.318 236.37C129.262 238.535 125.932 238.733 122.597 236.913C119.815 235.396 118.521 232.893 117.915 229.866C112.774 204.162 117.347 180.326 131.68 158.392C135.095 153.166 139.058 148.35 143.537 143.908Z" fill="#680452" fill-opacity="0.4"/>
<path d="M173.954 173.862C188.413 159.966 205.519 154.503 225.347 157.919C231.79 159.028 235.31 163.546 234.218 168.931C233.101 174.434 228.389 177.102 221.879 175.916C195.43 171.095 172.177 193.221 175.68 219.881C175.812 220.889 176.034 221.883 176.192 222.887C177.084 228.507 174.176 233.075 169.045 234.125C163.956 235.167 159.365 232.014 158.24 226.424C155.106 210.861 157.804 196.355 166.448 183.005C168.598 179.685 171.127 176.666 173.954 173.862Z" fill="#6B0453" fill-opacity="0.4"/>
</svg>
