<svg width="150" height="60" viewBox="0 0 150 60" fill="none" xmlns="http://www.w3.org/2000/svg">
<path d="M24.1339 34.7662C24.1074 34.7984 24.0651 34.8263 24.0237 34.8522C24.0816 34.8057 24.14 34.759 24.1339 34.7662ZM25.5302 32.2199C25.5274 32.2685 25.5227 32.3173 25.5103 32.3605C25.5044 32.3813 25.5173 32.3 25.5302 32.2199ZM14.1396 36.3137C15.1135 37.457 16.5275 38.2371 17.9624 38.6336C20.8796 39.4394 24.3413 38.8254 26.5383 36.6593C27.6531 35.5601 28.3101 34.1212 28.5184 32.5955C28.5656 32.4513 28.5913 32.2966 28.5913 32.1336V30.0855C28.5913 29.2921 27.8937 28.5321 27.0747 28.5689C26.2529 28.6057 25.558 29.2352 25.558 30.0855V31.5596C25.5572 31.74 25.5513 31.9202 25.5367 32.1C25.5346 32.1253 25.5335 32.1524 25.5322 32.1796C25.5275 32.2111 25.523 32.2425 25.5175 32.2736C25.4649 32.5725 25.3882 32.8669 25.2884 33.1534C25.2874 33.1589 25.2794 33.1829 25.2681 33.2137L25.2666 33.2182C25.2657 33.2209 25.2645 33.2234 25.2635 33.2261C25.2572 33.243 25.2501 33.2613 25.2429 33.2792C25.222 33.3322 25.2005 33.3847 25.1813 33.4381C25.1951 33.3999 25.207 33.3669 25.2177 33.3374L25.2158 33.3416C25.1497 33.4793 25.0777 33.6141 24.9999 33.7455C24.9245 33.8729 24.8418 33.9948 24.7581 34.1166C24.7319 34.1484 24.7058 34.18 24.6788 34.211C24.4845 34.4344 24.2717 34.6415 24.0445 34.831C24.0297 34.8432 24.0149 34.8552 24 34.8672C23.9836 34.8774 23.968 34.8873 23.9542 34.8969C23.8248 34.9873 23.6918 35.0726 23.5559 35.1529C23.4353 35.2241 23.3125 35.2912 23.1876 35.3545C23.1208 35.3884 23.0532 35.4211 22.9855 35.4527C22.9807 35.4548 22.9762 35.4569 22.9715 35.4589C22.7187 35.555 22.465 35.6449 22.2032 35.7162C21.9309 35.7904 21.6554 35.8452 21.3774 35.8921C21.3256 35.8976 21.2736 35.9035 21.2215 35.9081C21.0584 35.9225 20.8948 35.9319 20.7311 35.9365C20.4228 35.9452 20.1141 35.9365 19.8068 35.9105C19.7469 35.9054 19.6871 35.899 19.6274 35.8929C19.4984 35.8715 19.3697 35.8502 19.2416 35.8234C18.9435 35.7609 18.6489 35.6811 18.3604 35.5832C18.2535 35.5469 18.1485 35.5061 18.0433 35.4658C17.9743 35.4331 17.9052 35.4013 17.837 35.367C17.5707 35.2336 17.3133 35.0822 17.0682 34.9127C17.0332 34.8885 16.999 34.8635 16.9648 34.8385C16.855 34.7474 16.7483 34.6525 16.6457 34.5533C16.5371 34.4484 16.4335 34.3383 16.3339 34.2247C16.3373 34.2296 16.3282 34.2195 16.3126 34.2011C16.3093 34.1973 16.3058 34.1937 16.3026 34.19C16.2479 34.1265 16.1973 34.0598 16.1432 33.9961C16.1784 34.0374 16.2064 34.0706 16.2306 34.0995C16.2187 34.0838 16.2073 34.0684 16.1978 34.0547C16.1012 33.915 16.0114 33.7705 15.9288 33.6221C15.887 33.5469 15.847 33.4706 15.809 33.3934C15.7983 33.3719 15.7763 33.3231 15.7561 33.2784C15.7462 33.2534 15.7376 33.2312 15.7329 33.2182C15.7024 33.1338 15.6739 33.0488 15.6476 32.963C15.5934 32.7871 15.5482 32.6085 15.5115 32.4281C15.4972 32.3583 15.4855 32.288 15.4734 32.2179C15.4728 32.2116 15.4722 32.2055 15.4715 32.1984C15.4512 31.986 15.4425 31.773 15.4415 31.5596V30.0855C15.4415 29.2921 14.7439 28.5321 13.9249 28.5689C13.1031 28.6057 12.4082 29.2352 12.4082 30.0855V32.1336C12.4082 32.2827 12.4329 32.4307 12.4783 32.5723C12.6635 33.9513 13.2176 35.2311 14.1396 36.3137Z" fill="#6B0453"/>
<path d="M15.7179 40.8787C15.6351 40.8494 15.5524 40.8182 15.4794 40.7768C15.4664 40.7695 15.6543 40.8514 15.7179 40.8787ZM15.9371 44.1541C18.5901 44.9579 21.4711 45.0174 24.1671 44.3926C26.8315 43.7752 29.3845 42.3955 31.2494 40.3795C33.404 38.0501 34.5363 35.068 34.7815 31.9276C34.8133 31.5201 34.8276 31.1116 34.8284 30.7028V28.0633C34.8284 27.2701 34.1309 26.5101 33.3118 26.5467C32.4902 26.5835 31.7953 27.2131 31.7953 28.0633V30.7028C31.7945 31.0998 31.781 31.4966 31.7509 31.8925C31.737 32.078 31.7194 32.2633 31.6985 32.448C31.6894 32.5277 31.6784 32.6072 31.6692 32.6869C31.7336 32.126 31.6865 32.5508 31.6648 32.6867C31.5532 33.3811 31.3886 34.067 31.166 34.7343C31.1136 34.8916 31.0578 35.0479 30.9988 35.2031C30.9734 35.2703 30.9473 35.3371 30.9206 35.4039C30.9203 35.4046 30.92 35.4053 30.9198 35.406C30.7899 35.6884 30.659 35.9691 30.511 36.2429C30.3576 36.5273 30.1918 36.8049 30.0146 37.0752C29.9297 37.2043 29.8423 37.3317 29.7522 37.4573C29.7155 37.5086 29.6778 37.5591 29.6405 37.6102C29.2609 38.0803 28.8507 38.5229 28.4033 38.9296C28.2925 39.0303 28.1797 39.1288 28.0651 39.2251C27.9536 39.3189 27.5156 39.6444 27.895 39.3665C27.6754 39.5277 27.4561 39.6882 27.2277 39.8376C26.7139 40.1736 26.1746 40.4706 25.6171 40.7278C25.4773 40.7923 24.9516 40.9987 25.519 40.7768C25.3801 40.8311 25.2427 40.8889 25.1031 40.9414C24.8149 41.0501 24.5231 41.1486 24.2282 41.2373C23.6456 41.4125 23.0515 41.5491 22.4512 41.6475C22.3871 41.6581 22.3231 41.6677 22.2589 41.6776C22.1319 41.6925 22.005 41.7074 21.8778 41.7193C21.5691 41.7486 21.2597 41.768 20.9499 41.7775C20.3398 41.7963 19.7285 41.7769 19.1207 41.7193C18.9973 41.7077 18.8742 41.6935 18.7511 41.679C18.6831 41.6687 18.6151 41.6587 18.5472 41.6475C18.2422 41.5975 17.9387 41.5376 17.6377 41.4679C17.0461 41.3308 16.4634 41.1556 15.8952 40.9414C15.8406 40.9208 15.7827 40.9013 15.7249 40.8811C15.7165 40.8774 15.7054 40.8723 15.6873 40.8643C15.6533 40.8492 15.6189 40.8347 15.5849 40.8197C15.5082 40.7858 15.4318 40.7512 15.3558 40.7161C15.0774 40.5868 14.8035 40.4476 14.5351 40.2986C14.2749 40.1541 14.0198 40.0005 13.7707 39.8376C13.646 39.7561 13.5229 39.6722 13.4014 39.5862C13.3406 39.5431 13.2801 39.4995 13.2201 39.4553C13.2049 39.4441 13.1759 39.4222 13.1456 39.3993C13.139 39.394 13.1328 39.3891 13.1281 39.3853C13.0698 39.3385 13.012 39.2911 12.9547 39.2431C12.8255 39.1352 12.6987 39.0243 12.5744 38.9106C12.3522 38.7077 12.1379 38.4961 11.9324 38.2762C11.7324 38.0622 11.5435 37.8394 11.3593 37.6119C11.3272 37.5683 11.2947 37.5247 11.263 37.4808C11.1613 37.3398 11.0629 37.1964 10.9679 37.0508C10.6234 36.523 10.3384 35.9684 10.0753 35.3969C10.0534 35.342 10.0316 35.2871 10.0105 35.232C9.94372 35.0576 9.88105 34.8818 9.82245 34.7044C9.71568 34.3815 9.62237 34.054 9.54195 33.7233C9.45595 33.3698 9.38516 33.0127 9.32841 32.6534C9.32458 32.6288 9.3146 32.5594 9.30636 32.5031C9.30543 32.4951 9.3045 32.4878 9.30392 32.4824C9.27967 32.2745 9.26006 32.0661 9.24474 31.8574C9.21665 31.4732 9.204 31.0881 9.20307 30.7028V28.0633C9.20307 27.2701 8.5056 26.5101 7.6865 26.5467C6.86485 26.5835 6.16992 27.2131 6.16992 28.0633V30.7028C6.17723 33.9619 7.12063 37.0901 9.14006 39.6635C10.8453 41.8364 13.3102 43.358 15.9371 44.1541Z" fill="#6B0453"/>
<path d="M41 26.7207C41 25.9275 40.3024 25.1675 39.4834 25.2041C38.6618 25.2409 37.9669 25.8705 37.9669 26.7207V29.8212L37.9667 29.8213C37.9659 30.4323 37.945 31.0431 37.8992 31.6524C37.8781 31.9348 37.8517 32.217 37.82 32.4985C37.8044 32.6369 37.786 32.7752 37.7693 32.9136C37.8412 32.318 37.7671 32.9135 37.7446 33.0557C37.5773 34.1177 37.3295 35.1675 36.9939 36.1891C36.9217 36.4087 36.8455 36.627 36.7652 36.8439C36.722 36.9608 36.6774 37.0774 36.6317 37.1934C36.579 37.3273 36.3499 37.826 36.5972 37.289C36.3851 37.7495 36.1818 38.2108 35.9439 38.659C35.515 39.4669 35.0137 40.2197 34.4761 40.9568C34.4401 41.0045 34.4007 41.0561 34.3762 41.0865C34.3041 41.1758 34.231 41.2642 34.1571 41.352C34.01 41.5267 33.8593 41.6986 33.7053 41.8672C33.3868 42.2158 33.0539 42.551 32.7078 42.8721C32.4159 43.1428 32.1142 43.4028 31.8045 43.6529C31.8045 43.6549 31.731 43.7158 31.6812 43.753C31.6763 43.7566 31.6713 43.7602 31.6665 43.7638C31.6283 43.7938 31.5896 43.8233 31.5519 43.8539C31.5781 43.8324 31.6019 43.8133 31.6234 43.796C31.5531 43.8486 31.4828 43.9014 31.4117 43.953C31.216 44.0955 31.0174 44.2339 30.816 44.3682C30.0591 44.8734 29.2639 45.3208 28.441 45.7091C28.2554 45.7966 28.0678 45.8794 27.8801 45.9621C27.865 45.9684 27.8498 45.9746 27.8348 45.9808C27.7144 46.0298 27.5935 46.0774 27.4721 46.1238C27.0558 46.2832 26.6342 46.4283 26.208 46.5593C25.3367 46.8271 24.4473 47.0354 23.5481 47.1846C23.438 47.2028 23.3275 47.2204 23.217 47.2367C23.1969 47.2398 23.1705 47.2433 23.1419 47.2469C23.1693 47.2439 23.1992 47.2404 23.2327 47.2368C22.9919 47.2635 22.7519 47.2953 22.5106 47.3183C22.0652 47.3609 21.6184 47.3892 21.1712 47.4034C20.258 47.4323 19.343 47.4021 18.4338 47.3128C18.2111 47.2911 17.9895 47.2614 17.7673 47.2368C17.8008 47.2404 17.8306 47.2439 17.8579 47.2469C17.8295 47.2433 17.8032 47.2398 17.783 47.2367C17.654 47.2175 17.5253 47.197 17.3968 47.1753C16.9563 47.1011 16.5182 47.0126 16.0835 46.9098C15.1974 46.7004 14.3253 46.4319 13.4759 46.1039C13.372 46.0638 13.2685 46.0227 13.1654 45.9808C13.1505 45.9748 13.1358 45.9687 13.121 45.9627C12.916 45.8721 12.7111 45.7815 12.5087 45.6852C12.098 45.49 11.6944 45.2801 11.299 45.0555C10.903 44.8306 10.5155 44.5911 10.1375 44.3373C9.95209 44.2126 9.76896 44.0845 9.58827 43.953C9.51724 43.9014 9.44691 43.8486 9.37659 43.796C9.39806 43.8133 9.42173 43.8324 9.44808 43.8539C9.41245 43.825 9.37612 43.797 9.33991 43.7687C9.33295 43.7635 9.32587 43.7584 9.31879 43.753C9.27017 43.7167 9.19891 43.6575 9.19555 43.6529C8.50364 43.0944 7.85398 42.4835 7.25642 41.8249C7.11565 41.6699 6.97778 41.5122 6.84293 41.352C6.769 41.2642 6.696 41.1758 6.62382 41.0865C6.59434 41.0501 6.56521 41.0133 6.53597 40.9767C6.2593 40.6055 5.99168 40.2288 5.74286 39.8381C5.48778 39.4375 5.24929 39.0263 5.02809 38.606C4.91552 38.3923 4.80748 38.1764 4.70396 37.9582C4.65162 37.8481 4.60044 37.7375 4.55042 37.6263C4.51816 37.5546 4.44644 37.3711 4.42172 37.3082C4.08435 36.408 3.77276 35.511 3.55168 34.5706C3.42866 34.0473 3.32676 33.5192 3.24471 32.988C3.22382 32.8525 3.15999 32.3284 3.23067 32.9136C3.21396 32.7752 3.19563 32.6369 3.17996 32.4985C3.14561 32.1933 3.11752 31.8872 3.09547 31.5809C3.05335 30.9953 3.03396 30.4084 3.03315 29.8213V26.7207C3.03315 25.9275 2.33556 25.1675 1.51657 25.2041C0.694922 25.2409 0 25.8705 0 26.7207V30.7029C0 30.794 0.00951651 30.8846 0.0270405 30.9736C0.116981 33.0033 0.44158 35.0375 1.0714 36.9651C1.73208 38.9876 2.69672 40.9172 3.99233 42.6078C5.28945 44.3005 6.81264 45.7469 8.58349 46.9407C10.2201 48.0439 12.0492 48.8833 13.9324 49.4677C15.8257 50.0553 17.8206 50.3703 19.8009 50.4356C21.7838 50.5009 23.7924 50.2909 25.7228 49.8347C27.6506 49.379 29.535 48.6421 31.2562 47.6609C32.9786 46.6789 34.5768 45.42 35.9075 43.9487C37.3948 42.304 38.5388 40.4415 39.3931 38.4009C40.2952 36.2465 40.7641 33.9414 40.935 31.6166C40.9502 31.4097 40.9617 31.2025 40.9713 30.9953C40.9899 30.9013 41 30.8038 41 30.7029V26.7207Z" fill="#6B0453"/>
<path d="M21.2963 10.0005C26.1087 10.1372 30.6 12.4377 33.8692 17.053C34.0533 17.313 34.2617 17.5683 34.32 17.8984C34.4188 18.4577 34.1704 18.9499 33.6774 19.1759C33.1672 19.4097 32.5947 19.2797 32.2549 18.8105C31.8865 18.302 31.5428 17.7765 31.1411 17.2913C25.2737 10.2029 14.0439 10.7906 8.94803 18.4548C8.89453 18.5353 8.84346 18.6174 8.78811 18.6966C8.36103 19.307 7.6718 19.4654 7.10848 19.0835C6.57324 18.7206 6.45266 18.0171 6.84573 17.4136C8.31484 15.1587 10.2067 13.3482 12.5628 12.0378C14.9912 10.6872 17.7103 9.99402 21.2963 10.0005Z" fill="#0D063A"/>
<path d="M20.4665 15.2518C24.7037 15.3737 28.0551 17.1347 30.4411 20.6707C30.7933 21.1926 30.772 21.7377 30.4215 22.1443C30.0747 22.5463 29.4938 22.6636 29.011 22.4332C28.7506 22.309 28.598 22.0838 28.4428 21.856C25.6256 17.721 20.4075 16.3887 15.9665 18.6835C14.4747 19.4544 13.2908 20.5757 12.3756 21.9829C12.0938 22.4161 11.6906 22.6178 11.178 22.5302C10.7103 22.4503 10.3941 22.1697 10.2585 21.708C10.1451 21.3228 10.2535 20.9826 10.4704 20.6572C12.3125 17.8939 14.8576 16.1682 18.1066 15.4872C18.8807 15.3249 19.6672 15.2486 20.4665 15.2518Z" fill="#0D063A"/>
<path d="M20.508 20.6604C23.0482 20.7107 25.0701 21.7538 26.5404 23.8361C27.0183 24.5127 26.9288 25.2328 26.3485 25.6174C25.7555 26.0104 25.0944 25.8271 24.6174 25.1377C22.6798 22.3364 18.6145 22.2354 16.5399 24.9376C16.4614 25.0397 16.3923 25.1487 16.3165 25.2528C15.8929 25.8362 15.2232 25.9849 14.6694 25.6193C14.1202 25.2567 13.9914 24.563 14.3913 23.9614C15.5048 22.2864 17.046 21.2286 19.0165 20.8069C19.5064 20.7021 20.0035 20.6583 20.508 20.6604Z" fill="#0D063A"/>
<path d="M53.4 25.936V32.496C53.4 32.848 53.4107 33.2107 53.432 33.584C53.464 33.9467 53.544 34.2773 53.672 34.576C53.8107 34.8747 54.024 35.12 54.312 35.312C54.6 35.4933 55.0053 35.584 55.528 35.584C56.0507 35.584 56.4507 35.4933 56.728 35.312C57.016 35.12 57.2293 34.8747 57.368 34.576C57.5067 34.2773 57.5867 33.9467 57.608 33.584C57.64 33.2107 57.656 32.848 57.656 32.496V25.936H60.776V32.928C60.776 34.8053 60.344 36.176 59.48 37.04C58.6267 37.904 57.3093 38.336 55.528 38.336C53.7467 38.336 52.424 37.904 51.56 37.04C50.696 36.176 50.264 34.8053 50.264 32.928V25.936H53.4ZM63.3109 38V25.936H66.4469L72.2389 33.312V25.936H75.3589V38H72.2389L66.4469 30.624V38H63.3109ZM81.025 25.936V38H77.889V25.936H81.025Z" fill="#0D063A"/>
<path d="M86.6813 35.344H87.4013C87.9453 35.344 88.4306 35.2587 88.8573 35.088C89.2839 34.9173 89.6413 34.6827 89.9293 34.384C90.2279 34.0853 90.4519 33.7333 90.6013 33.328C90.7613 32.912 90.8413 32.4587 90.8413 31.968C90.8413 31.488 90.7613 31.04 90.6013 30.624C90.4413 30.208 90.2119 29.8507 89.9133 29.552C89.6253 29.2533 89.2679 29.0187 88.8413 28.848C88.4146 28.6773 87.9346 28.592 87.4013 28.592H86.6813V35.344ZM83.5453 25.936H88.1853C89.0066 25.936 89.7746 26.1013 90.4893 26.432C91.2146 26.7627 91.8439 27.2053 92.3773 27.76C92.9213 28.304 93.3479 28.944 93.6573 29.68C93.9666 30.4053 94.1213 31.168 94.1213 31.968C94.1213 32.7573 93.9666 33.52 93.6573 34.256C93.3586 34.9813 92.9373 35.6213 92.3933 36.176C91.8599 36.7307 91.2306 37.1733 90.5052 37.504C89.7906 37.8347 89.0173 38 88.1853 38H83.5453V25.936ZM99.2594 25.936V38H96.1234V25.936H99.2594ZM107.652 31.248H113.876C113.876 31.888 113.849 32.4693 113.796 32.992C113.742 33.5147 113.636 34 113.476 34.448C113.252 35.0773 112.948 35.6373 112.564 36.128C112.18 36.608 111.726 37.0133 111.204 37.344C110.692 37.664 110.126 37.9093 109.508 38.08C108.889 38.2507 108.238 38.336 107.556 38.336C106.617 38.336 105.758 38.1813 104.98 37.872C104.212 37.5627 103.55 37.1307 102.996 36.576C102.441 36.0107 102.009 35.3387 101.7 34.56C101.39 33.7707 101.236 32.9013 101.236 31.952C101.236 31.0133 101.385 30.1547 101.684 29.376C101.993 28.5867 102.425 27.9147 102.98 27.36C103.545 26.8053 104.222 26.3733 105.012 26.064C105.801 25.7547 106.681 25.6 107.652 25.6C108.91 25.6 110.014 25.872 110.964 26.416C111.913 26.96 112.665 27.8027 113.22 28.944L110.244 30.176C109.966 29.5147 109.604 29.04 109.156 28.752C108.718 28.464 108.217 28.32 107.652 28.32C107.182 28.32 106.756 28.4107 106.372 28.592C105.988 28.7627 105.657 29.0133 105.38 29.344C105.113 29.664 104.9 30.0533 104.74 30.512C104.59 30.9707 104.516 31.4827 104.516 32.048C104.516 32.56 104.58 33.0347 104.708 33.472C104.846 33.9093 105.049 34.288 105.316 34.608C105.582 34.928 105.913 35.1787 106.308 35.36C106.702 35.5307 107.161 35.616 107.684 35.616C107.993 35.616 108.292 35.584 108.58 35.52C108.868 35.4453 109.124 35.3333 109.348 35.184C109.582 35.024 109.774 34.8213 109.924 34.576C110.073 34.3307 110.174 34.032 110.228 33.68H107.652V31.248ZM118.994 25.936V38H115.858V25.936H118.994ZM126.09 28.592V38H122.954V28.592H120.378V25.936H128.666V28.592H126.09ZM136.058 33.52L134.65 29.504L133.242 33.52H136.058ZM136.89 35.904H132.41L131.69 38H128.346L132.938 25.936H136.362L140.954 38H137.61L136.89 35.904ZM145.463 25.936V35.344H149.223V38H142.327V25.936H145.463Z" fill="#680452"/>
</svg>
