<svg width="60" height="63" viewBox="0 0 60 63" fill="none" xmlns="http://www.w3.org/2000/svg">
<g clip-path="url(#clip0_300_1733)">
<path d="M47.1045 0.00674843C46.4407 -0.0423021 45.7631 0.175596 45.2344 0.674906L45.2246 0.679818C44.2421 1.60549 44.1985 3.12421 45.0635 4.16308C51.2485 11.5861 55 21.1263 55 31.5477C55 41.5062 51.5715 50.6531 45.874 57.9252C45.039 58.9917 45.1252 60.5128 46.1377 61.4133C47.1927 62.3491 48.8369 62.2524 49.7119 61.1431C56.1319 52.9982 60 42.7287 60 31.5477C60 19.8938 55.8018 9.22873 48.8818 0.930377C48.4156 0.370698 47.7682 0.055799 47.1045 0.00674843ZM37.998 8.61418C37.3268 8.5623 36.6373 8.77926 36.1035 9.28234C35.176 10.1577 35.0154 11.6221 35.8154 12.6182C39.9854 17.8 42.5 24.3762 42.5 31.5477C42.5 38.3871 40.2093 44.6816 36.3818 49.7452C35.6068 50.7689 35.8003 52.2357 36.7578 53.0859C37.8678 54.072 39.5567 53.8532 40.4492 52.6634C44.8617 46.7774 47.5 39.4738 47.5 31.5477C47.5 23.2267 44.5978 15.5893 39.7803 9.56238C39.3215 8.98761 38.6693 8.66606 37.998 8.61418ZM28.8818 17.2364C28.2003 17.1807 27.4944 17.405 26.9531 17.9143L26.9385 17.9242C26.0285 18.7819 25.891 20.185 26.626 21.1962C28.7435 24.104 30 27.6765 30 31.5477C30 34.1889 29.4044 36.6855 28.3594 38.9318L5.70801 19.4472C4.83551 18.6976 3.50457 18.9397 2.93457 19.9434C1.07707 23.221 0 27.0019 0 31.0417C0 35.0009 1.03227 38.7135 2.82227 41.9483C3.60227 43.357 5.52434 43.6127 6.69434 42.5084L6.69922 42.4986C7.51922 41.7238 7.735 40.4879 7.1875 39.4968C5.8 36.9889 5 34.113 5 31.0417C5 29.3438 5.26039 27.7102 5.71289 26.1582L27.9297 45.2842C28.7447 45.986 29.9631 45.8081 30.6006 44.9403C33.3581 41.1898 35 36.5634 35 31.5477C35 26.5672 33.3842 21.9667 30.6592 18.2288C30.2217 17.6276 29.5634 17.292 28.8818 17.2364Z" fill="url(#paint0_linear_300_1733)"/>
</g>
<defs>
<linearGradient id="paint0_linear_300_1733" x1="12.3089" y1="-0.102214" x2="64.7559" y2="4.17252" gradientUnits="userSpaceOnUse">
<stop stop-color="#0F1E35"/>
<stop offset="1" stop-color="#9A9A9A"/>
</linearGradient>
<clipPath id="clip0_300_1733">
<rect width="60" height="63" fill="white"/>
</clipPath>
</defs>
</svg>
