<svg width="60" height="69" viewBox="0 0 60 69" fill="none" xmlns="http://www.w3.org/2000/svg">
<g clip-path="url(#clip0_300_1737)">
<path d="M4.09091 0C1.83771 0 0 1.85501 0 4.12941V49.5529C0 51.8273 1.83771 53.6824 4.09091 53.6824H23.1818V42.6706H6.81818V6.88235H28.6364V13.7647H35.4545V4.12941C35.4545 1.85501 33.6168 0 31.3636 0H4.09091ZM28.6364 15.1412C26.3832 15.1412 24.5455 16.9962 24.5455 19.2706V64.6941C24.5455 66.9685 26.3832 68.8235 28.6364 68.8235H55.9091C58.1623 68.8235 60 66.9685 60 64.6941V19.2706C60 16.9962 58.1623 15.1412 55.9091 15.1412H28.6364ZM31.3636 22.0235H53.1818V57.8118H31.3636V22.0235ZM17.7273 45.4235C18.8565 45.4235 19.7727 46.3484 19.7727 47.4882C19.7727 48.6281 18.8565 49.5529 17.7273 49.5529C16.598 49.5529 15.6818 48.6281 15.6818 47.4882C15.6818 46.3484 16.598 45.4235 17.7273 45.4235ZM42.2727 60.5647C43.402 60.5647 44.3182 61.4895 44.3182 62.6294C44.3182 63.7693 43.402 64.6941 42.2727 64.6941C41.1435 64.6941 40.2273 63.7693 40.2273 62.6294C40.2273 61.4895 41.1435 60.5647 42.2727 60.5647Z" fill="url(#paint0_linear_300_1737)"/>
</g>
<defs>
<linearGradient id="paint0_linear_300_1737" x1="12.3089" y1="-0.113371" x2="64.8208" y2="3.7455" gradientUnits="userSpaceOnUse">
<stop stop-color="#0F1E35"/>
<stop offset="1" stop-color="#9A9A9A"/>
</linearGradient>
<clipPath id="clip0_300_1737">
<rect width="60" height="69" fill="white"/>
</clipPath>
</defs>
</svg>
