<svg width="381" height="242" viewBox="0 0 381 242" fill="none" xmlns="http://www.w3.org/2000/svg">
<path d="M36.8113 235.385V224.825L37.4993 225.577H34.2833V224.185H38.3953V235.385H36.8113ZM41.9011 235.481C41.6025 235.481 41.3465 235.379 41.1331 235.177C40.9198 234.963 40.8131 234.697 40.8131 234.377C40.8131 234.057 40.9198 233.795 41.1331 233.593C41.3465 233.39 41.6025 233.289 41.9011 233.289C42.1891 233.289 42.4345 233.39 42.6371 233.593C42.8505 233.795 42.9571 234.057 42.9571 234.377C42.9571 234.697 42.8505 234.963 42.6371 235.177C42.4345 235.379 42.1891 235.481 41.9011 235.481ZM48.0861 235.513C47.2968 235.513 46.5288 235.39 45.7821 235.145C45.0461 234.899 44.4435 234.569 43.9741 234.153L44.7101 232.889C45.0835 233.241 45.5688 233.529 46.1661 233.753C46.7635 233.977 47.3981 234.089 48.0701 234.089C48.9235 234.089 49.5795 233.907 50.0381 233.545C50.4968 233.182 50.7261 232.697 50.7261 232.089C50.7261 231.673 50.6248 231.31 50.4221 231.001C50.2195 230.691 49.8675 230.457 49.3661 230.297C48.8755 230.126 48.1981 230.041 47.3341 230.041H44.7901L45.3821 224.185H51.7021V225.577H45.9741L46.8061 224.793L46.3421 229.417L45.5101 228.649H47.6701C48.7901 228.649 49.6915 228.793 50.3741 229.081C51.0568 229.369 51.5528 229.769 51.8621 230.281C52.1715 230.782 52.3261 231.363 52.3261 232.025C52.3261 232.665 52.1715 233.251 51.8621 233.785C51.5528 234.307 51.0835 234.729 50.4541 235.049C49.8355 235.358 49.0461 235.513 48.0861 235.513ZM58.2336 235.513C57.359 235.513 56.575 235.289 55.8816 234.841C55.199 234.393 54.655 233.742 54.2496 232.889C53.855 232.035 53.6576 231.001 53.6576 229.785C53.6576 228.569 53.855 227.534 54.2496 226.681C54.655 225.827 55.199 225.177 55.8816 224.729C56.575 224.281 57.359 224.057 58.2336 224.057C59.0976 224.057 59.8763 224.281 60.5696 224.729C61.263 225.177 61.807 225.827 62.2016 226.681C62.5963 227.534 62.7936 228.569 62.7936 229.785C62.7936 231.001 62.5963 232.035 62.2016 232.889C61.807 233.742 61.263 234.393 60.5696 234.841C59.8763 235.289 59.0976 235.513 58.2336 235.513ZM58.2336 234.089C58.8203 234.089 59.3323 233.929 59.7696 233.609C60.2176 233.289 60.5643 232.809 60.8096 232.169C61.0656 231.529 61.1936 230.734 61.1936 229.785C61.1936 228.835 61.0656 228.041 60.8096 227.401C60.5643 226.761 60.2176 226.281 59.7696 225.961C59.3323 225.641 58.8203 225.481 58.2336 225.481C57.647 225.481 57.1296 225.641 56.6816 225.961C56.2336 226.281 55.8816 226.761 55.6256 227.401C55.3803 228.041 55.2576 228.835 55.2576 229.785C55.2576 230.734 55.3803 231.529 55.6256 232.169C55.8816 232.809 56.2336 233.289 56.6816 233.609C57.1296 233.929 57.647 234.089 58.2336 234.089ZM68.1055 237.305V222.265H69.1295V237.305H68.1055ZM68.5055 235.513C67.6522 235.513 66.8362 235.385 66.0575 235.129C65.2789 234.862 64.6655 234.521 64.2175 234.105L64.8095 232.857C65.2362 233.23 65.7802 233.539 66.4415 233.785C67.1029 234.03 67.7909 234.153 68.5055 234.153C69.1562 234.153 69.6842 234.078 70.0895 233.929C70.4949 233.779 70.7935 233.577 70.9855 233.321C71.1775 233.054 71.2735 232.755 71.2735 232.425C71.2735 232.041 71.1455 231.731 70.8895 231.497C70.6442 231.262 70.3189 231.075 69.9135 230.937C69.5189 230.787 69.0815 230.659 68.6015 230.553C68.1215 230.446 67.6362 230.323 67.1455 230.185C66.6655 230.035 66.2229 229.849 65.8175 229.625C65.4229 229.401 65.1029 229.102 64.8575 228.729C64.6122 228.345 64.4895 227.854 64.4895 227.257C64.4895 226.681 64.6389 226.153 64.9375 225.673C65.2469 225.182 65.7162 224.793 66.3455 224.505C66.9855 224.206 67.7962 224.057 68.7775 224.057C69.4282 224.057 70.0735 224.142 70.7135 224.313C71.3535 224.483 71.9082 224.729 72.3775 225.049L71.8495 226.329C71.3695 226.009 70.8629 225.779 70.3295 225.641C69.7962 225.491 69.2789 225.417 68.7775 225.417C68.1482 225.417 67.6309 225.497 67.2255 225.657C66.8202 225.817 66.5215 226.03 66.3295 226.297C66.1482 226.563 66.0575 226.862 66.0575 227.193C66.0575 227.587 66.1802 227.902 66.4255 228.137C66.6815 228.371 67.0069 228.558 67.4015 228.697C67.8069 228.835 68.2495 228.963 68.7295 229.081C69.2095 229.187 69.6895 229.31 70.1695 229.449C70.6602 229.587 71.1029 229.769 71.4975 229.993C71.9029 230.217 72.2282 230.515 72.4735 230.889C72.7189 231.262 72.8415 231.742 72.8415 232.329C72.8415 232.894 72.6869 233.422 72.3775 233.913C72.0682 234.393 71.5882 234.782 70.9375 235.081C70.2975 235.369 69.4869 235.513 68.5055 235.513ZM83.7479 235.481C83.0439 235.481 82.3986 235.321 81.8119 235.001C81.2359 234.67 80.7719 234.185 80.4199 233.545C80.0786 232.905 79.9079 232.105 79.9079 231.145C79.9079 230.185 80.0732 229.385 80.4039 228.745C80.7452 228.105 81.2039 227.625 81.7799 227.305C82.3666 226.985 83.0226 226.825 83.7479 226.825C84.5799 226.825 85.3159 227.006 85.9559 227.369C86.5959 227.731 87.1026 228.238 87.4759 228.889C87.8492 229.529 88.0359 230.281 88.0359 231.145C88.0359 232.009 87.8492 232.766 87.4759 233.417C87.1026 234.067 86.5959 234.574 85.9559 234.937C85.3159 235.299 84.5799 235.481 83.7479 235.481ZM79.2519 238.489V226.905H80.7239V229.193L80.6279 231.161L80.7879 233.129V238.489H79.2519ZM83.6199 234.137C84.1639 234.137 84.6492 234.014 85.0759 233.769C85.5132 233.523 85.8546 233.177 86.0999 232.729C86.3559 232.27 86.4839 231.742 86.4839 231.145C86.4839 230.537 86.3559 230.014 86.0999 229.577C85.8546 229.129 85.5132 228.782 85.0759 228.537C84.6492 228.291 84.1639 228.169 83.6199 228.169C83.0866 228.169 82.6012 228.291 82.1639 228.537C81.7372 228.782 81.3959 229.129 81.1399 229.577C80.8946 230.014 80.7719 230.537 80.7719 231.145C80.7719 231.742 80.8946 232.27 81.1399 232.729C81.3959 233.177 81.7372 233.523 82.1639 233.769C82.6012 234.014 83.0866 234.137 83.6199 234.137ZM93.9341 235.481C93.0275 235.481 92.2275 235.294 91.5341 234.921C90.8515 234.547 90.3181 234.035 89.9341 233.385C89.5608 232.734 89.3741 231.987 89.3741 231.145C89.3741 230.302 89.5555 229.555 89.9181 228.905C90.2915 228.254 90.7981 227.747 91.4381 227.385C92.0888 227.011 92.8195 226.825 93.6301 226.825C94.4515 226.825 95.1768 227.006 95.8061 227.369C96.4355 227.731 96.9261 228.243 97.2781 228.905C97.6408 229.555 97.8221 230.318 97.8221 231.193C97.8221 231.257 97.8168 231.331 97.8061 231.417C97.8061 231.502 97.8008 231.582 97.7901 231.657H90.5741V230.553H96.9901L96.3661 230.937C96.3768 230.393 96.2648 229.907 96.0301 229.481C95.7955 229.054 95.4701 228.723 95.0541 228.489C94.6488 228.243 94.1741 228.121 93.6301 228.121C93.0968 228.121 92.6221 228.243 92.2061 228.489C91.7901 228.723 91.4648 229.059 91.2301 229.497C90.9955 229.923 90.8781 230.414 90.8781 230.969V231.225C90.8781 231.79 91.0061 232.297 91.2621 232.745C91.5288 233.182 91.8968 233.523 92.3661 233.769C92.8355 234.014 93.3741 234.137 93.9821 234.137C94.4835 234.137 94.9368 234.051 95.3421 233.881C95.7581 233.71 96.1208 233.454 96.4301 233.113L97.2781 234.105C96.8941 234.553 96.4141 234.894 95.8381 235.129C95.2728 235.363 94.6381 235.481 93.9341 235.481ZM99.955 235.385V226.905H101.427V229.209L101.283 228.633C101.518 228.046 101.912 227.598 102.467 227.289C103.022 226.979 103.704 226.825 104.515 226.825V228.313C104.451 228.302 104.387 228.297 104.323 228.297C104.27 228.297 104.216 228.297 104.163 228.297C103.342 228.297 102.691 228.542 102.211 229.033C101.731 229.523 101.491 230.233 101.491 231.161V235.385H99.955ZM121.422 226.825C122.105 226.825 122.708 226.958 123.23 227.225C123.753 227.491 124.158 227.897 124.446 228.441C124.745 228.985 124.894 229.673 124.894 230.505V235.385H123.358V230.681C123.358 229.859 123.166 229.241 122.782 228.825C122.398 228.409 121.86 228.201 121.166 228.201C120.654 228.201 120.206 228.307 119.822 228.521C119.438 228.734 119.14 229.049 118.926 229.465C118.724 229.881 118.622 230.398 118.622 231.017V235.385H117.086V230.681C117.086 229.859 116.894 229.241 116.51 228.825C116.137 228.409 115.598 228.201 114.894 228.201C114.393 228.201 113.95 228.307 113.566 228.521C113.182 228.734 112.884 229.049 112.67 229.465C112.457 229.881 112.35 230.398 112.35 231.017V235.385H110.814V226.905H112.286V229.161L112.046 228.585C112.313 228.03 112.724 227.598 113.278 227.289C113.833 226.979 114.478 226.825 115.214 226.825C116.025 226.825 116.724 227.027 117.31 227.433C117.897 227.827 118.281 228.43 118.462 229.241L117.838 228.985C118.094 228.334 118.542 227.811 119.182 227.417C119.822 227.022 120.569 226.825 121.422 226.825ZM131.353 235.481C130.499 235.481 129.742 235.294 129.081 234.921C128.419 234.547 127.897 234.035 127.513 233.385C127.129 232.723 126.937 231.977 126.937 231.145C126.937 230.302 127.129 229.555 127.513 228.905C127.897 228.254 128.419 227.747 129.081 227.385C129.742 227.011 130.499 226.825 131.353 226.825C132.195 226.825 132.947 227.011 133.609 227.385C134.281 227.747 134.803 228.254 135.177 228.905C135.561 229.545 135.753 230.291 135.753 231.145C135.753 231.987 135.561 232.734 135.177 233.385C134.803 234.035 134.281 234.547 133.609 234.921C132.947 235.294 132.195 235.481 131.353 235.481ZM131.353 234.137C131.897 234.137 132.382 234.014 132.809 233.769C133.246 233.523 133.587 233.177 133.833 232.729C134.078 232.27 134.201 231.742 134.201 231.145C134.201 230.537 134.078 230.014 133.833 229.577C133.587 229.129 133.246 228.782 132.809 228.537C132.382 228.291 131.897 228.169 131.353 228.169C130.809 228.169 130.323 228.291 129.897 228.537C129.47 228.782 129.129 229.129 128.873 229.577C128.617 230.014 128.489 230.537 128.489 231.145C128.489 231.742 128.617 232.27 128.873 232.729C129.129 233.177 129.47 233.523 129.897 233.769C130.323 234.014 130.809 234.137 131.353 234.137ZM142.405 226.825C143.098 226.825 143.706 226.958 144.229 227.225C144.762 227.491 145.178 227.897 145.477 228.441C145.776 228.985 145.925 229.673 145.925 230.505V235.385H144.389V230.681C144.389 229.859 144.186 229.241 143.781 228.825C143.386 228.409 142.826 228.201 142.101 228.201C141.557 228.201 141.082 228.307 140.677 228.521C140.272 228.734 139.957 229.049 139.733 229.465C139.52 229.881 139.413 230.398 139.413 231.017V235.385H137.877V226.905H139.349V229.193L139.109 228.585C139.386 228.03 139.813 227.598 140.389 227.289C140.965 226.979 141.637 226.825 142.405 226.825ZM151.68 235.481C150.826 235.481 150.165 235.251 149.696 234.793C149.226 234.334 148.992 233.678 148.992 232.825V225.049H150.528V232.761C150.528 233.219 150.64 233.571 150.864 233.817C151.098 234.062 151.429 234.185 151.856 234.185C152.336 234.185 152.736 234.051 153.056 233.785L153.536 234.889C153.301 235.091 153.018 235.241 152.688 235.337C152.368 235.433 152.032 235.481 151.68 235.481ZM147.552 228.169V226.905H152.96V228.169H147.552ZM159.921 226.825C160.614 226.825 161.222 226.958 161.745 227.225C162.278 227.491 162.694 227.897 162.993 228.441C163.291 228.985 163.441 229.673 163.441 230.505V235.385H161.905V230.681C161.905 229.859 161.702 229.241 161.297 228.825C160.902 228.409 160.342 228.201 159.617 228.201C159.073 228.201 158.598 228.307 158.193 228.521C157.787 228.734 157.473 229.049 157.249 229.465C157.035 229.881 156.929 230.398 156.929 231.017V235.385H155.393V223.513H156.929V229.193L156.625 228.585C156.902 228.03 157.329 227.598 157.905 227.289C158.481 226.979 159.153 226.825 159.921 226.825Z" fill="white"/>
<path d="M36.2233 216.467V201.067H38.5773L48.2353 212.925H47.0693V201.067H49.9073V216.467H47.5533L37.8953 204.609H39.0613V216.467H36.2233ZM56.6518 208.151H64.3298V210.571H56.6518V208.151ZM56.8938 216.467H54.0338V201.067H65.2758V203.465H56.8938V216.467ZM74.9978 216.687C73.8244 216.687 72.7318 216.496 71.7198 216.115C70.7224 215.719 69.8498 215.169 69.1018 214.465C68.3684 213.746 67.7964 212.903 67.3858 211.935C66.9751 210.967 66.7698 209.911 66.7698 208.767C66.7698 207.623 66.9751 206.567 67.3858 205.599C67.7964 204.631 68.3758 203.795 69.1238 203.091C69.8718 202.372 70.7444 201.822 71.7418 201.441C72.7391 201.045 73.8318 200.847 75.0198 200.847C76.2811 200.847 77.4324 201.067 78.4738 201.507C79.5151 201.932 80.3951 202.57 81.1138 203.421L79.2658 205.159C78.7084 204.557 78.0851 204.11 77.3958 203.817C76.7064 203.509 75.9584 203.355 75.1518 203.355C74.3451 203.355 73.6044 203.487 72.9298 203.751C72.2698 204.015 71.6904 204.389 71.1918 204.873C70.7078 205.357 70.3264 205.929 70.0478 206.589C69.7838 207.249 69.6518 207.975 69.6518 208.767C69.6518 209.559 69.7838 210.285 70.0478 210.945C70.3264 211.605 70.7078 212.177 71.1918 212.661C71.6904 213.145 72.2698 213.519 72.9298 213.783C73.6044 214.047 74.3451 214.179 75.1518 214.179C75.9584 214.179 76.7064 214.032 77.3958 213.739C78.0851 213.431 78.7084 212.969 79.2658 212.353L81.1138 214.113C80.3951 214.949 79.5151 215.587 78.4738 216.027C77.4324 216.467 76.2738 216.687 74.9978 216.687ZM89.9342 216.467V201.067H97.1502C98.9982 201.067 100.406 201.433 101.374 202.167C102.342 202.885 102.826 203.853 102.826 205.071C102.826 205.892 102.636 206.596 102.254 207.183C101.873 207.755 101.36 208.202 100.714 208.525C100.084 208.833 99.3942 208.987 98.6462 208.987L99.0422 208.195C99.9075 208.195 100.685 208.356 101.374 208.679C102.064 208.987 102.606 209.441 103.002 210.043C103.413 210.644 103.618 211.392 103.618 212.287C103.618 213.607 103.112 214.633 102.1 215.367C101.088 216.1 99.5849 216.467 97.5902 216.467H89.9342ZM92.7942 214.223H97.4142C98.4849 214.223 99.3062 214.047 99.8782 213.695C100.45 213.343 100.736 212.778 100.736 212.001C100.736 211.238 100.45 210.681 99.8782 210.329C99.3062 209.962 98.4849 209.779 97.4142 209.779H92.5742V207.557H96.8422C97.8395 207.557 98.6022 207.381 99.1302 207.029C99.6729 206.677 99.9442 206.149 99.9442 205.445C99.9442 204.726 99.6729 204.191 99.1302 203.839C98.6022 203.487 97.8395 203.311 96.8422 203.311H92.7942V214.223ZM113.645 216.467V214.091L113.491 213.585V209.427C113.491 208.62 113.249 207.997 112.765 207.557C112.281 207.102 111.547 206.875 110.565 206.875C109.905 206.875 109.252 206.977 108.607 207.183C107.976 207.388 107.441 207.674 107.001 208.041L105.923 206.039C106.553 205.555 107.301 205.195 108.167 204.961C109.047 204.711 109.956 204.587 110.895 204.587C112.596 204.587 113.909 204.997 114.833 205.819C115.771 206.625 116.241 207.879 116.241 209.581V216.467H113.645ZM109.949 216.621C109.069 216.621 108.299 216.474 107.639 216.181C106.979 215.873 106.465 215.455 106.099 214.927C105.747 214.384 105.571 213.775 105.571 213.101C105.571 212.441 105.725 211.847 106.033 211.319C106.355 210.791 106.876 210.373 107.595 210.065C108.313 209.757 109.267 209.603 110.455 209.603H113.865V211.429H110.653C109.714 211.429 109.083 211.583 108.761 211.891C108.438 212.184 108.277 212.551 108.277 212.991C108.277 213.489 108.475 213.885 108.871 214.179C109.267 214.472 109.817 214.619 110.521 214.619C111.195 214.619 111.797 214.465 112.325 214.157C112.867 213.849 113.256 213.394 113.491 212.793L113.953 214.443C113.689 215.132 113.212 215.667 112.523 216.049C111.848 216.43 110.99 216.621 109.949 216.621ZM123.4 216.621C122.417 216.621 121.471 216.496 120.562 216.247C119.667 215.983 118.956 215.667 118.428 215.301L119.484 213.211C120.012 213.548 120.642 213.827 121.376 214.047C122.109 214.267 122.842 214.377 123.576 214.377C124.441 214.377 125.064 214.259 125.446 214.025C125.842 213.79 126.04 213.475 126.04 213.079C126.04 212.756 125.908 212.514 125.644 212.353C125.38 212.177 125.035 212.045 124.61 211.957C124.184 211.869 123.708 211.788 123.18 211.715C122.666 211.641 122.146 211.546 121.618 211.429C121.104 211.297 120.635 211.113 120.21 210.879C119.784 210.629 119.44 210.299 119.176 209.889C118.912 209.478 118.78 208.935 118.78 208.261C118.78 207.513 118.992 206.867 119.418 206.325C119.843 205.767 120.437 205.342 121.2 205.049C121.977 204.741 122.894 204.587 123.95 204.587C124.742 204.587 125.541 204.675 126.348 204.851C127.154 205.027 127.822 205.276 128.35 205.599L127.294 207.689C126.736 207.351 126.172 207.124 125.6 207.007C125.042 206.875 124.485 206.809 123.928 206.809C123.092 206.809 122.468 206.933 122.058 207.183C121.662 207.432 121.464 207.747 121.464 208.129C121.464 208.481 121.596 208.745 121.86 208.921C122.124 209.097 122.468 209.236 122.894 209.339C123.319 209.441 123.788 209.529 124.302 209.603C124.83 209.661 125.35 209.757 125.864 209.889C126.377 210.021 126.846 210.204 127.272 210.439C127.712 210.659 128.064 210.974 128.328 211.385C128.592 211.795 128.724 212.331 128.724 212.991C128.724 213.724 128.504 214.362 128.064 214.905C127.638 215.447 127.03 215.873 126.238 216.181C125.446 216.474 124.5 216.621 123.4 216.621ZM131.092 216.467V204.719H133.842V216.467H131.092ZM132.478 202.783C131.965 202.783 131.539 202.621 131.202 202.299C130.879 201.976 130.718 201.587 130.718 201.133C130.718 200.663 130.879 200.275 131.202 199.967C131.539 199.644 131.965 199.483 132.478 199.483C132.991 199.483 133.409 199.637 133.732 199.945C134.069 200.238 134.238 200.612 134.238 201.067C134.238 201.551 134.077 201.961 133.754 202.299C133.431 202.621 133.006 202.783 132.478 202.783ZM142.841 216.621C141.609 216.621 140.509 216.364 139.541 215.851C138.588 215.323 137.84 214.604 137.297 213.695C136.755 212.785 136.483 211.751 136.483 210.593C136.483 209.419 136.755 208.385 137.297 207.491C137.84 206.581 138.588 205.87 139.541 205.357C140.509 204.843 141.609 204.587 142.841 204.587C143.985 204.587 144.99 204.821 145.855 205.291C146.735 205.745 147.403 206.42 147.857 207.315L145.745 208.547C145.393 207.989 144.961 207.579 144.447 207.315C143.949 207.051 143.406 206.919 142.819 206.919C142.145 206.919 141.536 207.065 140.993 207.359C140.451 207.652 140.025 208.077 139.717 208.635C139.409 209.177 139.255 209.83 139.255 210.593C139.255 211.355 139.409 212.015 139.717 212.573C140.025 213.115 140.451 213.533 140.993 213.827C141.536 214.12 142.145 214.267 142.819 214.267C143.406 214.267 143.949 214.135 144.447 213.871C144.961 213.607 145.393 213.196 145.745 212.639L147.857 213.871C147.403 214.751 146.735 215.433 145.855 215.917C144.99 216.386 143.985 216.621 142.841 216.621ZM163.707 216.687C162.533 216.687 161.441 216.496 160.429 216.115C159.431 215.719 158.559 215.169 157.811 214.465C157.077 213.746 156.505 212.903 156.095 211.935C155.684 210.967 155.479 209.911 155.479 208.767C155.479 207.623 155.684 206.567 156.095 205.599C156.505 204.631 157.085 203.795 157.833 203.091C158.581 202.372 159.453 201.822 160.451 201.441C161.448 201.045 162.541 200.847 163.729 200.847C164.99 200.847 166.141 201.067 167.183 201.507C168.224 201.932 169.104 202.57 169.823 203.421L167.975 205.159C167.417 204.557 166.794 204.11 166.105 203.817C165.415 203.509 164.667 203.355 163.861 203.355C163.054 203.355 162.313 203.487 161.639 203.751C160.979 204.015 160.399 204.389 159.901 204.873C159.417 205.357 159.035 205.929 158.757 206.589C158.493 207.249 158.361 207.975 158.361 208.767C158.361 209.559 158.493 210.285 158.757 210.945C159.035 211.605 159.417 212.177 159.901 212.661C160.399 213.145 160.979 213.519 161.639 213.783C162.313 214.047 163.054 214.179 163.861 214.179C164.667 214.179 165.415 214.032 166.105 213.739C166.794 213.431 167.417 212.969 167.975 212.353L169.823 214.113C169.104 214.949 168.224 215.587 167.183 216.027C166.141 216.467 164.983 216.687 163.707 216.687ZM179.43 216.467V214.091L179.276 213.585V209.427C179.276 208.62 179.034 207.997 178.55 207.557C178.066 207.102 177.332 206.875 176.35 206.875C175.69 206.875 175.037 206.977 174.392 207.183C173.761 207.388 173.226 207.674 172.786 208.041L171.708 206.039C172.338 205.555 173.086 205.195 173.952 204.961C174.832 204.711 175.741 204.587 176.68 204.587C178.381 204.587 179.694 204.997 180.618 205.819C181.556 206.625 182.026 207.879 182.026 209.581V216.467H179.43ZM175.734 216.621C174.854 216.621 174.084 216.474 173.424 216.181C172.764 215.873 172.25 215.455 171.884 214.927C171.532 214.384 171.356 213.775 171.356 213.101C171.356 212.441 171.51 211.847 171.818 211.319C172.14 210.791 172.661 210.373 173.38 210.065C174.098 209.757 175.052 209.603 176.24 209.603H179.65V211.429H176.438C175.499 211.429 174.868 211.583 174.546 211.891C174.223 212.184 174.062 212.551 174.062 212.991C174.062 213.489 174.26 213.885 174.656 214.179C175.052 214.472 175.602 214.619 176.306 214.619C176.98 214.619 177.582 214.465 178.11 214.157C178.652 213.849 179.041 213.394 179.276 212.793L179.738 214.443C179.474 215.132 178.997 215.667 178.308 216.049C177.633 216.43 176.775 216.621 175.734 216.621ZM185.555 216.467V204.719H188.173V207.953L187.865 207.007C188.217 206.215 188.767 205.613 189.515 205.203C190.278 204.792 191.224 204.587 192.353 204.587V207.205C192.236 207.175 192.126 207.161 192.023 207.161C191.92 207.146 191.818 207.139 191.715 207.139C190.674 207.139 189.845 207.447 189.229 208.063C188.613 208.664 188.305 209.566 188.305 210.769V216.467H185.555ZM199.55 216.621C198.421 216.621 197.402 216.371 196.492 215.873C195.598 215.359 194.894 214.655 194.38 213.761C193.867 212.866 193.61 211.81 193.61 210.593C193.61 209.375 193.867 208.319 194.38 207.425C194.894 206.53 195.598 205.833 196.492 205.335C197.402 204.836 198.421 204.587 199.55 204.587C200.533 204.587 201.413 204.807 202.19 205.247C202.968 205.672 203.584 206.325 204.038 207.205C204.493 208.085 204.72 209.214 204.72 210.593C204.72 211.957 204.5 213.086 204.06 213.981C203.62 214.861 203.012 215.521 202.234 215.961C201.457 216.401 200.562 216.621 199.55 216.621ZM199.88 214.267C200.54 214.267 201.127 214.12 201.64 213.827C202.168 213.533 202.586 213.108 202.894 212.551C203.217 211.993 203.378 211.341 203.378 210.593C203.378 209.83 203.217 209.177 202.894 208.635C202.586 208.077 202.168 207.652 201.64 207.359C201.127 207.065 200.54 206.919 199.88 206.919C199.22 206.919 198.626 207.065 198.098 207.359C197.585 207.652 197.167 208.077 196.844 208.635C196.536 209.177 196.382 209.83 196.382 210.593C196.382 211.341 196.536 211.993 196.844 212.551C197.167 213.108 197.585 213.533 198.098 213.827C198.626 214.12 199.22 214.267 199.88 214.267ZM203.444 216.467V213.695L203.554 210.571L203.334 207.447V200.143H206.062V216.467H203.444Z" fill="white"/>
<rect x="4.19434" y="160.89" width="160.89" height="279.633" rx="20" transform="rotate(-90 4.19434 160.89)" fill="#D9D9D9"/>
<g clip-path="url(#clip0_300_1754)">
<mask id="mask0_300_1754" style="mask-type:luminance" maskUnits="userSpaceOnUse" x="0" y="0" width="381" height="242">
<path d="M381 242H0V0H381V242Z" fill="white"/>
</mask>
<g mask="url(#mask0_300_1754)">
<path d="M0 242H381V0H0V242Z" fill="black"/>
</g>
<path d="M121.6 166.353V176.193C121.6 176.721 121.616 177.265 121.648 177.825C121.696 178.369 121.816 178.865 122.008 179.313C122.216 179.761 122.536 180.129 122.968 180.417C123.4 180.689 124.008 180.825 124.792 180.825C125.576 180.825 126.176 180.689 126.592 180.417C127.024 180.129 127.344 179.761 127.552 179.313C127.76 178.865 127.88 178.369 127.912 177.825C127.96 177.265 127.984 176.721 127.984 176.193V166.353H132.664V176.841C132.664 179.657 132.016 181.713 130.72 183.009C129.44 184.305 127.464 184.953 124.792 184.953C122.12 184.953 120.136 184.305 118.84 183.009C117.544 181.713 116.896 179.657 116.896 176.841V166.353H121.6ZM136.466 184.449V166.353H141.17L149.858 177.417V166.353H154.538V184.449H149.858L141.17 173.385V184.449H136.466ZM163.038 166.353V184.449H158.334V166.353H163.038Z" fill="#F0A500"/>
<path d="M171.522 180.465H172.602C173.418 180.465 174.146 180.337 174.786 180.081C175.426 179.825 175.962 179.473 176.394 179.025C176.842 178.577 177.178 178.049 177.402 177.441C177.642 176.817 177.762 176.137 177.762 175.401C177.762 174.681 177.642 174.009 177.402 173.385C177.162 172.761 176.818 172.225 176.37 171.777C175.938 171.329 175.402 170.977 174.762 170.721C174.122 170.465 173.402 170.337 172.602 170.337H171.522V180.465ZM166.818 166.353H173.778C175.01 166.353 176.162 166.601 177.234 167.097C178.322 167.593 179.266 168.257 180.066 169.089C180.882 169.905 181.522 170.865 181.986 171.969C182.45 173.057 182.682 174.201 182.682 175.401C182.682 176.585 182.45 177.729 181.986 178.833C181.538 179.921 180.906 180.881 180.09 181.713C179.29 182.545 178.346 183.209 177.258 183.705C176.186 184.201 175.026 184.449 173.778 184.449H166.818V166.353ZM190.389 166.353V184.449H185.685V166.353H190.389ZM202.977 174.321H212.313C212.313 175.281 212.273 176.153 212.193 176.937C212.113 177.721 211.953 178.449 211.713 179.121C211.377 180.065 210.921 180.905 210.345 181.641C209.769 182.361 209.089 182.969 208.305 183.465C207.537 183.945 206.689 184.313 205.761 184.569C204.833 184.825 203.857 184.953 202.833 184.953C201.425 184.953 200.137 184.721 198.969 184.257C197.817 183.793 196.825 183.145 195.993 182.313C195.161 181.465 194.513 180.457 194.049 179.289C193.585 178.105 193.353 176.801 193.353 175.377C193.353 173.969 193.577 172.681 194.025 171.513C194.489 170.329 195.137 169.321 195.969 168.489C196.817 167.657 197.833 167.009 199.017 166.545C200.201 166.081 201.521 165.849 202.977 165.849C204.865 165.849 206.521 166.257 207.945 167.073C209.369 167.889 210.497 169.153 211.329 170.865L206.865 172.713C206.449 171.721 205.905 171.009 205.233 170.577C204.577 170.145 203.825 169.929 202.977 169.929C202.273 169.929 201.633 170.065 201.057 170.337C200.481 170.593 199.985 170.969 199.569 171.465C199.169 171.945 198.849 172.529 198.609 173.217C198.385 173.905 198.273 174.673 198.273 175.521C198.273 176.289 198.369 177.001 198.561 177.657C198.769 178.313 199.073 178.881 199.473 179.361C199.873 179.841 200.369 180.217 200.961 180.489C201.553 180.745 202.241 180.873 203.025 180.873C203.489 180.873 203.937 180.825 204.369 180.729C204.801 180.617 205.185 180.449 205.521 180.225C205.873 179.985 206.161 179.681 206.385 179.313C206.609 178.945 206.761 178.497 206.841 177.969H202.977V174.321ZM219.991 166.353V184.449H215.287V166.353H219.991ZM230.635 170.337V184.449H225.931V170.337H222.067V166.353L234.499 166.353V170.337L230.635 170.337ZM245.588 177.729L243.476 171.705L241.364 177.729H245.588ZM246.836 181.305H240.116L239.036 184.449H234.02L240.908 166.353H246.044L252.932 184.449H247.916L246.836 181.305ZM259.694 166.353V180.465H265.334V184.449H254.99V166.353H259.694Z" fill="white"/>
<path d="M200.188 118.184C200.114 118.269 199.998 118.342 199.883 118.41C200.043 118.288 200.205 118.165 200.188 118.184ZM204.045 111.495C204.037 111.623 204.024 111.751 203.99 111.865C203.973 111.919 204.009 111.706 204.045 111.495ZM172.581 122.249C175.271 125.253 179.177 127.302 183.141 128.343C191.199 130.46 200.761 128.847 206.829 123.157C209.909 120.27 211.723 116.49 212.299 112.482C212.429 112.103 212.5 111.697 212.5 111.269V105.888C212.5 103.804 210.573 101.808 208.311 101.905C206.041 102.001 204.122 103.655 204.122 105.888V109.761C204.119 110.235 204.103 110.708 204.063 111.18C204.057 111.247 204.054 111.318 204.05 111.39C204.037 111.472 204.025 111.555 204.01 111.637C203.864 112.422 203.653 113.195 203.377 113.948C203.374 113.962 203.352 114.025 203.321 114.106C203.319 114.11 203.318 114.114 203.317 114.118C203.314 114.125 203.311 114.132 203.308 114.139C203.291 114.183 203.271 114.231 203.251 114.278C203.194 114.417 203.134 114.555 203.081 114.696C203.119 114.595 203.152 114.508 203.182 114.431C203.18 114.435 203.178 114.438 203.176 114.442C202.994 114.804 202.795 115.158 202.58 115.503C202.372 115.838 202.143 116.158 201.912 116.478C201.84 116.561 201.768 116.644 201.693 116.726C201.156 117.313 200.568 117.857 199.941 118.354C199.9 118.386 199.859 118.418 199.818 118.45C199.773 118.476 199.729 118.502 199.691 118.528C199.334 118.765 198.967 118.989 198.591 119.2C198.258 119.387 197.919 119.564 197.574 119.73C197.389 119.819 197.203 119.905 197.016 119.988C197.002 119.993 196.99 119.999 196.977 120.004C196.279 120.256 195.578 120.492 194.855 120.68C194.103 120.875 193.342 121.019 192.574 121.142C192.431 121.156 192.287 121.172 192.143 121.184C191.693 121.222 191.241 121.246 190.789 121.259C189.937 121.281 189.084 121.259 188.235 121.19C188.07 121.177 187.905 121.16 187.74 121.144C187.384 121.088 187.028 121.032 186.674 120.961C185.851 120.797 185.037 120.588 184.24 120.331C183.945 120.235 183.655 120.128 183.364 120.022C183.174 119.936 182.983 119.853 182.794 119.763C182.059 119.412 181.348 119.014 180.671 118.569C180.574 118.506 180.48 118.44 180.385 118.374C180.082 118.135 179.787 117.886 179.504 117.625C179.204 117.349 178.918 117.06 178.643 116.762C178.652 116.775 178.627 116.748 178.584 116.7C178.575 116.69 178.565 116.68 178.556 116.671C178.405 116.504 178.265 116.329 178.116 116.161C178.213 116.27 178.29 116.357 178.357 116.433C178.324 116.392 178.293 116.351 178.267 116.315C178 115.948 177.752 115.569 177.523 115.179C177.408 114.981 177.297 114.781 177.193 114.578C177.163 114.521 177.102 114.393 177.046 114.276C177.019 114.21 176.995 114.152 176.982 114.118C176.898 113.896 176.819 113.673 176.747 113.447C176.597 112.985 176.472 112.516 176.371 112.042C176.331 111.859 176.299 111.674 176.266 111.49C176.264 111.473 176.262 111.458 176.26 111.439C176.204 110.881 176.18 110.321 176.177 109.761V105.888C176.177 103.804 174.25 101.808 171.988 101.905C169.718 102.001 167.799 103.655 167.799 105.888V111.269C167.799 111.66 167.867 112.049 167.992 112.421C168.504 116.044 170.034 119.406 172.581 122.249Z" fill="#F0A500"/>
<path d="M176.943 134.243C176.714 134.166 176.486 134.084 176.284 133.975C176.248 133.956 176.767 134.171 176.943 134.243ZM177.549 142.847C184.877 144.959 192.835 145.115 200.282 143.474C207.641 141.852 214.693 138.227 219.844 132.932C225.796 126.812 228.924 118.979 229.601 110.729C229.689 109.659 229.728 108.585 229.731 107.512V100.578C229.731 98.4943 227.804 96.4978 225.542 96.5941C223.272 96.6907 221.352 98.3446 221.352 100.578V107.512C221.35 108.555 221.313 109.597 221.23 110.637C221.191 111.124 221.143 111.611 221.085 112.096C221.06 112.306 221.03 112.514 221.004 112.724C221.182 111.25 221.052 112.366 220.992 112.723C220.684 114.547 220.229 116.349 219.614 118.102C219.469 118.515 219.315 118.926 219.152 119.334C219.082 119.51 219.01 119.686 218.936 119.861C218.936 119.863 218.935 119.865 218.934 119.866C218.575 120.609 218.214 121.346 217.805 122.065C217.381 122.812 216.923 123.541 216.434 124.251C216.199 124.591 215.958 124.925 215.709 125.255C215.608 125.39 215.503 125.523 215.4 125.657C214.352 126.892 213.219 128.054 211.983 129.123C211.677 129.387 211.365 129.646 211.049 129.899C210.741 130.145 209.531 131.001 210.579 130.27C209.972 130.694 209.367 131.116 208.736 131.508C207.316 132.391 205.827 133.171 204.287 133.846C203.901 134.016 202.449 134.558 204.016 133.975C203.632 134.118 203.253 134.27 202.867 134.408C202.071 134.693 201.265 134.952 200.45 135.185C198.841 135.645 197.2 136.004 195.542 136.262C195.365 136.29 195.188 136.316 195.011 136.341C194.66 136.381 194.309 136.42 193.958 136.451C193.105 136.528 192.251 136.579 191.395 136.604C189.71 136.653 188.021 136.602 186.342 136.451C186.002 136.421 185.661 136.383 185.321 136.345C185.133 136.318 184.946 136.292 184.758 136.262C183.916 136.131 183.077 135.974 182.246 135.791C180.612 135.43 179.002 134.97 177.433 134.408C177.282 134.353 177.122 134.302 176.962 134.249C176.939 134.239 176.908 134.226 176.858 134.205C176.765 134.165 176.67 134.127 176.576 134.088C176.364 133.999 176.153 133.908 175.943 133.816C175.174 133.476 174.417 133.111 173.676 132.719C172.957 132.34 172.253 131.936 171.564 131.508C171.22 131.294 170.88 131.073 170.544 130.848C170.376 130.734 170.209 130.62 170.044 130.504C170.002 130.474 169.921 130.417 169.838 130.357C169.82 130.343 169.803 130.33 169.789 130.32C169.628 130.197 169.469 130.072 169.31 129.946C168.954 129.663 168.603 129.371 168.26 129.073C167.646 128.54 167.054 127.984 166.487 127.406C165.934 126.844 165.412 126.259 164.904 125.661C164.815 125.547 164.725 125.432 164.638 125.317C164.357 124.946 164.085 124.57 163.822 124.187C162.871 122.801 162.084 121.344 161.357 119.843C161.296 119.699 161.236 119.554 161.178 119.41C160.993 118.951 160.82 118.489 160.658 118.024C160.364 117.175 160.106 116.315 159.884 115.446C159.646 114.518 159.451 113.58 159.294 112.636C159.283 112.571 159.256 112.389 159.233 112.241C159.23 112.22 159.228 112.201 159.226 112.186C159.159 111.64 159.105 111.093 159.063 110.545C158.985 109.535 158.95 108.524 158.948 107.512V100.578C158.948 98.4943 157.021 96.4978 154.758 96.5941C152.489 96.6907 150.569 98.3446 150.569 100.578V107.512C150.59 116.073 153.195 124.291 158.774 131.051C163.484 136.759 170.292 140.756 177.549 142.847Z" fill="#F0A500"/>
<path d="M246.776 97.0499C246.776 94.9662 244.849 92.9697 242.587 93.066C240.317 93.1626 238.398 94.8165 238.398 97.0499V105.195L238.397 105.195C238.395 106.8 238.337 108.404 238.211 110.005C238.152 110.747 238.08 111.488 237.992 112.228C237.949 112.591 237.898 112.954 237.852 113.318C238.05 111.754 237.846 113.318 237.784 113.691C237.321 116.481 236.637 119.239 235.71 121.922C235.511 122.499 235.3 123.073 235.078 123.643C234.959 123.95 234.836 124.256 234.709 124.561C234.564 124.913 233.931 126.223 234.614 124.812C234.028 126.022 233.467 127.233 232.81 128.411C231.625 130.533 230.24 132.511 228.755 134.447C228.656 134.572 228.547 134.708 228.479 134.788C228.28 135.022 228.078 135.254 227.874 135.485C227.468 135.944 227.052 136.395 226.626 136.838C225.746 137.754 224.827 138.635 223.871 139.478C223.065 140.189 222.231 140.872 221.376 141.529C221.376 141.534 221.173 141.694 221.035 141.792C221.022 141.802 221.008 141.811 220.994 141.821C220.889 141.899 220.782 141.977 220.678 142.057C220.75 142.001 220.816 141.951 220.876 141.905C220.681 142.043 220.487 142.182 220.291 142.318C219.75 142.692 219.202 143.055 218.645 143.408C216.555 144.735 214.358 145.911 212.085 146.931C211.572 147.161 211.054 147.378 210.536 147.595C210.494 147.612 210.452 147.628 210.41 147.644C210.078 147.773 209.744 147.898 209.409 148.02C208.259 148.439 207.094 148.82 205.917 149.164C203.51 149.867 201.053 150.415 198.57 150.807C198.265 150.855 197.96 150.901 197.655 150.944C197.6 150.952 197.527 150.961 197.448 150.97C197.523 150.963 197.606 150.953 197.698 150.944C197.033 151.014 196.37 151.098 195.704 151.158C194.474 151.27 193.239 151.344 192.004 151.381C189.482 151.457 186.954 151.378 184.443 151.144C183.828 151.087 183.216 151.009 182.602 150.944C182.694 150.953 182.776 150.963 182.852 150.97C182.774 150.961 182.701 150.952 182.645 150.944C182.289 150.893 181.933 150.839 181.578 150.782C180.362 150.587 179.152 150.355 177.951 150.085C175.503 149.535 173.094 148.829 170.748 147.968C170.461 147.862 170.175 147.754 169.89 147.644C169.849 147.629 169.808 147.613 169.768 147.597C169.201 147.359 168.635 147.121 168.076 146.868C166.942 146.355 165.827 145.804 164.735 145.214C163.641 144.623 162.571 143.994 161.527 143.327C161.014 143 160.509 142.663 160.009 142.318C159.813 142.182 159.619 142.043 159.425 141.905C159.484 141.951 159.549 142.001 159.622 142.057C159.524 141.981 159.423 141.908 159.323 141.833C159.304 141.82 159.285 141.806 159.265 141.792C159.131 141.697 158.934 141.541 158.925 141.529C157.013 140.062 155.219 138.457 153.568 136.727C153.179 136.32 152.799 135.906 152.426 135.485C152.222 135.254 152.02 135.022 151.821 134.788C151.739 134.692 151.659 134.595 151.578 134.499C150.814 133.524 150.075 132.534 149.388 131.508C148.683 130.456 148.024 129.376 147.413 128.272C147.102 127.71 146.804 127.143 146.518 126.57C146.373 126.28 146.232 125.99 146.094 125.698C146.005 125.509 145.806 125.027 145.738 124.862C144.806 122.497 143.946 120.141 143.335 117.671C142.995 116.296 142.714 114.909 142.487 113.514C142.429 113.157 142.253 111.781 142.448 113.318C142.402 112.954 142.351 112.591 142.308 112.228C142.213 111.426 142.136 110.622 142.075 109.817C141.958 108.279 141.905 106.737 141.903 105.195L141.903 97.0499C141.903 94.9662 139.976 92.9697 137.714 93.066C135.444 93.1626 133.524 94.8165 133.524 97.0499V107.511C133.524 107.75 133.551 107.988 133.599 108.222C133.848 113.554 134.744 118.897 136.484 123.961C138.309 129.274 140.973 134.343 144.552 138.784C148.135 143.23 152.342 147.03 157.234 150.166C161.755 153.064 166.807 155.269 172.009 156.804C177.239 158.348 182.749 159.175 188.219 159.347C193.696 159.518 199.245 158.967 204.577 157.768C209.902 156.571 215.107 154.635 219.861 152.058C224.619 149.478 229.034 146.171 232.709 142.306C236.817 137.986 239.977 133.093 242.337 127.733C244.829 122.073 246.124 116.018 246.596 109.911C246.638 109.367 246.67 108.823 246.697 108.279C246.748 108.032 246.776 107.776 246.776 107.511V97.0499Z" fill="#F0A500"/>
<path d="M192.352 53.1271C205.645 53.4862 218.051 59.5294 227.081 71.6534C227.59 72.3363 228.165 73.007 228.326 73.874C228.599 75.3434 227.913 76.6363 226.552 77.2299C225.142 77.8442 223.561 77.5027 222.622 76.2702C221.605 74.9343 220.655 73.5539 219.546 72.2793C203.339 53.6587 172.319 55.2025 158.243 75.3358C158.095 75.547 157.954 75.7629 157.802 75.9708C156.622 77.5744 154.718 77.9905 153.162 76.9872C151.684 76.0339 151.351 74.1858 152.436 72.6006C156.494 66.6772 161.72 61.921 168.228 58.4789C174.936 54.9309 182.447 53.11 192.352 53.1271Z" fill="white"/>
<path d="M190.057 66.9218C201.761 67.2419 211.019 71.8679 217.609 81.1567C218.582 82.5276 218.523 83.9595 217.555 85.0278C216.597 86.0838 214.993 86.392 213.659 85.7866C212.94 85.4604 212.518 84.8689 212.089 84.2705C204.308 73.408 189.894 69.9082 177.627 75.9365C173.506 77.9617 170.236 80.9073 167.708 84.6037C166.93 85.7417 165.816 86.2716 164.4 86.0414C163.108 85.8317 162.235 85.0945 161.86 83.8815C161.547 82.8697 161.846 81.9761 162.446 81.1213C167.534 73.8623 174.564 69.329 183.539 67.5401C185.677 67.1139 187.849 66.9133 190.057 66.9218Z" fill="white"/>
<path d="M190.172 81.1288C197.189 81.2611 202.774 84.0011 206.835 89.4712C208.155 91.2486 207.908 93.1402 206.305 94.1505C204.667 95.1828 202.841 94.7014 201.523 92.8902C196.171 85.5315 184.942 85.2663 179.212 92.3647C178.995 92.6329 178.804 92.9192 178.595 93.1927C177.424 94.7252 175.574 95.1157 174.045 94.1554C172.528 93.203 172.172 91.3806 173.277 89.8002C176.352 85.4001 180.61 82.6213 186.052 81.5138C187.406 81.2385 188.779 81.1233 190.172 81.1288Z" fill="white"/>
<path d="M355.775 219.456C355.645 219.393 355.479 219.268 355.407 219.177C355.336 219.087 355.249 218.914 355.215 218.792C355.181 218.671 355.17 218.505 355.19 218.425C355.211 218.345 355.333 218.041 355.462 217.751C355.592 217.46 355.811 216.889 355.949 216.481C356.087 216.073 356.263 215.456 356.339 215.111C356.416 214.765 356.519 214.179 356.569 213.809C356.626 213.385 356.659 212.746 356.659 212.085C356.659 211.432 356.625 210.785 356.57 210.374C356.522 210.01 356.432 209.479 356.371 209.193C356.31 208.907 356.183 208.414 356.09 208.096C355.996 207.779 355.755 207.129 355.553 206.653C355.282 206.011 355.188 205.724 355.19 205.546C355.191 205.39 355.236 205.237 355.317 205.112C355.387 205.005 355.529 204.856 355.635 204.779C355.771 204.681 355.914 204.633 356.124 204.617C356.287 204.604 356.485 204.608 356.563 204.627C356.641 204.646 356.801 204.744 356.919 204.845C357.074 204.979 357.203 205.181 357.388 205.581C357.527 205.885 357.739 206.403 357.859 206.731C357.978 207.06 358.161 207.655 358.266 208.054C358.372 208.452 358.509 209.074 358.572 209.435C358.635 209.795 358.711 210.374 358.742 210.721C358.773 211.067 358.798 211.681 358.798 212.085C358.798 212.489 358.773 213.103 358.742 213.45C358.711 213.796 358.635 214.375 358.572 214.736C358.51 215.097 358.364 215.746 358.248 216.179C358.132 216.612 357.921 217.274 357.778 217.649C357.635 218.024 357.415 218.531 357.289 218.776C357.135 219.077 356.993 219.271 356.853 219.376C356.69 219.498 356.577 219.536 356.329 219.551C356.084 219.566 355.958 219.544 355.775 219.456ZM352.308 218.041C352.214 218.013 352.024 217.876 351.885 217.735C351.686 217.532 351.625 217.426 351.594 217.227C351.56 217.011 351.579 216.92 351.733 216.578C351.831 216.358 352.02 215.883 352.152 215.52C352.284 215.158 352.454 214.568 352.531 214.208C352.607 213.849 352.698 213.216 352.732 212.803C352.777 212.245 352.777 211.864 352.731 211.333C352.697 210.938 352.608 210.326 352.533 209.972C352.457 209.618 352.319 209.099 352.224 208.818C352.13 208.538 351.959 208.102 351.843 207.849C351.728 207.597 351.617 207.316 351.596 207.226C351.575 207.136 351.589 206.958 351.626 206.83C351.668 206.688 351.779 206.519 351.911 206.393C352.03 206.279 352.216 206.159 352.324 206.125C352.432 206.091 352.632 206.075 352.769 206.09C352.917 206.106 353.108 206.177 353.245 206.268C353.404 206.374 353.528 206.524 353.653 206.764C353.752 206.953 353.933 207.36 354.055 207.669C354.178 207.979 354.362 208.544 354.464 208.925C354.567 209.306 354.695 209.89 354.751 210.222C354.828 210.687 354.929 210.989 354.928 211.98C354.926 213.077 354.829 213.501 354.721 214.103C354.651 214.491 354.512 215.093 354.411 215.441C354.31 215.789 354.126 216.322 354.002 216.625C353.878 216.928 353.708 217.306 353.624 217.463C353.527 217.646 353.388 217.806 353.242 217.904C353.082 218.01 352.931 218.062 352.746 218.074C352.6 218.083 352.403 218.069 352.308 218.041ZM348.561 216.158C348.47 216.137 348.341 216.091 348.274 216.057C348.208 216.023 347.599 215.588 346.922 215.091C346.245 214.595 345.195 213.823 344.588 213.377C343.98 212.931 343.281 212.441 343.034 212.287C342.786 212.133 342.544 212.006 342.496 212.006C342.423 212.006 342.408 212.073 342.408 212.387C342.408 212.596 342.47 213.05 342.546 213.396C342.622 213.742 342.683 214.189 342.683 214.39C342.683 214.653 342.651 214.818 342.568 214.981C342.505 215.106 342.38 215.257 342.29 215.318C342.2 215.379 342.033 215.441 341.918 215.455C341.772 215.474 341.642 215.449 341.486 215.374C341.363 215.314 341.16 215.155 341.036 215.021C340.912 214.887 340.761 214.651 340.7 214.496C340.639 214.341 340.533 213.971 340.465 213.674C340.357 213.205 340.282 212.966 340.283 211.961C340.284 210.964 340.36 210.751 340.468 210.274C340.536 209.971 340.655 209.593 340.731 209.435C340.806 209.276 340.923 209.091 340.99 209.023C341.056 208.955 341.178 208.867 341.26 208.826C341.342 208.785 341.481 208.752 341.569 208.752C341.658 208.752 341.824 208.813 341.939 208.887C342.053 208.961 342.808 209.511 343.616 210.11C344.423 210.708 345.68 211.635 346.409 212.17C347.137 212.705 347.812 213.198 347.909 213.264C348.005 213.331 348.12 213.372 348.164 213.356C348.212 213.339 348.267 213.194 348.303 212.995C348.336 212.812 348.376 212.529 348.393 212.365C348.409 212.202 348.397 211.829 348.366 211.536C348.334 211.243 348.249 210.786 348.176 210.521C348.103 210.255 347.966 209.861 347.872 209.645C347.778 209.428 347.674 209.098 347.641 208.91C347.596 208.654 347.597 208.511 347.647 208.341C347.683 208.216 347.793 208.03 347.892 207.928C348.042 207.772 348.118 207.737 348.357 207.715C348.525 207.7 348.712 207.717 348.81 207.755C348.902 207.791 349.1 207.949 349.251 208.106C349.402 208.263 349.61 208.562 349.714 208.77C349.818 208.978 349.99 209.396 350.096 209.698C350.202 210.001 350.334 210.449 350.39 210.694C350.47 211.042 350.551 211.365 350.551 212.164C350.551 212.963 350.47 213.285 350.39 213.634C350.334 213.879 350.227 214.266 350.151 214.493C350.076 214.721 349.928 215.087 349.823 215.307C349.718 215.526 349.577 215.762 349.51 215.83C349.444 215.898 349.326 215.996 349.249 216.049C349.172 216.101 349.023 216.156 348.918 216.171C348.813 216.186 348.652 216.18 348.561 216.158Z" fill="#F0A500"/>
</g>
<rect x="380.5" y="241.5" width="380" height="241" rx="15.5" transform="rotate(180 380.5 241.5)" stroke="black"/>
<defs>
<clipPath id="clip0_300_1754">
<rect x="381" y="242" width="381" height="242" rx="16" transform="rotate(180 381 242)" fill="white"/>
</clipPath>
</defs>
</svg>
