<svg width="381" height="242" viewBox="0 0 381 242" fill="none" xmlns="http://www.w3.org/2000/svg">
<g clip-path="url(#clip0_308_1986)">
<mask id="mask0_308_1986" style="mask-type:luminance" maskUnits="userSpaceOnUse" x="0" y="0" width="381" height="242">
<path d="M0 0H381V242H0V0Z" fill="white"/>
</mask>
<g mask="url(#mask0_308_1986)">
<path d="M381 0H0V242H381V0Z" fill="url(#paint0_linear_308_1986)"/>
<path d="M381 0H0V242H381V0Z" fill="url(#paint1_linear_308_1986)"/>
</g>
<path d="M202.252 121.762C202.168 121.858 202.036 121.942 201.906 122.019C202.087 121.88 202.27 121.741 202.252 121.762ZM206.632 114.165C206.623 114.31 206.609 114.456 206.57 114.585C206.551 114.647 206.592 114.404 206.632 114.165ZM170.896 126.38C173.951 129.791 178.387 132.118 182.889 133.301C192.042 135.706 202.902 133.874 209.795 127.411C213.292 124.131 215.354 119.838 216.007 115.286C216.155 114.856 216.236 114.394 216.236 113.908V107.797C216.236 105.43 214.047 103.162 211.478 103.272C208.9 103.382 206.719 105.26 206.719 107.797V112.195C206.717 112.733 206.698 113.271 206.652 113.808C206.646 113.883 206.643 113.964 206.639 114.045C206.624 114.139 206.609 114.233 206.592 114.326C206.427 115.217 206.187 116.096 205.874 116.951C205.87 116.967 205.845 117.038 205.81 117.13C205.808 117.135 205.807 117.139 205.805 117.144C205.802 117.152 205.799 117.159 205.795 117.167C205.776 117.218 205.753 117.272 205.731 117.326C205.665 117.484 205.598 117.641 205.538 117.8C205.581 117.686 205.618 117.587 205.652 117.499C205.65 117.503 205.648 117.508 205.646 117.512C205.438 117.923 205.212 118.325 204.968 118.717C204.732 119.097 204.473 119.461 204.21 119.824C204.128 119.919 204.046 120.014 203.961 120.106C203.351 120.773 202.684 121.39 201.971 121.956C201.925 121.992 201.878 122.028 201.831 122.064C201.78 122.094 201.731 122.124 201.688 122.152C201.282 122.422 200.864 122.677 200.438 122.916C200.06 123.128 199.674 123.329 199.283 123.518C199.073 123.619 198.861 123.716 198.648 123.811C198.633 123.817 198.619 123.823 198.605 123.829C197.811 124.116 197.015 124.384 196.194 124.597C195.34 124.818 194.476 124.982 193.603 125.122C193.441 125.138 193.278 125.156 193.114 125.169C192.603 125.212 192.089 125.24 191.576 125.254C190.608 125.28 189.64 125.254 188.676 125.177C188.488 125.161 188.3 125.142 188.113 125.124C187.708 125.06 187.305 124.997 186.903 124.917C185.967 124.73 185.043 124.492 184.138 124.2C183.803 124.092 183.473 123.97 183.143 123.85C182.927 123.752 182.71 123.657 182.496 123.555C181.66 123.157 180.853 122.705 180.084 122.199C179.974 122.127 179.867 122.053 179.759 121.978C179.415 121.706 179.08 121.423 178.759 121.127C178.418 120.814 178.093 120.486 177.78 120.147C177.791 120.161 177.762 120.131 177.713 120.076C177.703 120.065 177.692 120.054 177.682 120.043C177.51 119.854 177.352 119.655 177.182 119.465C177.292 119.588 177.38 119.687 177.456 119.773C177.419 119.726 177.383 119.68 177.353 119.64C177.05 119.223 176.768 118.792 176.509 118.349C176.378 118.124 176.252 117.897 176.133 117.667C176.1 117.602 176.031 117.457 175.967 117.323C175.936 117.249 175.909 117.183 175.895 117.144C175.799 116.892 175.71 116.638 175.627 116.382C175.457 115.857 175.315 115.324 175.2 114.786C175.155 114.578 175.118 114.368 175.08 114.159C175.079 114.14 175.077 114.122 175.075 114.101C175.011 113.467 174.984 112.832 174.98 112.195V107.797C174.98 105.43 172.792 103.162 170.222 103.272C167.644 103.382 165.464 105.26 165.464 107.797V113.908C165.464 114.353 165.541 114.794 165.684 115.216C166.265 119.331 168.003 123.15 170.896 126.38Z" fill="#449DD1"/>
<path d="M175.849 140C175.589 139.912 175.33 139.819 175.101 139.696C175.06 139.674 175.649 139.918 175.849 140ZM176.537 149.773C184.86 152.171 193.899 152.348 202.357 150.484C210.716 148.642 218.726 144.525 224.576 138.51C231.336 131.56 234.889 122.663 235.658 113.293C235.758 112.077 235.803 110.858 235.805 109.639V101.763C235.805 99.3965 233.617 97.1288 231.047 97.2382C228.469 97.348 226.289 99.2265 226.289 101.763V109.639C226.287 110.823 226.244 112.007 226.15 113.188C226.106 113.742 226.051 114.294 225.985 114.846C225.957 115.083 225.922 115.321 225.894 115.558C226.096 113.885 225.948 115.152 225.88 115.558C225.53 117.63 225.013 119.676 224.315 121.667C224.15 122.136 223.975 122.603 223.79 123.066C223.711 123.266 223.629 123.466 223.545 123.665C223.544 123.667 223.543 123.669 223.542 123.671C223.135 124.514 222.724 125.351 222.26 126.168C221.779 127.017 221.258 127.845 220.702 128.651C220.436 129.037 220.162 129.417 219.879 129.792C219.764 129.945 219.646 130.095 219.529 130.248C218.338 131.65 217.051 132.971 215.647 134.184C215.3 134.485 214.946 134.779 214.586 135.066C214.236 135.346 212.862 136.317 214.053 135.488C213.364 135.969 212.676 136.448 211.959 136.893C210.347 137.896 208.655 138.782 206.906 139.55C206.467 139.742 204.818 140.358 206.598 139.696C206.163 139.858 205.731 140.03 205.293 140.187C204.389 140.511 203.474 140.805 202.549 141.07C200.721 141.592 198.857 142 196.973 142.294C196.773 142.325 196.572 142.354 196.37 142.383C195.972 142.428 195.574 142.472 195.174 142.508C194.206 142.595 193.235 142.653 192.264 142.681C190.349 142.738 188.431 142.68 186.525 142.508C186.138 142.473 185.751 142.431 185.365 142.387C185.152 142.357 184.938 142.327 184.725 142.294C183.768 142.144 182.816 141.966 181.872 141.758C180.016 141.349 178.188 140.826 176.405 140.187C176.234 140.125 176.052 140.067 175.871 140.007C175.845 139.996 175.81 139.981 175.753 139.957C175.646 139.912 175.538 139.868 175.432 139.824C175.191 139.723 174.951 139.619 174.713 139.515C173.839 139.129 172.98 138.714 172.138 138.269C171.322 137.838 170.521 137.38 169.74 136.893C169.349 136.65 168.962 136.4 168.581 136.143C168.39 136.015 168.201 135.885 168.012 135.753C167.965 135.72 167.874 135.654 167.779 135.586C167.758 135.57 167.739 135.555 167.724 135.544C167.541 135.404 167.36 135.263 167.18 135.12C166.775 134.798 166.377 134.467 165.987 134.128C165.289 133.522 164.617 132.891 163.972 132.235C163.345 131.596 162.752 130.931 162.175 130.253C162.074 130.123 161.972 129.993 161.872 129.862C161.553 129.441 161.245 129.013 160.946 128.579C159.866 127.004 158.972 125.349 158.146 123.644C158.077 123.48 158.009 123.316 157.943 123.152C157.733 122.632 157.537 122.107 157.353 121.578C157.018 120.614 156.725 119.637 156.473 118.651C156.203 117.596 155.981 116.53 155.803 115.458C155.791 115.385 155.759 115.178 155.734 115.01C155.731 114.986 155.728 114.964 155.726 114.948C155.65 114.328 155.588 113.706 155.54 113.083C155.452 111.937 155.413 110.788 155.41 109.639V101.763C155.41 99.3965 153.221 97.1288 150.652 97.2382C148.074 97.348 145.894 99.2265 145.894 101.763V109.639C145.916 119.363 148.876 128.696 155.212 136.374C160.562 142.857 168.295 147.397 176.537 149.773Z" fill="#449DD1"/>
<path d="M255.165 97.7566C255.165 95.3899 252.977 93.1222 250.407 93.2316C247.83 93.3414 245.649 95.2199 245.649 97.7566V107.007L245.649 107.008C245.646 108.831 245.581 110.653 245.437 112.471C245.371 113.314 245.288 114.155 245.189 114.995C245.14 115.409 245.082 115.821 245.03 116.234C245.255 114.457 245.023 116.234 244.952 116.658C244.427 119.827 243.65 122.959 242.597 126.007C242.37 126.662 242.131 127.313 241.879 127.961C241.744 128.31 241.604 128.657 241.46 129.003C241.295 129.403 240.576 130.891 241.352 129.289C240.687 130.663 240.049 132.039 239.303 133.376C237.957 135.787 236.384 138.033 234.698 140.232C234.585 140.374 234.461 140.528 234.384 140.619C234.158 140.885 233.929 141.149 233.697 141.411C233.235 141.932 232.762 142.445 232.279 142.948C231.28 143.989 230.236 144.989 229.15 145.947C228.234 146.755 227.288 147.53 226.316 148.276C226.316 148.282 226.085 148.464 225.929 148.575C225.914 148.586 225.898 148.597 225.883 148.607C225.763 148.697 225.642 148.785 225.523 148.876C225.606 148.812 225.68 148.755 225.748 148.703C225.527 148.86 225.306 149.018 225.084 149.172C224.469 149.597 223.846 150.01 223.215 150.411C220.84 151.918 218.345 153.253 215.763 154.411C215.181 154.672 214.593 154.919 214.004 155.166C213.956 155.185 213.909 155.204 213.861 155.222C213.484 155.368 213.104 155.51 212.724 155.649C211.418 156.124 210.095 156.557 208.758 156.948C206.024 157.747 203.234 158.368 200.413 158.814C200.067 158.868 199.721 158.92 199.374 158.969C199.311 158.979 199.228 158.989 199.138 159C199.224 158.991 199.318 158.98 199.423 158.97C198.668 159.049 197.915 159.144 197.158 159.213C195.76 159.34 194.359 159.424 192.956 159.466C190.091 159.553 187.22 159.463 184.367 159.196C183.669 159.132 182.974 159.043 182.276 158.97C182.382 158.98 182.475 158.991 182.561 159C182.472 158.989 182.389 158.979 182.326 158.969C181.921 158.912 181.517 158.851 181.114 158.786C179.732 158.564 178.358 158.301 176.994 157.994C174.214 157.369 171.478 156.568 168.813 155.589C168.487 155.47 168.162 155.347 167.838 155.222C167.792 155.204 167.746 155.186 167.699 155.168C167.056 154.898 166.413 154.627 165.778 154.34C164.49 153.758 163.224 153.131 161.983 152.461C160.741 151.79 159.525 151.075 158.339 150.318C157.757 149.946 157.183 149.564 156.616 149.172C156.393 149.018 156.172 148.86 155.952 148.703C156.019 148.755 156.093 148.812 156.176 148.876C156.064 148.79 155.95 148.706 155.837 148.622C155.815 148.606 155.793 148.591 155.77 148.575C155.618 148.467 155.394 148.29 155.384 148.276C153.213 146.61 151.175 144.787 149.3 142.822C148.858 142.36 148.426 141.889 148.003 141.411C147.771 141.149 147.542 140.885 147.315 140.619C147.223 140.51 147.132 140.401 147.04 140.292C146.172 139.184 145.332 138.06 144.552 136.894C143.751 135.699 143.003 134.472 142.309 133.218C141.956 132.581 141.617 131.936 141.292 131.285C141.128 130.957 140.967 130.627 140.81 130.295C140.709 130.081 140.484 129.534 140.407 129.346C139.348 126.66 138.371 123.984 137.677 121.178C137.291 119.617 136.971 118.041 136.714 116.456C136.648 116.052 136.448 114.488 136.67 116.234C136.617 115.821 136.56 115.409 136.511 114.995C136.403 114.085 136.315 113.172 136.246 112.258C136.114 110.51 136.053 108.759 136.05 107.008V97.7566C136.05 95.3899 133.862 93.1222 131.292 93.2316C128.714 93.3414 126.534 95.2199 126.534 97.7566V109.638C126.534 109.91 126.564 110.18 126.619 110.446C126.901 116.502 127.92 122.571 129.896 128.322C131.968 134.357 134.995 140.114 139.059 145.158C143.129 150.208 147.908 154.524 153.464 158.086C158.598 161.377 164.337 163.882 170.245 165.626C176.185 167.379 182.443 168.319 188.656 168.514C194.877 168.708 201.179 168.082 207.236 166.721C213.284 165.361 219.196 163.162 224.596 160.235C229.999 157.305 235.014 153.549 239.188 149.159C243.855 144.252 247.444 138.695 250.124 132.606C252.954 126.178 254.425 119.301 254.961 112.364C255.009 111.747 255.045 111.129 255.075 110.51C255.134 110.23 255.165 109.939 255.165 109.638V97.7566Z" fill="#449DD1"/>
<path d="M193.351 47.8683C208.449 48.2762 222.54 55.1401 232.796 68.9105C233.374 69.6861 234.028 70.4479 234.211 71.4327C234.521 73.1017 233.741 74.5702 232.195 75.2443C230.594 75.942 228.798 75.5542 227.732 74.1543C226.576 72.637 225.497 71.0691 224.237 69.6214C205.829 48.4722 170.597 50.2256 154.61 73.093C154.442 73.333 154.282 73.5781 154.108 73.8143C152.768 75.6356 150.606 76.1082 148.839 74.9687C147.159 73.8859 146.781 71.7869 148.014 69.9864C152.623 63.2585 158.559 57.8565 165.951 53.9469C173.57 49.9171 182.1 47.8489 193.351 47.8683Z" fill="#F5E5F1"/>
<path d="M190.744 63.5374C204.038 63.901 214.553 69.1551 222.038 79.7054C223.143 81.2625 223.076 82.8889 221.976 84.1022C220.889 85.3016 219.066 85.6517 217.551 84.964C216.735 84.5935 216.256 83.9218 215.769 83.2421C206.93 70.9045 190.559 66.9294 176.626 73.7763C171.946 76.0765 168.232 79.4221 165.36 83.6205C164.476 84.9131 163.211 85.5149 161.603 85.2535C160.136 85.0153 159.144 84.178 158.718 82.8002C158.362 81.651 158.703 80.6361 159.383 79.6652C165.162 71.4204 173.147 66.2715 183.341 64.2396C185.769 63.7556 188.237 63.5277 190.744 63.5374Z" fill="#F5E5F1"/>
<path d="M190.876 79.6748C198.845 79.8251 205.189 82.9373 209.801 89.1503C211.301 91.169 211.02 93.3175 209.199 94.465C207.339 95.6375 205.265 95.0907 203.768 93.0336C197.689 84.6755 184.935 84.3743 178.426 92.4366C178.18 92.7413 177.963 93.0665 177.725 93.3771C176.396 95.1177 174.295 95.5613 172.558 94.4706C170.835 93.3888 170.431 91.3189 171.685 89.5239C175.179 84.5263 180.014 81.3701 186.196 80.1122C187.733 79.7995 189.293 79.6686 190.876 79.6748Z" fill="#F5E5F1"/>
<path d="M109.7 174.064V185.544C109.7 186.16 109.719 186.794 109.756 187.448C109.812 188.082 109.952 188.661 110.176 189.184C110.419 189.706 110.792 190.136 111.296 190.472C111.8 190.789 112.509 190.948 113.424 190.948C114.339 190.948 115.039 190.789 115.524 190.472C116.028 190.136 116.401 189.706 116.644 189.184C116.887 188.661 117.027 188.082 117.064 187.448C117.12 186.794 117.148 186.16 117.148 185.544V174.064H122.608V186.3C122.608 189.585 121.852 191.984 120.34 193.496C118.847 195.008 116.541 195.764 113.424 195.764C110.307 195.764 107.992 195.008 106.48 193.496C104.968 191.984 104.212 189.585 104.212 186.3V174.064H109.7ZM127.044 195.176V174.064H132.532L142.668 186.972V174.064H148.128V195.176H142.668L132.532 182.268V195.176H127.044ZM158.044 174.064V195.176H152.556V174.064H158.044Z" fill="#449DD1"/>
<path d="M167.942 190.528H169.202C170.154 190.528 171.004 190.378 171.75 190.08C172.497 189.781 173.122 189.37 173.626 188.848C174.149 188.325 174.541 187.709 174.802 187C175.082 186.272 175.222 185.478 175.222 184.62C175.222 183.78 175.082 182.996 174.802 182.268C174.522 181.54 174.121 180.914 173.598 180.392C173.094 179.869 172.469 179.458 171.722 179.16C170.976 178.861 170.136 178.712 169.202 178.712H167.942V190.528ZM162.454 174.064H170.574C172.012 174.064 173.356 174.353 174.606 174.932C175.876 175.51 176.977 176.285 177.91 177.256C178.862 178.208 179.609 179.328 180.15 180.616C180.692 181.885 180.962 183.22 180.962 184.62C180.962 186.001 180.692 187.336 180.15 188.624C179.628 189.893 178.89 191.013 177.938 191.984C177.005 192.954 175.904 193.729 174.634 194.308C173.384 194.886 172.03 195.176 170.574 195.176H162.454V174.064ZM189.954 174.064V195.176H184.466V174.064H189.954ZM204.64 183.36H215.532C215.532 184.48 215.486 185.497 215.392 186.412C215.299 187.326 215.112 188.176 214.832 188.96C214.44 190.061 213.908 191.041 213.236 191.9C212.564 192.74 211.771 193.449 210.856 194.028C209.96 194.588 208.971 195.017 207.888 195.316C206.806 195.614 205.667 195.764 204.472 195.764C202.83 195.764 201.327 195.493 199.964 194.952C198.62 194.41 197.463 193.654 196.492 192.684C195.522 191.694 194.766 190.518 194.224 189.156C193.683 187.774 193.412 186.253 193.412 184.592C193.412 182.949 193.674 181.446 194.196 180.084C194.738 178.702 195.494 177.526 196.464 176.556C197.454 175.585 198.639 174.829 200.02 174.288C201.402 173.746 202.942 173.476 204.64 173.476C206.843 173.476 208.775 173.952 210.436 174.904C212.098 175.856 213.414 177.33 214.384 179.328L209.176 181.484C208.691 180.326 208.056 179.496 207.272 178.992C206.507 178.488 205.63 178.236 204.64 178.236C203.819 178.236 203.072 178.394 202.4 178.712C201.728 179.01 201.15 179.449 200.664 180.028C200.198 180.588 199.824 181.269 199.544 182.072C199.283 182.874 199.152 183.77 199.152 184.76C199.152 185.656 199.264 186.486 199.488 187.252C199.731 188.017 200.086 188.68 200.552 189.24C201.019 189.8 201.598 190.238 202.288 190.556C202.979 190.854 203.782 191.004 204.696 191.004C205.238 191.004 205.76 190.948 206.264 190.836C206.768 190.705 207.216 190.509 207.608 190.248C208.019 189.968 208.355 189.613 208.616 189.184C208.878 188.754 209.055 188.232 209.148 187.616H204.64V183.36ZM224.489 174.064V195.176H219.001V174.064H224.489ZM236.908 178.712V195.176H231.42V178.712H226.912V174.064H241.416V178.712H236.908ZM254.352 187.336L251.888 180.308L249.424 187.336H254.352ZM255.808 191.508H247.968L246.708 195.176H240.856L248.892 174.064H254.884L262.92 195.176H257.068L255.808 191.508ZM270.809 174.064V190.528H277.389V195.176H265.321V174.064H270.809Z" fill="white"/>
<path d="M356.72 219.346C356.59 219.283 356.424 219.158 356.353 219.068C356.281 218.977 356.195 218.804 356.161 218.683C356.127 218.561 356.115 218.396 356.136 218.315C356.156 218.235 356.278 217.931 356.408 217.641C356.537 217.35 356.756 216.779 356.894 216.371C357.032 215.963 357.208 215.346 357.285 215.001C357.361 214.655 357.465 214.069 357.514 213.699C357.571 213.275 357.604 212.636 357.604 211.975C357.604 211.322 357.571 210.676 357.516 210.264C357.467 209.9 357.377 209.369 357.316 209.083C357.255 208.797 357.129 208.304 357.035 207.986C356.941 207.669 356.7 207.019 356.499 206.543C356.227 205.901 356.133 205.614 356.135 205.436C356.136 205.28 356.181 205.127 356.263 205.002C356.332 204.896 356.475 204.746 356.58 204.669C356.716 204.571 356.859 204.523 357.069 204.507C357.233 204.494 357.43 204.499 357.508 204.517C357.586 204.536 357.746 204.634 357.864 204.735C358.02 204.869 358.148 205.071 358.333 205.472C358.473 205.775 358.685 206.293 358.804 206.621C358.923 206.95 359.107 207.545 359.212 207.944C359.317 208.342 359.454 208.964 359.517 209.325C359.58 209.686 359.657 210.264 359.687 210.611C359.718 210.957 359.743 211.571 359.743 211.975C359.743 212.379 359.718 212.994 359.687 213.34C359.657 213.686 359.58 214.265 359.518 214.626C359.455 214.987 359.309 215.636 359.193 216.069C359.078 216.502 358.866 217.164 358.723 217.539C358.58 217.914 358.361 218.421 358.235 218.666C358.08 218.967 357.939 219.161 357.798 219.266C357.635 219.388 357.522 219.426 357.274 219.441C357.029 219.456 356.904 219.435 356.72 219.346ZM353.254 217.931C353.16 217.904 352.969 217.766 352.831 217.625C352.631 217.423 352.57 217.316 352.539 217.117C352.505 216.901 352.524 216.81 352.678 216.468C352.776 216.249 352.965 215.773 353.097 215.411C353.229 215.048 353.4 214.458 353.476 214.098C353.553 213.739 353.643 213.106 353.677 212.693C353.723 212.136 353.723 211.754 353.677 211.223C353.642 210.829 353.553 210.216 353.478 209.862C353.403 209.508 353.264 208.989 353.17 208.709C353.075 208.428 352.904 207.992 352.789 207.74C352.673 207.487 352.562 207.206 352.541 207.116C352.52 207.026 352.534 206.848 352.572 206.72C352.613 206.579 352.724 206.409 352.856 206.283C352.976 206.169 353.161 206.049 353.269 206.015C353.377 205.981 353.577 205.965 353.714 205.98C353.862 205.996 354.054 206.068 354.19 206.159C354.35 206.265 354.473 206.414 354.598 206.654C354.697 206.843 354.878 207.25 355 207.559C355.123 207.869 355.307 208.434 355.409 208.815C355.512 209.196 355.641 209.78 355.696 210.112C355.773 210.578 355.874 210.879 355.873 211.87C355.872 212.967 355.774 213.391 355.666 213.993C355.596 214.381 355.457 214.983 355.356 215.331C355.256 215.679 355.072 216.212 354.947 216.515C354.823 216.819 354.653 217.196 354.569 217.353C354.472 217.536 354.333 217.696 354.187 217.794C354.027 217.9 353.876 217.952 353.691 217.964C353.545 217.974 353.348 217.959 353.254 217.931ZM349.507 216.048C349.416 216.027 349.286 215.981 349.22 215.947C349.153 215.913 348.544 215.478 347.867 214.981C347.191 214.485 346.14 213.713 345.533 213.267C344.926 212.822 344.227 212.331 343.979 212.177C343.732 212.023 343.489 211.897 343.441 211.897C343.368 211.897 343.353 211.963 343.353 212.277C343.354 212.486 343.416 212.941 343.491 213.286C343.567 213.632 343.629 214.079 343.629 214.28C343.629 214.543 343.597 214.709 343.514 214.871C343.45 214.996 343.325 215.147 343.235 215.208C343.145 215.269 342.978 215.331 342.863 215.346C342.717 215.364 342.587 215.339 342.431 215.264C342.308 215.204 342.106 215.045 341.982 214.911C341.858 214.777 341.706 214.541 341.645 214.386C341.584 214.231 341.479 213.861 341.41 213.565C341.303 213.095 341.228 212.856 341.229 211.852C341.23 210.854 341.306 210.641 341.413 210.165C341.482 209.861 341.6 209.484 341.676 209.325C341.752 209.166 341.868 208.981 341.935 208.913C342.001 208.845 342.123 208.757 342.205 208.716C342.287 208.676 342.426 208.642 342.515 208.642C342.603 208.642 342.769 208.703 342.884 208.777C342.999 208.851 343.753 209.401 344.561 210C345.369 210.598 346.626 211.526 347.354 212.061C348.083 212.596 348.758 213.088 348.854 213.154C348.951 213.221 349.065 213.262 349.109 213.246C349.157 213.229 349.213 213.084 349.248 212.885C349.281 212.702 349.321 212.419 349.338 212.256C349.355 212.092 349.343 211.719 349.311 211.426C349.279 211.133 349.194 210.676 349.121 210.411C349.048 210.146 348.912 209.751 348.817 209.535C348.723 209.318 348.619 208.988 348.586 208.8C348.541 208.544 348.543 208.402 348.592 208.231C348.628 208.106 348.739 207.92 348.837 207.818C348.987 207.662 349.063 207.627 349.302 207.606C349.47 207.59 349.657 207.607 349.755 207.645C349.847 207.682 350.046 207.84 350.197 207.996C350.347 208.153 350.556 208.452 350.66 208.66C350.764 208.868 350.935 209.286 351.041 209.588C351.147 209.891 351.28 210.339 351.336 210.584C351.415 210.932 351.496 211.256 351.496 212.054C351.496 212.853 351.415 213.175 351.335 213.524C351.279 213.769 351.172 214.156 351.097 214.383C351.021 214.611 350.874 214.977 350.768 215.197C350.663 215.416 350.522 215.652 350.456 215.72C350.389 215.788 350.272 215.886 350.195 215.939C350.118 215.991 349.969 216.046 349.863 216.061C349.758 216.076 349.598 216.07 349.507 216.048Z" fill="white"/>
</g>
<defs>
<linearGradient id="paint0_linear_308_1986" x1="375.407" y1="119.811" x2="5.59452" y2="122.441" gradientUnits="userSpaceOnUse">
<stop stop-color="#3900A6"/>
<stop offset="1" stop-color="#342771"/>
</linearGradient>
<linearGradient id="paint1_linear_308_1986" x1="5.59273" y1="122.189" x2="375.406" y2="119.559" gradientUnits="userSpaceOnUse">
<stop stop-color="#000066"/>
<stop offset="1" stop-opacity="0"/>
</linearGradient>
<clipPath id="clip0_308_1986">
<rect width="381" height="242" rx="16" fill="white"/>
</clipPath>
</defs>
</svg>
