<svg width="60" height="60" viewBox="0 0 60 60" fill="none" xmlns="http://www.w3.org/2000/svg">
<g clip-path="url(#clip0_300_1735)">
<path d="M0 0V21.8182H5.45455V27.2727H10.9091V21.8182H21.8182V0H0ZM21.8182 21.8182V27.2727H27.2727V32.7273H16.3636V38.1818H0V60H21.8182V38.1818H38.1818V32.7273H32.7273V27.2727H43.6364V21.8182H49.0909V27.2727H54.5455V21.8182H60V0H38.1818V21.8182H21.8182ZM54.5455 27.2727V32.7273H60V27.2727H54.5455ZM54.5455 32.7273H49.0909V38.1818H54.5455V32.7273ZM54.5455 38.1818V43.6364H60V38.1818H54.5455ZM54.5455 43.6364H49.0909V38.1818H43.6364V43.6364H30V60H35.4545V49.0909H46.3636V54.5455H51.8182V49.0909H54.5455V43.6364ZM46.3636 54.5455H40.9091V60H46.3636V54.5455ZM49.0909 32.7273V27.2727H43.6364V32.7273H49.0909ZM16.3636 32.7273V27.2727H10.9091V32.7273H16.3636ZM5.45455 27.2727H0V32.7273H5.45455V27.2727ZM27.2727 0V10.9091H24.5455V16.3636H27.2727V19.0909H32.7273V10.9091H35.4545V5.45455H32.7273V0H27.2727ZM5.45455 5.45455H16.3636V16.3636H5.45455V5.45455ZM43.6364 5.45455H54.5455V16.3636H43.6364V5.45455ZM8.18182 8.18182V13.6364H13.6364V8.18182H8.18182ZM46.3636 8.18182V13.6364H51.8182V8.18182H46.3636ZM5.45455 43.6364H16.3636V54.5455H5.45455V43.6364ZM8.18182 46.3636V51.8182H13.6364V46.3636H8.18182ZM54.5455 54.5455V60H60V54.5455H54.5455Z" fill="url(#paint0_linear_300_1735)"/>
</g>
<defs>
<linearGradient id="paint0_linear_300_1735" x1="12.3089" y1="-0.0988346" x2="64.7319" y2="4.32002" gradientUnits="userSpaceOnUse">
<stop stop-color="#0F1E35"/>
<stop offset="1" stop-color="#9A9A9A"/>
</linearGradient>
<clipPath id="clip0_300_1735">
<rect width="60" height="60" fill="white"/>
</clipPath>
</defs>
</svg>
