<svg width="381" height="242" viewBox="0 0 381 242" fill="none" xmlns="http://www.w3.org/2000/svg">
<g clip-path="url(#clip0_336_2139)">
<mask id="mask0_336_2139" style="mask-type:luminance" maskUnits="userSpaceOnUse" x="0" y="0" width="381" height="242">
<path d="M0 0H381V242H0V0Z" fill="white"/>
</mask>
<g mask="url(#mask0_336_2139)">
<path d="M381 0H0V242H381V0Z" fill="url(#paint0_linear_336_2139)"/>
</g>
<path d="M109.7 169.387V180.867C109.7 181.483 109.719 182.117 109.756 182.771C109.812 183.405 109.952 183.984 110.176 184.507C110.419 185.029 110.792 185.459 111.296 185.795C111.8 186.112 112.509 186.271 113.424 186.271C114.339 186.271 115.039 186.112 115.524 185.795C116.028 185.459 116.401 185.029 116.644 184.507C116.887 183.984 117.027 183.405 117.064 182.771C117.12 182.117 117.148 181.483 117.148 180.867V169.387H122.608V181.623C122.608 184.908 121.852 187.307 120.34 188.819C118.847 190.331 116.541 191.087 113.424 191.087C110.307 191.087 107.992 190.331 106.48 188.819C104.968 187.307 104.212 184.908 104.212 181.623V169.387H109.7ZM127.044 190.499V169.387H132.532L142.668 182.295V169.387H148.128V190.499H142.668L132.532 177.591V190.499H127.044ZM158.044 169.387V190.499H152.556V169.387H158.044Z" fill="#9191E9"/>
<path d="M167.942 185.851H169.202C170.154 185.851 171.004 185.701 171.75 185.403C172.497 185.104 173.122 184.693 173.626 184.171C174.149 183.648 174.541 183.032 174.802 182.323C175.082 181.595 175.222 180.801 175.222 179.943C175.222 179.103 175.082 178.319 174.802 177.591C174.522 176.863 174.121 176.237 173.598 175.715C173.094 175.192 172.469 174.781 171.722 174.483C170.976 174.184 170.136 174.035 169.202 174.035H167.942V185.851ZM162.454 169.387H170.574C172.012 169.387 173.356 169.676 174.606 170.255C175.876 170.833 176.977 171.608 177.91 172.579C178.862 173.531 179.609 174.651 180.15 175.939C180.692 177.208 180.962 178.543 180.962 179.943C180.962 181.324 180.692 182.659 180.15 183.947C179.628 185.216 178.89 186.336 177.938 187.307C177.005 188.277 175.904 189.052 174.634 189.631C173.384 190.209 172.03 190.499 170.574 190.499H162.454V169.387ZM189.954 169.387V190.499H184.466V169.387H189.954ZM204.64 178.683H215.532C215.532 179.803 215.486 180.82 215.392 181.735C215.299 182.649 215.112 183.499 214.832 184.283C214.44 185.384 213.908 186.364 213.236 187.223C212.564 188.063 211.771 188.772 210.856 189.351C209.96 189.911 208.971 190.34 207.888 190.639C206.806 190.937 205.667 191.087 204.472 191.087C202.83 191.087 201.327 190.816 199.964 190.275C198.62 189.733 197.463 188.977 196.492 188.007C195.522 187.017 194.766 185.841 194.224 184.479C193.683 183.097 193.412 181.576 193.412 179.915C193.412 178.272 193.674 176.769 194.196 175.407C194.738 174.025 195.494 172.849 196.464 171.879C197.454 170.908 198.639 170.152 200.02 169.611C201.402 169.069 202.942 168.799 204.64 168.799C206.843 168.799 208.775 169.275 210.436 170.227C212.098 171.179 213.414 172.653 214.384 174.651L209.176 176.807C208.691 175.649 208.056 174.819 207.272 174.315C206.507 173.811 205.63 173.559 204.64 173.559C203.819 173.559 203.072 173.717 202.4 174.035C201.728 174.333 201.15 174.772 200.664 175.351C200.198 175.911 199.824 176.592 199.544 177.395C199.283 178.197 199.152 179.093 199.152 180.083C199.152 180.979 199.264 181.809 199.488 182.575C199.731 183.34 200.086 184.003 200.552 184.563C201.019 185.123 201.598 185.561 202.288 185.879C202.979 186.177 203.782 186.327 204.696 186.327C205.238 186.327 205.76 186.271 206.264 186.159C206.768 186.028 207.216 185.832 207.608 185.571C208.019 185.291 208.355 184.936 208.616 184.507C208.878 184.077 209.055 183.555 209.148 182.939H204.64V178.683ZM224.489 169.387V190.499H219.001V169.387H224.489ZM236.908 174.035V190.499H231.42V174.035H226.912V169.387H241.416V174.035H236.908ZM254.352 182.659L251.888 175.631L249.424 182.659H254.352ZM255.808 186.831H247.968L246.708 190.499H240.856L248.892 169.387H254.884L262.92 190.499H257.068L255.808 186.831ZM270.809 169.387V185.851H277.389V190.499H265.321V169.387H270.809Z" fill="white"/>
<path d="M202.252 117.774C202.168 117.87 202.036 117.953 201.906 118.03C202.087 117.891 202.27 117.752 202.252 117.774ZM206.632 110.176C206.623 110.322 206.609 110.467 206.57 110.596C206.551 110.658 206.592 110.415 206.632 110.176ZM170.896 122.391C173.951 125.802 178.387 128.13 182.889 129.313C192.042 131.717 202.902 129.885 209.795 123.422C213.292 120.142 215.354 115.849 216.007 111.297C216.155 110.867 216.236 110.405 216.236 109.919V103.808C216.236 101.441 214.047 99.1733 211.478 99.2831C208.9 99.3928 206.719 101.271 206.719 103.808V108.206C206.717 108.745 206.698 109.282 206.652 109.819C206.646 109.894 206.643 109.975 206.639 110.056C206.624 110.15 206.609 110.244 206.592 110.337C206.427 111.228 206.187 112.107 205.874 112.962C205.87 112.978 205.845 113.05 205.81 113.141C205.808 113.146 205.807 113.15 205.805 113.155C205.802 113.163 205.799 113.171 205.795 113.178C205.776 113.229 205.753 113.283 205.731 113.337C205.665 113.495 205.598 113.652 205.538 113.811C205.581 113.697 205.618 113.599 205.652 113.511C205.65 113.515 205.648 113.519 205.646 113.523C205.438 113.934 205.212 114.336 204.968 114.728C204.732 115.108 204.473 115.472 204.21 115.835C204.128 115.93 204.046 116.025 203.961 116.117C203.351 116.784 202.684 117.401 201.971 117.967C201.925 118.003 201.878 118.039 201.831 118.075C201.78 118.105 201.731 118.135 201.688 118.164C201.282 118.433 200.864 118.688 200.438 118.927C200.06 119.14 199.674 119.34 199.283 119.529C199.073 119.63 198.861 119.728 198.648 119.822C198.633 119.828 198.619 119.834 198.605 119.841C197.811 120.127 197.015 120.395 196.194 120.608C195.34 120.829 194.476 120.993 193.603 121.133C193.441 121.149 193.278 121.167 193.114 121.181C192.603 121.224 192.089 121.252 191.576 121.265C190.608 121.291 189.64 121.265 188.676 121.188C188.488 121.173 188.3 121.154 188.113 121.135C187.708 121.072 187.305 121.008 186.903 120.928C185.967 120.742 185.043 120.503 184.138 120.211C183.803 120.103 183.473 119.981 183.143 119.861C182.927 119.763 182.71 119.668 182.496 119.566C181.66 119.168 180.853 118.717 180.084 118.211C179.974 118.139 179.867 118.064 179.759 117.989C179.415 117.718 179.08 117.434 178.759 117.138C178.418 116.825 178.093 116.497 177.78 116.158C177.791 116.173 177.762 116.142 177.713 116.087C177.703 116.076 177.692 116.066 177.682 116.055C177.51 115.865 177.352 115.666 177.182 115.476C177.292 115.599 177.38 115.698 177.456 115.784C177.419 115.738 177.383 115.692 177.353 115.651C177.05 115.234 176.768 114.803 176.509 114.36C176.378 114.136 176.252 113.908 176.133 113.678C176.1 113.613 176.031 113.468 175.967 113.335C175.936 113.26 175.909 113.194 175.895 113.155C175.799 112.903 175.71 112.649 175.627 112.394C175.457 111.869 175.315 111.336 175.2 110.798C175.155 110.589 175.118 110.38 175.08 110.171C175.079 110.151 175.077 110.133 175.075 110.112C175.011 109.478 174.984 108.843 174.98 108.206V103.808C174.98 101.441 172.792 99.1733 170.222 99.2831C167.644 99.3928 165.464 101.271 165.464 103.808V109.919C165.464 110.364 165.541 110.805 165.684 111.228C166.265 115.342 168.003 119.161 170.896 122.391Z" fill="#9191E9"/>
<path d="M175.849 136.011C175.589 135.924 175.33 135.83 175.101 135.707C175.06 135.685 175.649 135.93 175.849 136.011ZM176.537 145.784C184.86 148.182 193.899 148.36 202.357 146.495C210.716 144.653 218.726 140.537 224.576 134.522C231.336 127.571 234.889 118.674 235.658 109.304C235.758 108.088 235.803 106.869 235.805 105.65V97.7744C235.805 95.4077 233.617 93.14 231.047 93.2495C228.469 93.3592 226.289 95.2377 226.289 97.7744V105.65C226.287 106.834 226.244 108.018 226.15 109.199C226.106 109.753 226.051 110.306 225.985 110.857C225.957 111.095 225.922 111.332 225.894 111.569C226.096 109.896 225.948 111.164 225.88 111.569C225.53 113.641 225.013 115.687 224.315 117.678C224.15 118.148 223.975 118.614 223.79 119.077C223.711 119.278 223.629 119.477 223.545 119.676C223.544 119.678 223.543 119.68 223.542 119.682C223.135 120.525 222.724 121.362 222.26 122.18C221.779 123.028 221.258 123.856 220.702 124.663C220.436 125.048 220.162 125.428 219.879 125.803C219.764 125.956 219.646 126.106 219.529 126.259C218.338 127.662 217.051 128.982 215.647 130.195C215.3 130.496 214.946 130.79 214.586 131.077C214.236 131.357 212.862 132.328 214.053 131.499C213.364 131.98 212.676 132.459 211.959 132.905C210.347 133.907 208.655 134.793 206.906 135.561C206.467 135.753 204.818 136.369 206.598 135.707C206.163 135.869 205.731 136.041 205.293 136.198C204.389 136.522 203.474 136.816 202.549 137.081C200.721 137.604 198.857 138.011 196.973 138.305C196.773 138.336 196.572 138.365 196.37 138.395C195.972 138.439 195.574 138.484 195.174 138.519C194.206 138.606 193.235 138.664 192.264 138.693C190.349 138.749 188.431 138.691 186.525 138.519C186.138 138.485 185.751 138.442 185.365 138.399C185.152 138.368 184.938 138.338 184.725 138.305C183.768 138.156 182.816 137.977 181.872 137.769C180.016 137.36 178.188 136.837 176.405 136.198C176.234 136.137 176.052 136.078 175.871 136.018C175.845 136.007 175.81 135.992 175.753 135.968C175.646 135.923 175.538 135.88 175.432 135.835C175.191 135.734 174.951 135.631 174.713 135.526C173.839 135.14 172.98 134.725 172.138 134.28C171.322 133.849 170.521 133.391 169.74 132.905C169.349 132.662 168.962 132.411 168.581 132.155C168.39 132.026 168.201 131.896 168.012 131.764C167.965 131.731 167.874 131.665 167.779 131.597C167.758 131.581 167.739 131.567 167.724 131.555C167.541 131.416 167.36 131.274 167.18 131.131C166.775 130.809 166.377 130.478 165.987 130.139C165.289 129.533 164.617 128.902 163.972 128.246C163.345 127.607 162.752 126.943 162.175 126.264C162.074 126.134 161.972 126.004 161.872 125.873C161.553 125.452 161.245 125.024 160.946 124.59C159.866 123.015 158.972 121.36 158.146 119.655C158.077 119.491 158.009 119.328 157.943 119.163C157.733 118.643 157.537 118.118 157.353 117.589C157.018 116.625 156.725 115.648 156.473 114.662C156.203 113.607 155.981 112.542 155.803 111.47C155.791 111.396 155.759 111.189 155.734 111.021C155.731 110.997 155.728 110.976 155.726 110.959C155.65 110.339 155.588 109.717 155.54 109.095C155.452 107.948 155.413 106.799 155.41 105.65V97.7744C155.41 95.4077 153.221 93.14 150.652 93.2495C148.074 93.3592 145.894 95.2377 145.894 97.7744V105.65C145.916 115.374 148.876 124.707 155.212 132.385C160.562 138.869 168.295 143.408 176.537 145.784Z" fill="#9191E9"/>
<path d="M255.165 93.7678C255.165 91.4011 252.977 89.1334 250.407 89.2429C247.83 89.3526 245.649 91.2311 245.649 93.7678V103.018L245.649 103.019C245.646 104.842 245.581 106.664 245.437 108.482C245.371 109.325 245.288 110.167 245.189 111.007C245.14 111.42 245.082 111.832 245.03 112.245C245.255 110.468 245.023 112.245 244.952 112.669C244.427 115.838 243.65 118.97 242.597 122.018C242.37 122.673 242.131 123.325 241.879 123.972C241.744 124.321 241.604 124.668 241.46 125.015C241.295 125.414 240.576 126.902 241.352 125.3C240.687 126.674 240.049 128.05 239.303 129.388C237.957 131.798 236.384 134.044 234.698 136.243C234.585 136.386 234.461 136.54 234.384 136.63C234.158 136.897 233.929 137.16 233.697 137.423C233.235 137.944 232.762 138.457 232.279 138.96C231.28 140 230.236 141 229.15 141.958C228.234 142.766 227.288 143.541 226.316 144.288C226.316 144.293 226.085 144.475 225.929 144.586C225.914 144.597 225.898 144.608 225.883 144.619C225.763 144.708 225.642 144.796 225.523 144.887C225.606 144.823 225.68 144.766 225.748 144.714C225.527 144.871 225.306 145.029 225.084 145.183C224.469 145.608 223.846 146.021 223.215 146.422C220.84 147.929 218.345 149.264 215.763 150.423C215.181 150.684 214.593 150.931 214.004 151.177C213.956 151.196 213.909 151.215 213.861 151.233C213.484 151.379 213.104 151.521 212.724 151.66C211.418 152.136 210.095 152.568 208.758 152.959C206.024 153.758 203.234 154.38 200.413 154.825C200.067 154.879 199.721 154.932 199.374 154.98C199.311 154.99 199.228 155 199.138 155.011C199.224 155.002 199.318 154.991 199.423 154.981C198.668 155.06 197.915 155.155 197.158 155.224C195.76 155.351 194.359 155.435 192.956 155.478C190.091 155.564 187.22 155.474 184.367 155.208C183.669 155.143 182.974 155.054 182.276 154.981C182.382 154.991 182.475 155.002 182.561 155.011C182.472 155 182.389 154.99 182.326 154.98C181.921 154.923 181.517 154.862 181.114 154.797C179.732 154.576 178.358 154.312 176.994 154.005C174.214 153.38 171.478 152.579 168.813 151.601C168.487 151.481 168.162 151.358 167.838 151.233C167.792 151.215 167.746 151.197 167.699 151.179C167.056 150.909 166.413 150.639 165.778 150.351C164.49 149.769 163.224 149.142 161.983 148.472C160.741 147.801 159.525 147.087 158.339 146.329C157.757 145.958 157.183 145.575 156.616 145.183C156.393 145.029 156.172 144.871 155.952 144.714C156.019 144.766 156.093 144.823 156.176 144.887C156.064 144.801 155.95 144.718 155.837 144.633C155.815 144.618 155.793 144.602 155.77 144.586C155.618 144.478 155.394 144.301 155.384 144.288C153.213 142.621 151.175 140.799 149.3 138.834C148.858 138.371 148.426 137.9 148.003 137.423C147.771 137.16 147.542 136.897 147.315 136.63C147.223 136.522 147.132 136.412 147.04 136.303C146.172 135.195 145.332 134.071 144.552 132.906C143.751 131.71 143.003 130.484 142.309 129.229C141.956 128.592 141.617 127.948 141.292 127.297C141.128 126.968 140.967 126.638 140.81 126.306C140.709 126.092 140.484 125.545 140.407 125.357C139.348 122.671 138.371 119.995 137.677 117.189C137.291 115.628 136.971 114.052 136.714 112.467C136.648 112.063 136.448 110.499 136.67 112.245C136.617 111.832 136.56 111.42 136.511 111.007C136.403 110.096 136.315 109.183 136.246 108.269C136.114 106.522 136.053 104.771 136.05 103.019V93.7678C136.05 91.4011 133.862 89.1334 131.292 89.2429C128.714 89.3526 126.534 91.2311 126.534 93.7678V105.649C126.534 105.921 126.564 106.191 126.619 106.457C126.901 112.513 127.92 118.582 129.896 124.334C131.968 130.368 134.995 136.125 139.059 141.169C143.129 146.22 147.908 150.535 153.464 154.097C158.598 157.389 164.337 159.893 170.245 161.637C176.185 163.39 182.443 164.33 188.656 164.525C194.877 164.72 201.179 164.093 207.236 162.732C213.284 161.372 219.196 159.174 224.596 156.246C229.999 153.316 235.014 149.56 239.188 145.17C243.855 140.263 247.444 134.706 250.124 128.618C252.954 122.19 254.425 115.312 254.961 108.375C255.009 107.758 255.045 107.14 255.075 106.522C255.134 106.241 255.165 105.95 255.165 105.649V93.7678Z" fill="#9191E9"/>
<path d="M193.351 43.8795C208.449 44.2874 222.54 51.1513 232.796 64.9218C233.374 65.6974 234.028 66.4592 234.211 67.4439C234.521 69.1129 233.741 70.5814 232.195 71.2555C230.594 71.9533 228.798 71.5655 227.732 70.1655C226.576 68.6482 225.497 67.0803 224.237 65.6326C205.829 44.4834 170.597 46.2368 154.61 69.1042C154.442 69.3442 154.282 69.5893 154.108 69.8255C152.768 71.6468 150.606 72.1195 148.839 70.9799C147.159 69.8972 146.781 67.7981 148.014 65.9976C152.623 59.2697 158.559 53.8677 165.951 49.9581C173.57 45.9283 182.1 43.8601 193.351 43.8795Z" fill="#F5E5F1"/>
<path d="M190.744 59.5486C204.038 59.9122 214.553 65.1664 222.038 75.7166C223.143 77.2737 223.076 78.9001 221.976 80.1134C220.889 81.3128 219.066 81.6629 217.551 80.9752C216.735 80.6047 216.256 79.933 215.769 79.2533C206.93 66.9157 190.559 62.9406 176.626 69.7876C171.946 72.0878 168.232 75.4333 165.36 79.6318C164.476 80.9243 163.211 81.5261 161.603 81.2647C160.136 81.0265 159.144 80.1892 158.718 78.8115C158.362 77.6622 158.703 76.6473 159.383 75.6764C165.162 67.4316 173.147 62.2827 183.341 60.2509C185.769 59.7668 188.237 59.5389 190.744 59.5486Z" fill="#F5E5F1"/>
<path d="M190.876 75.6861C198.845 75.8364 205.189 78.9485 209.801 85.1615C211.301 87.1802 211.02 89.3287 209.199 90.4762C207.339 91.6487 205.265 91.1019 203.768 89.0448C197.689 80.6868 184.935 80.3855 178.426 88.4479C178.18 88.7526 177.963 89.0777 177.725 89.3883C176.396 91.1289 174.295 91.5725 172.558 90.4818C170.835 89.4001 170.431 87.3301 171.685 85.5351C175.179 80.5375 180.014 77.3814 186.196 76.1234C187.733 75.8107 189.293 75.6798 190.876 75.6861Z" fill="#F5E5F1"/>
<path d="M356.72 219.346C356.59 219.283 356.424 219.158 356.353 219.068C356.281 218.977 356.195 218.804 356.161 218.683C356.127 218.561 356.115 218.396 356.136 218.315C356.156 218.235 356.278 217.931 356.408 217.641C356.537 217.35 356.756 216.779 356.894 216.371C357.032 215.963 357.208 215.346 357.285 215.001C357.361 214.655 357.465 214.069 357.514 213.699C357.571 213.275 357.604 212.636 357.604 211.975C357.604 211.322 357.571 210.676 357.516 210.264C357.467 209.9 357.377 209.369 357.316 209.083C357.255 208.797 357.129 208.304 357.035 207.986C356.941 207.669 356.7 207.019 356.499 206.543C356.227 205.901 356.133 205.614 356.135 205.436C356.136 205.28 356.181 205.127 356.263 205.002C356.332 204.896 356.475 204.746 356.58 204.669C356.716 204.571 356.859 204.523 357.069 204.507C357.233 204.494 357.43 204.499 357.508 204.517C357.586 204.536 357.746 204.634 357.864 204.735C358.02 204.869 358.148 205.071 358.333 205.472C358.473 205.775 358.685 206.293 358.804 206.621C358.923 206.95 359.107 207.545 359.212 207.944C359.317 208.342 359.454 208.964 359.517 209.325C359.58 209.686 359.657 210.264 359.687 210.611C359.718 210.957 359.743 211.571 359.743 211.975C359.743 212.379 359.718 212.994 359.687 213.34C359.657 213.686 359.58 214.265 359.518 214.626C359.455 214.987 359.309 215.636 359.193 216.069C359.078 216.502 358.866 217.164 358.723 217.539C358.58 217.914 358.361 218.421 358.235 218.666C358.08 218.967 357.939 219.161 357.798 219.266C357.635 219.388 357.522 219.426 357.274 219.441C357.029 219.456 356.904 219.435 356.72 219.346ZM353.254 217.931C353.16 217.904 352.969 217.766 352.831 217.625C352.631 217.423 352.57 217.316 352.539 217.117C352.505 216.901 352.524 216.81 352.678 216.468C352.776 216.249 352.965 215.773 353.097 215.411C353.229 215.048 353.4 214.458 353.476 214.098C353.553 213.739 353.643 213.106 353.677 212.693C353.723 212.136 353.723 211.754 353.677 211.223C353.642 210.829 353.553 210.216 353.478 209.862C353.403 209.508 353.264 208.989 353.17 208.709C353.075 208.428 352.904 207.992 352.789 207.74C352.673 207.487 352.562 207.206 352.541 207.116C352.52 207.026 352.534 206.848 352.572 206.72C352.613 206.579 352.724 206.409 352.856 206.283C352.976 206.169 353.161 206.049 353.269 206.015C353.377 205.981 353.577 205.965 353.714 205.98C353.862 205.996 354.054 206.068 354.19 206.159C354.35 206.265 354.473 206.414 354.598 206.654C354.697 206.843 354.878 207.25 355 207.559C355.123 207.869 355.307 208.434 355.409 208.815C355.512 209.196 355.641 209.78 355.696 210.112C355.773 210.578 355.874 210.879 355.873 211.87C355.872 212.967 355.774 213.391 355.666 213.993C355.596 214.381 355.457 214.983 355.356 215.331C355.256 215.679 355.072 216.212 354.947 216.515C354.823 216.819 354.653 217.196 354.569 217.353C354.472 217.536 354.333 217.696 354.187 217.794C354.027 217.9 353.876 217.952 353.691 217.964C353.545 217.974 353.348 217.959 353.254 217.931ZM349.507 216.048C349.416 216.027 349.286 215.981 349.22 215.947C349.153 215.913 348.544 215.478 347.867 214.981C347.191 214.485 346.14 213.713 345.533 213.267C344.926 212.822 344.227 212.331 343.979 212.177C343.732 212.023 343.489 211.897 343.441 211.897C343.368 211.897 343.353 211.963 343.353 212.277C343.354 212.486 343.416 212.941 343.491 213.286C343.567 213.632 343.629 214.079 343.629 214.28C343.629 214.543 343.597 214.709 343.514 214.871C343.45 214.996 343.325 215.147 343.235 215.208C343.145 215.269 342.978 215.331 342.863 215.346C342.717 215.364 342.587 215.339 342.431 215.264C342.308 215.204 342.106 215.045 341.982 214.911C341.858 214.777 341.706 214.541 341.645 214.386C341.584 214.231 341.479 213.861 341.41 213.565C341.303 213.095 341.228 212.856 341.229 211.852C341.23 210.854 341.306 210.641 341.413 210.165C341.482 209.861 341.6 209.484 341.676 209.325C341.752 209.166 341.868 208.981 341.935 208.913C342.001 208.845 342.123 208.757 342.205 208.716C342.287 208.676 342.426 208.642 342.515 208.642C342.603 208.642 342.769 208.703 342.884 208.777C342.999 208.851 343.753 209.401 344.561 210C345.369 210.598 346.626 211.526 347.354 212.061C348.083 212.596 348.758 213.088 348.854 213.154C348.951 213.221 349.065 213.262 349.109 213.246C349.157 213.229 349.213 213.084 349.248 212.885C349.281 212.702 349.321 212.419 349.338 212.256C349.355 212.092 349.343 211.719 349.311 211.426C349.279 211.133 349.194 210.676 349.121 210.411C349.048 210.146 348.912 209.751 348.817 209.535C348.723 209.318 348.619 208.988 348.586 208.8C348.541 208.544 348.543 208.402 348.592 208.231C348.628 208.106 348.739 207.92 348.837 207.818C348.987 207.662 349.063 207.627 349.302 207.606C349.47 207.59 349.657 207.607 349.755 207.645C349.847 207.682 350.046 207.84 350.197 207.996C350.347 208.153 350.556 208.452 350.66 208.66C350.764 208.868 350.935 209.286 351.041 209.588C351.147 209.891 351.28 210.339 351.336 210.584C351.415 210.932 351.496 211.256 351.496 212.054C351.496 212.853 351.415 213.175 351.335 213.524C351.279 213.769 351.172 214.156 351.097 214.383C351.021 214.611 350.874 214.977 350.768 215.197C350.663 215.416 350.522 215.652 350.456 215.72C350.389 215.788 350.272 215.886 350.195 215.939C350.118 215.991 349.969 216.046 349.863 216.061C349.758 216.076 349.598 216.07 349.507 216.048Z" fill="white"/>
</g>
<defs>
<linearGradient id="paint0_linear_336_2139" x1="496.24" y1="-101.053" x2="-4.03016" y2="264.696" gradientUnits="userSpaceOnUse">
<stop offset="0.505" stop-color="#3C0753"/>
<stop offset="1" stop-color="#030637"/>
</linearGradient>
<clipPath id="clip0_336_2139">
<rect width="381" height="242" rx="16" fill="white"/>
</clipPath>
</defs>
</svg>
